G04 #@! TF.FileFunction,Soldermask,Top*
%FSLAX46Y46*%
G04 Gerber Fmt 4.6, Leading zero omitted, Abs format (unit mm)*
G04 Created by KiCad (PCBNEW 4.0.7) date Sat Jan  5 20:39:28 2019*
%MOMM*%
%LPD*%
G01*
G04 APERTURE LIST*
%ADD10C,0.100000*%
%ADD11R,2.432000X2.127200*%
%ADD12O,2.432000X2.127200*%
%ADD13R,1.650000X1.900000*%
%ADD14R,1.900000X1.650000*%
%ADD15R,2.400000X2.000000*%
%ADD16R,1.200100X2.200860*%
%ADD17R,1.000000X1.100000*%
%ADD18R,2.432000X2.432000*%
%ADD19O,2.432000X2.432000*%
%ADD20R,1.700000X1.900000*%
%ADD21R,1.900000X1.700000*%
%ADD22R,3.600000X3.100000*%
%ADD23R,0.908000X1.543000*%
G04 APERTURE END LIST*
D10*
D11*
X78499000Y-28015000D03*
D12*
X78499000Y-30555000D03*
X78499000Y-33095000D03*
X78499000Y-35635000D03*
X78499000Y-38175000D03*
X78499000Y-40715000D03*
X78499000Y-43255000D03*
X78499000Y-45795000D03*
D13*
X35235000Y-30935000D03*
X35235000Y-33435000D03*
X39045000Y-30935000D03*
X39045000Y-33435000D03*
D14*
X61925000Y-32185000D03*
X64425000Y-32185000D03*
X74077000Y-27105000D03*
X71577000Y-27105000D03*
D15*
X51777000Y-26343000D03*
X55777000Y-26343000D03*
D13*
X73750000Y-41500000D03*
X73750000Y-44000000D03*
X81293000Y-35615000D03*
X81293000Y-33115000D03*
X35235000Y-44905000D03*
X35235000Y-47405000D03*
X39045000Y-44905000D03*
X39045000Y-47405000D03*
D14*
X61925000Y-46155000D03*
X64425000Y-46155000D03*
X70013000Y-42853000D03*
X67513000Y-42853000D03*
D15*
X51777000Y-40313000D03*
X55777000Y-40313000D03*
D16*
X52695000Y-29413860D03*
X50795000Y-29413860D03*
X51745000Y-32416140D03*
D17*
X59557000Y-26343000D03*
X58157000Y-26343000D03*
D16*
X52695000Y-43383860D03*
X50795000Y-43383860D03*
X51745000Y-46386140D03*
D17*
X59557000Y-40313000D03*
X58157000Y-40313000D03*
D18*
X26162000Y-24638000D03*
D19*
X26162000Y-27178000D03*
D18*
X26162000Y-38862000D03*
D19*
X26162000Y-41402000D03*
D18*
X26250000Y-46000000D03*
D19*
X26250000Y-48540000D03*
D18*
X26250000Y-31750000D03*
D19*
X26250000Y-34290000D03*
D20*
X41585000Y-28455000D03*
X41585000Y-25755000D03*
D21*
X45315000Y-25835000D03*
X48015000Y-25835000D03*
X83913000Y-38175000D03*
X81213000Y-38175000D03*
D20*
X35235000Y-28455000D03*
X35235000Y-25755000D03*
D21*
X45315000Y-28375000D03*
X48015000Y-28375000D03*
X58175000Y-32185000D03*
X55475000Y-32185000D03*
D20*
X39045000Y-28455000D03*
X39045000Y-25755000D03*
D22*
X31425000Y-25695000D03*
X31425000Y-33595000D03*
D21*
X58175000Y-29645000D03*
X55475000Y-29645000D03*
D20*
X39045000Y-42425000D03*
X39045000Y-39725000D03*
D21*
X45315000Y-39805000D03*
X48015000Y-39805000D03*
X83913000Y-40715000D03*
X81213000Y-40715000D03*
D20*
X35235000Y-42425000D03*
X35235000Y-39725000D03*
D21*
X45315000Y-42345000D03*
X48015000Y-42345000D03*
X58175000Y-46155000D03*
X55475000Y-46155000D03*
D20*
X41585000Y-42425000D03*
X41585000Y-39725000D03*
D22*
X31425000Y-39665000D03*
X31425000Y-47565000D03*
D21*
X58175000Y-43615000D03*
X55475000Y-43615000D03*
X83850000Y-45750000D03*
X81150000Y-45750000D03*
X83850000Y-43250000D03*
X81150000Y-43250000D03*
D23*
X73970000Y-39170000D03*
X72700000Y-39170000D03*
X71430000Y-39170000D03*
X70160000Y-39170000D03*
X70160000Y-32820000D03*
X71430000Y-32820000D03*
X72700000Y-32820000D03*
X73970000Y-32820000D03*
M02*
