G04 #@! TF.FileFunction,Legend,Bot*
%FSLAX46Y46*%
G04 Gerber Fmt 4.6, Leading zero omitted, Abs format (unit mm)*
G04 Created by KiCad (PCBNEW 4.0.7) date Sat Jan  5 20:39:28 2019*
%MOMM*%
%LPD*%
G01*
G04 APERTURE LIST*
%ADD10C,0.100000*%
%ADD11C,0.150000*%
G04 APERTURE END LIST*
D10*
D11*
X74947000Y-29029000D02*
X74947000Y-30029000D01*
X73247000Y-30029000D02*
X73247000Y-29029000D01*
X66600000Y-35250000D02*
X66600000Y-36250000D01*
X64900000Y-36250000D02*
X64900000Y-35250000D01*
X72250000Y-45650000D02*
X73250000Y-45650000D01*
X73250000Y-47350000D02*
X72250000Y-47350000D01*
X36085000Y-40713000D02*
X36085000Y-41713000D01*
X34385000Y-41713000D02*
X34385000Y-40713000D01*
X39895000Y-40713000D02*
X39895000Y-41713000D01*
X38195000Y-41713000D02*
X38195000Y-40713000D01*
X63675000Y-42063000D02*
X62675000Y-42063000D01*
X62675000Y-40363000D02*
X63675000Y-40363000D01*
X55285000Y-47826000D02*
X53285000Y-47826000D01*
X53285000Y-45776000D02*
X55285000Y-45776000D01*
X36085000Y-26743000D02*
X36085000Y-27743000D01*
X34385000Y-27743000D02*
X34385000Y-26743000D01*
X39895000Y-26743000D02*
X39895000Y-27743000D01*
X38195000Y-27743000D02*
X38195000Y-26743000D01*
X63675000Y-28093000D02*
X62675000Y-28093000D01*
X62675000Y-26393000D02*
X63675000Y-26393000D01*
X55285000Y-34618000D02*
X53285000Y-34618000D01*
X53285000Y-32568000D02*
X55285000Y-32568000D01*
X53244820Y-42533800D02*
X53244820Y-41832760D01*
X53244820Y-41832760D02*
X52995900Y-41832760D01*
X50445840Y-41832760D02*
X50245180Y-41832760D01*
X50245180Y-41832760D02*
X50245180Y-42533800D01*
X59965000Y-47401000D02*
X58365000Y-47401000D01*
X59965000Y-46201000D02*
X58365000Y-46201000D01*
X53244820Y-28563800D02*
X53244820Y-27862760D01*
X53244820Y-27862760D02*
X52995900Y-27862760D01*
X50445840Y-27862760D02*
X50245180Y-27862760D01*
X50245180Y-27862760D02*
X50245180Y-28563800D01*
X59965000Y-34193000D02*
X58365000Y-34193000D01*
X59965000Y-32993000D02*
X58365000Y-32993000D01*
X47265000Y-46688000D02*
X46065000Y-46688000D01*
X46065000Y-48438000D02*
X47265000Y-48438000D01*
X36110000Y-46893000D02*
X36110000Y-45693000D01*
X34360000Y-45693000D02*
X34360000Y-46893000D01*
X39920000Y-46893000D02*
X39920000Y-45693000D01*
X38170000Y-45693000D02*
X38170000Y-46893000D01*
X47265000Y-44148000D02*
X46065000Y-44148000D01*
X46065000Y-45898000D02*
X47265000Y-45898000D01*
X56225000Y-42088000D02*
X57425000Y-42088000D01*
X57425000Y-40338000D02*
X56225000Y-40338000D01*
X29600000Y-41153000D02*
X29600000Y-46353000D01*
X33250000Y-46353000D02*
X33250000Y-41153000D01*
X56225000Y-44628000D02*
X57425000Y-44628000D01*
X57425000Y-42878000D02*
X56225000Y-42878000D01*
X47265000Y-32718000D02*
X46065000Y-32718000D01*
X46065000Y-34468000D02*
X47265000Y-34468000D01*
X36110000Y-32923000D02*
X36110000Y-31723000D01*
X34360000Y-31723000D02*
X34360000Y-32923000D01*
X39920000Y-32923000D02*
X39920000Y-31723000D01*
X38170000Y-31723000D02*
X38170000Y-32923000D01*
X47265000Y-30178000D02*
X46065000Y-30178000D01*
X46065000Y-31928000D02*
X47265000Y-31928000D01*
X56225000Y-28118000D02*
X57425000Y-28118000D01*
X57425000Y-26368000D02*
X56225000Y-26368000D01*
X29600000Y-27183000D02*
X29600000Y-32383000D01*
X33250000Y-32383000D02*
X33250000Y-27183000D01*
X56225000Y-30658000D02*
X57425000Y-30658000D01*
X57425000Y-28908000D02*
X56225000Y-28908000D01*
X74605000Y-35117000D02*
X69525000Y-35117000D01*
X69525000Y-35117000D02*
X69525000Y-39689000D01*
X69525000Y-39689000D02*
X74605000Y-39689000D01*
X74605000Y-39689000D02*
X74605000Y-35117000D01*
X74605000Y-36641000D02*
X74097000Y-36641000D01*
X74097000Y-36641000D02*
X74097000Y-37911000D01*
X74097000Y-37911000D02*
X74605000Y-37911000D01*
X76554143Y-29362334D02*
X76601762Y-29314715D01*
X76649381Y-29171858D01*
X76649381Y-29076620D01*
X76601762Y-28933762D01*
X76506524Y-28838524D01*
X76411286Y-28790905D01*
X76220810Y-28743286D01*
X76077952Y-28743286D01*
X75887476Y-28790905D01*
X75792238Y-28838524D01*
X75697000Y-28933762D01*
X75649381Y-29076620D01*
X75649381Y-29171858D01*
X75697000Y-29314715D01*
X75744619Y-29362334D01*
X75649381Y-29695667D02*
X75649381Y-30362334D01*
X76649381Y-29933762D01*
X68207143Y-35107143D02*
X68254762Y-35059524D01*
X68302381Y-34916667D01*
X68302381Y-34821429D01*
X68254762Y-34678571D01*
X68159524Y-34583333D01*
X68064286Y-34535714D01*
X67873810Y-34488095D01*
X67730952Y-34488095D01*
X67540476Y-34535714D01*
X67445238Y-34583333D01*
X67350000Y-34678571D01*
X67302381Y-34821429D01*
X67302381Y-34916667D01*
X67350000Y-35059524D01*
X67397619Y-35107143D01*
X67397619Y-35488095D02*
X67350000Y-35535714D01*
X67302381Y-35630952D01*
X67302381Y-35869048D01*
X67350000Y-35964286D01*
X67397619Y-36011905D01*
X67492857Y-36059524D01*
X67588095Y-36059524D01*
X67730952Y-36011905D01*
X68302381Y-35440476D01*
X68302381Y-36059524D01*
X67397619Y-36440476D02*
X67350000Y-36488095D01*
X67302381Y-36583333D01*
X67302381Y-36821429D01*
X67350000Y-36916667D01*
X67397619Y-36964286D01*
X67492857Y-37011905D01*
X67588095Y-37011905D01*
X67730952Y-36964286D01*
X68302381Y-36392857D01*
X68302381Y-37011905D01*
X73392857Y-44757143D02*
X73440476Y-44804762D01*
X73583333Y-44852381D01*
X73678571Y-44852381D01*
X73821429Y-44804762D01*
X73916667Y-44709524D01*
X73964286Y-44614286D01*
X74011905Y-44423810D01*
X74011905Y-44280952D01*
X73964286Y-44090476D01*
X73916667Y-43995238D01*
X73821429Y-43900000D01*
X73678571Y-43852381D01*
X73583333Y-43852381D01*
X73440476Y-43900000D01*
X73392857Y-43947619D01*
X72440476Y-44852381D02*
X73011905Y-44852381D01*
X72726191Y-44852381D02*
X72726191Y-43852381D01*
X72821429Y-43995238D01*
X72916667Y-44090476D01*
X73011905Y-44138095D01*
X72107143Y-43852381D02*
X71440476Y-43852381D01*
X71869048Y-44852381D01*
X37692143Y-40570143D02*
X37739762Y-40522524D01*
X37787381Y-40379667D01*
X37787381Y-40284429D01*
X37739762Y-40141571D01*
X37644524Y-40046333D01*
X37549286Y-39998714D01*
X37358810Y-39951095D01*
X37215952Y-39951095D01*
X37025476Y-39998714D01*
X36930238Y-40046333D01*
X36835000Y-40141571D01*
X36787381Y-40284429D01*
X36787381Y-40379667D01*
X36835000Y-40522524D01*
X36882619Y-40570143D01*
X37787381Y-41522524D02*
X37787381Y-40951095D01*
X37787381Y-41236809D02*
X36787381Y-41236809D01*
X36930238Y-41141571D01*
X37025476Y-41046333D01*
X37073095Y-40951095D01*
X37120714Y-42379667D02*
X37787381Y-42379667D01*
X36739762Y-42141571D02*
X37454048Y-41903476D01*
X37454048Y-42522524D01*
X41502143Y-40570143D02*
X41549762Y-40522524D01*
X41597381Y-40379667D01*
X41597381Y-40284429D01*
X41549762Y-40141571D01*
X41454524Y-40046333D01*
X41359286Y-39998714D01*
X41168810Y-39951095D01*
X41025952Y-39951095D01*
X40835476Y-39998714D01*
X40740238Y-40046333D01*
X40645000Y-40141571D01*
X40597381Y-40284429D01*
X40597381Y-40379667D01*
X40645000Y-40522524D01*
X40692619Y-40570143D01*
X41597381Y-41522524D02*
X41597381Y-40951095D01*
X41597381Y-41236809D02*
X40597381Y-41236809D01*
X40740238Y-41141571D01*
X40835476Y-41046333D01*
X40883095Y-40951095D01*
X40597381Y-42427286D02*
X40597381Y-41951095D01*
X41073571Y-41903476D01*
X41025952Y-41951095D01*
X40978333Y-42046333D01*
X40978333Y-42284429D01*
X41025952Y-42379667D01*
X41073571Y-42427286D01*
X41168810Y-42474905D01*
X41406905Y-42474905D01*
X41502143Y-42427286D01*
X41549762Y-42379667D01*
X41597381Y-42284429D01*
X41597381Y-42046333D01*
X41549762Y-41951095D01*
X41502143Y-41903476D01*
X63817857Y-43670143D02*
X63865476Y-43717762D01*
X64008333Y-43765381D01*
X64103571Y-43765381D01*
X64246429Y-43717762D01*
X64341667Y-43622524D01*
X64389286Y-43527286D01*
X64436905Y-43336810D01*
X64436905Y-43193952D01*
X64389286Y-43003476D01*
X64341667Y-42908238D01*
X64246429Y-42813000D01*
X64103571Y-42765381D01*
X64008333Y-42765381D01*
X63865476Y-42813000D01*
X63817857Y-42860619D01*
X62865476Y-43765381D02*
X63436905Y-43765381D01*
X63151191Y-43765381D02*
X63151191Y-42765381D01*
X63246429Y-42908238D01*
X63341667Y-43003476D01*
X63436905Y-43051095D01*
X62008333Y-42765381D02*
X62198810Y-42765381D01*
X62294048Y-42813000D01*
X62341667Y-42860619D01*
X62436905Y-43003476D01*
X62484524Y-43193952D01*
X62484524Y-43574905D01*
X62436905Y-43670143D01*
X62389286Y-43717762D01*
X62294048Y-43765381D01*
X62103571Y-43765381D01*
X62008333Y-43717762D01*
X61960714Y-43670143D01*
X61913095Y-43574905D01*
X61913095Y-43336810D01*
X61960714Y-43241571D01*
X62008333Y-43193952D01*
X62103571Y-43146333D01*
X62294048Y-43146333D01*
X62389286Y-43193952D01*
X62436905Y-43241571D01*
X62484524Y-43336810D01*
X54927857Y-49458143D02*
X54975476Y-49505762D01*
X55118333Y-49553381D01*
X55213571Y-49553381D01*
X55356429Y-49505762D01*
X55451667Y-49410524D01*
X55499286Y-49315286D01*
X55546905Y-49124810D01*
X55546905Y-48981952D01*
X55499286Y-48791476D01*
X55451667Y-48696238D01*
X55356429Y-48601000D01*
X55213571Y-48553381D01*
X55118333Y-48553381D01*
X54975476Y-48601000D01*
X54927857Y-48648619D01*
X53975476Y-49553381D02*
X54546905Y-49553381D01*
X54261191Y-49553381D02*
X54261191Y-48553381D01*
X54356429Y-48696238D01*
X54451667Y-48791476D01*
X54546905Y-48839095D01*
X53404048Y-48981952D02*
X53499286Y-48934333D01*
X53546905Y-48886714D01*
X53594524Y-48791476D01*
X53594524Y-48743857D01*
X53546905Y-48648619D01*
X53499286Y-48601000D01*
X53404048Y-48553381D01*
X53213571Y-48553381D01*
X53118333Y-48601000D01*
X53070714Y-48648619D01*
X53023095Y-48743857D01*
X53023095Y-48791476D01*
X53070714Y-48886714D01*
X53118333Y-48934333D01*
X53213571Y-48981952D01*
X53404048Y-48981952D01*
X53499286Y-49029571D01*
X53546905Y-49077190D01*
X53594524Y-49172429D01*
X53594524Y-49362905D01*
X53546905Y-49458143D01*
X53499286Y-49505762D01*
X53404048Y-49553381D01*
X53213571Y-49553381D01*
X53118333Y-49505762D01*
X53070714Y-49458143D01*
X53023095Y-49362905D01*
X53023095Y-49172429D01*
X53070714Y-49077190D01*
X53118333Y-49029571D01*
X53213571Y-48981952D01*
X37692143Y-26600143D02*
X37739762Y-26552524D01*
X37787381Y-26409667D01*
X37787381Y-26314429D01*
X37739762Y-26171571D01*
X37644524Y-26076333D01*
X37549286Y-26028714D01*
X37358810Y-25981095D01*
X37215952Y-25981095D01*
X37025476Y-26028714D01*
X36930238Y-26076333D01*
X36835000Y-26171571D01*
X36787381Y-26314429D01*
X36787381Y-26409667D01*
X36835000Y-26552524D01*
X36882619Y-26600143D01*
X37787381Y-27552524D02*
X37787381Y-26981095D01*
X37787381Y-27266809D02*
X36787381Y-27266809D01*
X36930238Y-27171571D01*
X37025476Y-27076333D01*
X37073095Y-26981095D01*
X37787381Y-28028714D02*
X37787381Y-28219190D01*
X37739762Y-28314429D01*
X37692143Y-28362048D01*
X37549286Y-28457286D01*
X37358810Y-28504905D01*
X36977857Y-28504905D01*
X36882619Y-28457286D01*
X36835000Y-28409667D01*
X36787381Y-28314429D01*
X36787381Y-28123952D01*
X36835000Y-28028714D01*
X36882619Y-27981095D01*
X36977857Y-27933476D01*
X37215952Y-27933476D01*
X37311190Y-27981095D01*
X37358810Y-28028714D01*
X37406429Y-28123952D01*
X37406429Y-28314429D01*
X37358810Y-28409667D01*
X37311190Y-28457286D01*
X37215952Y-28504905D01*
X41502143Y-26600143D02*
X41549762Y-26552524D01*
X41597381Y-26409667D01*
X41597381Y-26314429D01*
X41549762Y-26171571D01*
X41454524Y-26076333D01*
X41359286Y-26028714D01*
X41168810Y-25981095D01*
X41025952Y-25981095D01*
X40835476Y-26028714D01*
X40740238Y-26076333D01*
X40645000Y-26171571D01*
X40597381Y-26314429D01*
X40597381Y-26409667D01*
X40645000Y-26552524D01*
X40692619Y-26600143D01*
X40692619Y-26981095D02*
X40645000Y-27028714D01*
X40597381Y-27123952D01*
X40597381Y-27362048D01*
X40645000Y-27457286D01*
X40692619Y-27504905D01*
X40787857Y-27552524D01*
X40883095Y-27552524D01*
X41025952Y-27504905D01*
X41597381Y-26933476D01*
X41597381Y-27552524D01*
X40597381Y-28171571D02*
X40597381Y-28266810D01*
X40645000Y-28362048D01*
X40692619Y-28409667D01*
X40787857Y-28457286D01*
X40978333Y-28504905D01*
X41216429Y-28504905D01*
X41406905Y-28457286D01*
X41502143Y-28409667D01*
X41549762Y-28362048D01*
X41597381Y-28266810D01*
X41597381Y-28171571D01*
X41549762Y-28076333D01*
X41502143Y-28028714D01*
X41406905Y-27981095D01*
X41216429Y-27933476D01*
X40978333Y-27933476D01*
X40787857Y-27981095D01*
X40692619Y-28028714D01*
X40645000Y-28076333D01*
X40597381Y-28171571D01*
X63817857Y-29700143D02*
X63865476Y-29747762D01*
X64008333Y-29795381D01*
X64103571Y-29795381D01*
X64246429Y-29747762D01*
X64341667Y-29652524D01*
X64389286Y-29557286D01*
X64436905Y-29366810D01*
X64436905Y-29223952D01*
X64389286Y-29033476D01*
X64341667Y-28938238D01*
X64246429Y-28843000D01*
X64103571Y-28795381D01*
X64008333Y-28795381D01*
X63865476Y-28843000D01*
X63817857Y-28890619D01*
X63436905Y-28890619D02*
X63389286Y-28843000D01*
X63294048Y-28795381D01*
X63055952Y-28795381D01*
X62960714Y-28843000D01*
X62913095Y-28890619D01*
X62865476Y-28985857D01*
X62865476Y-29081095D01*
X62913095Y-29223952D01*
X63484524Y-29795381D01*
X62865476Y-29795381D01*
X61913095Y-29795381D02*
X62484524Y-29795381D01*
X62198810Y-29795381D02*
X62198810Y-28795381D01*
X62294048Y-28938238D01*
X62389286Y-29033476D01*
X62484524Y-29081095D01*
X54927857Y-36250143D02*
X54975476Y-36297762D01*
X55118333Y-36345381D01*
X55213571Y-36345381D01*
X55356429Y-36297762D01*
X55451667Y-36202524D01*
X55499286Y-36107286D01*
X55546905Y-35916810D01*
X55546905Y-35773952D01*
X55499286Y-35583476D01*
X55451667Y-35488238D01*
X55356429Y-35393000D01*
X55213571Y-35345381D01*
X55118333Y-35345381D01*
X54975476Y-35393000D01*
X54927857Y-35440619D01*
X54546905Y-35440619D02*
X54499286Y-35393000D01*
X54404048Y-35345381D01*
X54165952Y-35345381D01*
X54070714Y-35393000D01*
X54023095Y-35440619D01*
X53975476Y-35535857D01*
X53975476Y-35631095D01*
X54023095Y-35773952D01*
X54594524Y-36345381D01*
X53975476Y-36345381D01*
X53642143Y-35345381D02*
X53023095Y-35345381D01*
X53356429Y-35726333D01*
X53213571Y-35726333D01*
X53118333Y-35773952D01*
X53070714Y-35821571D01*
X53023095Y-35916810D01*
X53023095Y-36154905D01*
X53070714Y-36250143D01*
X53118333Y-36297762D01*
X53213571Y-36345381D01*
X53499286Y-36345381D01*
X53594524Y-36297762D01*
X53642143Y-36250143D01*
X52483095Y-39125381D02*
X52483095Y-38125381D01*
X52245000Y-38125381D01*
X52102142Y-38173000D01*
X52006904Y-38268238D01*
X51959285Y-38363476D01*
X51911666Y-38553952D01*
X51911666Y-38696810D01*
X51959285Y-38887286D01*
X52006904Y-38982524D01*
X52102142Y-39077762D01*
X52245000Y-39125381D01*
X52483095Y-39125381D01*
X51006904Y-38125381D02*
X51483095Y-38125381D01*
X51530714Y-38601571D01*
X51483095Y-38553952D01*
X51387857Y-38506333D01*
X51149761Y-38506333D01*
X51054523Y-38553952D01*
X51006904Y-38601571D01*
X50959285Y-38696810D01*
X50959285Y-38934905D01*
X51006904Y-39030143D01*
X51054523Y-39077762D01*
X51149761Y-39125381D01*
X51387857Y-39125381D01*
X51483095Y-39077762D01*
X51530714Y-39030143D01*
X60103095Y-48753381D02*
X60103095Y-47753381D01*
X59865000Y-47753381D01*
X59722142Y-47801000D01*
X59626904Y-47896238D01*
X59579285Y-47991476D01*
X59531666Y-48181952D01*
X59531666Y-48324810D01*
X59579285Y-48515286D01*
X59626904Y-48610524D01*
X59722142Y-48705762D01*
X59865000Y-48753381D01*
X60103095Y-48753381D01*
X58674523Y-47753381D02*
X58865000Y-47753381D01*
X58960238Y-47801000D01*
X59007857Y-47848619D01*
X59103095Y-47991476D01*
X59150714Y-48181952D01*
X59150714Y-48562905D01*
X59103095Y-48658143D01*
X59055476Y-48705762D01*
X58960238Y-48753381D01*
X58769761Y-48753381D01*
X58674523Y-48705762D01*
X58626904Y-48658143D01*
X58579285Y-48562905D01*
X58579285Y-48324810D01*
X58626904Y-48229571D01*
X58674523Y-48181952D01*
X58769761Y-48134333D01*
X58960238Y-48134333D01*
X59055476Y-48181952D01*
X59103095Y-48229571D01*
X59150714Y-48324810D01*
X52483095Y-25155381D02*
X52483095Y-24155381D01*
X52245000Y-24155381D01*
X52102142Y-24203000D01*
X52006904Y-24298238D01*
X51959285Y-24393476D01*
X51911666Y-24583952D01*
X51911666Y-24726810D01*
X51959285Y-24917286D01*
X52006904Y-25012524D01*
X52102142Y-25107762D01*
X52245000Y-25155381D01*
X52483095Y-25155381D01*
X51578333Y-24155381D02*
X50911666Y-24155381D01*
X51340238Y-25155381D01*
X60103095Y-35545381D02*
X60103095Y-34545381D01*
X59865000Y-34545381D01*
X59722142Y-34593000D01*
X59626904Y-34688238D01*
X59579285Y-34783476D01*
X59531666Y-34973952D01*
X59531666Y-35116810D01*
X59579285Y-35307286D01*
X59626904Y-35402524D01*
X59722142Y-35497762D01*
X59865000Y-35545381D01*
X60103095Y-35545381D01*
X58960238Y-34973952D02*
X59055476Y-34926333D01*
X59103095Y-34878714D01*
X59150714Y-34783476D01*
X59150714Y-34735857D01*
X59103095Y-34640619D01*
X59055476Y-34593000D01*
X58960238Y-34545381D01*
X58769761Y-34545381D01*
X58674523Y-34593000D01*
X58626904Y-34640619D01*
X58579285Y-34735857D01*
X58579285Y-34783476D01*
X58626904Y-34878714D01*
X58674523Y-34926333D01*
X58769761Y-34973952D01*
X58960238Y-34973952D01*
X59055476Y-35021571D01*
X59103095Y-35069190D01*
X59150714Y-35164429D01*
X59150714Y-35354905D01*
X59103095Y-35450143D01*
X59055476Y-35497762D01*
X58960238Y-35545381D01*
X58769761Y-35545381D01*
X58674523Y-35497762D01*
X58626904Y-35450143D01*
X58579285Y-35354905D01*
X58579285Y-35164429D01*
X58626904Y-35069190D01*
X58674523Y-35021571D01*
X58769761Y-34973952D01*
X47307857Y-50115381D02*
X47641191Y-49639190D01*
X47879286Y-50115381D02*
X47879286Y-49115381D01*
X47498333Y-49115381D01*
X47403095Y-49163000D01*
X47355476Y-49210619D01*
X47307857Y-49305857D01*
X47307857Y-49448714D01*
X47355476Y-49543952D01*
X47403095Y-49591571D01*
X47498333Y-49639190D01*
X47879286Y-49639190D01*
X46355476Y-50115381D02*
X46926905Y-50115381D01*
X46641191Y-50115381D02*
X46641191Y-49115381D01*
X46736429Y-49258238D01*
X46831667Y-49353476D01*
X46926905Y-49401095D01*
X45879286Y-50115381D02*
X45688810Y-50115381D01*
X45593571Y-50067762D01*
X45545952Y-50020143D01*
X45450714Y-49877286D01*
X45403095Y-49686810D01*
X45403095Y-49305857D01*
X45450714Y-49210619D01*
X45498333Y-49163000D01*
X45593571Y-49115381D01*
X45784048Y-49115381D01*
X45879286Y-49163000D01*
X45926905Y-49210619D01*
X45974524Y-49305857D01*
X45974524Y-49543952D01*
X45926905Y-49639190D01*
X45879286Y-49686810D01*
X45784048Y-49734429D01*
X45593571Y-49734429D01*
X45498333Y-49686810D01*
X45450714Y-49639190D01*
X45403095Y-49543952D01*
X33587381Y-45650143D02*
X33111190Y-45316809D01*
X33587381Y-45078714D02*
X32587381Y-45078714D01*
X32587381Y-45459667D01*
X32635000Y-45554905D01*
X32682619Y-45602524D01*
X32777857Y-45650143D01*
X32920714Y-45650143D01*
X33015952Y-45602524D01*
X33063571Y-45554905D01*
X33111190Y-45459667D01*
X33111190Y-45078714D01*
X32682619Y-46031095D02*
X32635000Y-46078714D01*
X32587381Y-46173952D01*
X32587381Y-46412048D01*
X32635000Y-46507286D01*
X32682619Y-46554905D01*
X32777857Y-46602524D01*
X32873095Y-46602524D01*
X33015952Y-46554905D01*
X33587381Y-45983476D01*
X33587381Y-46602524D01*
X33587381Y-47554905D02*
X33587381Y-46983476D01*
X33587381Y-47269190D02*
X32587381Y-47269190D01*
X32730238Y-47173952D01*
X32825476Y-47078714D01*
X32873095Y-46983476D01*
X37397381Y-45650143D02*
X36921190Y-45316809D01*
X37397381Y-45078714D02*
X36397381Y-45078714D01*
X36397381Y-45459667D01*
X36445000Y-45554905D01*
X36492619Y-45602524D01*
X36587857Y-45650143D01*
X36730714Y-45650143D01*
X36825952Y-45602524D01*
X36873571Y-45554905D01*
X36921190Y-45459667D01*
X36921190Y-45078714D01*
X36492619Y-46031095D02*
X36445000Y-46078714D01*
X36397381Y-46173952D01*
X36397381Y-46412048D01*
X36445000Y-46507286D01*
X36492619Y-46554905D01*
X36587857Y-46602524D01*
X36683095Y-46602524D01*
X36825952Y-46554905D01*
X37397381Y-45983476D01*
X37397381Y-46602524D01*
X36492619Y-46983476D02*
X36445000Y-47031095D01*
X36397381Y-47126333D01*
X36397381Y-47364429D01*
X36445000Y-47459667D01*
X36492619Y-47507286D01*
X36587857Y-47554905D01*
X36683095Y-47554905D01*
X36825952Y-47507286D01*
X37397381Y-46935857D01*
X37397381Y-47554905D01*
X47307857Y-47575381D02*
X47641191Y-47099190D01*
X47879286Y-47575381D02*
X47879286Y-46575381D01*
X47498333Y-46575381D01*
X47403095Y-46623000D01*
X47355476Y-46670619D01*
X47307857Y-46765857D01*
X47307857Y-46908714D01*
X47355476Y-47003952D01*
X47403095Y-47051571D01*
X47498333Y-47099190D01*
X47879286Y-47099190D01*
X46926905Y-46670619D02*
X46879286Y-46623000D01*
X46784048Y-46575381D01*
X46545952Y-46575381D01*
X46450714Y-46623000D01*
X46403095Y-46670619D01*
X46355476Y-46765857D01*
X46355476Y-46861095D01*
X46403095Y-47003952D01*
X46974524Y-47575381D01*
X46355476Y-47575381D01*
X46022143Y-46575381D02*
X45403095Y-46575381D01*
X45736429Y-46956333D01*
X45593571Y-46956333D01*
X45498333Y-47003952D01*
X45450714Y-47051571D01*
X45403095Y-47146810D01*
X45403095Y-47384905D01*
X45450714Y-47480143D01*
X45498333Y-47527762D01*
X45593571Y-47575381D01*
X45879286Y-47575381D01*
X45974524Y-47527762D01*
X46022143Y-47480143D01*
X57467857Y-39565381D02*
X57801191Y-39089190D01*
X58039286Y-39565381D02*
X58039286Y-38565381D01*
X57658333Y-38565381D01*
X57563095Y-38613000D01*
X57515476Y-38660619D01*
X57467857Y-38755857D01*
X57467857Y-38898714D01*
X57515476Y-38993952D01*
X57563095Y-39041571D01*
X57658333Y-39089190D01*
X58039286Y-39089190D01*
X57086905Y-38660619D02*
X57039286Y-38613000D01*
X56944048Y-38565381D01*
X56705952Y-38565381D01*
X56610714Y-38613000D01*
X56563095Y-38660619D01*
X56515476Y-38755857D01*
X56515476Y-38851095D01*
X56563095Y-38993952D01*
X57134524Y-39565381D01*
X56515476Y-39565381D01*
X55658333Y-38898714D02*
X55658333Y-39565381D01*
X55896429Y-38517762D02*
X56134524Y-39232048D01*
X55515476Y-39232048D01*
X34977381Y-43110143D02*
X34501190Y-42776809D01*
X34977381Y-42538714D02*
X33977381Y-42538714D01*
X33977381Y-42919667D01*
X34025000Y-43014905D01*
X34072619Y-43062524D01*
X34167857Y-43110143D01*
X34310714Y-43110143D01*
X34405952Y-43062524D01*
X34453571Y-43014905D01*
X34501190Y-42919667D01*
X34501190Y-42538714D01*
X34072619Y-43491095D02*
X34025000Y-43538714D01*
X33977381Y-43633952D01*
X33977381Y-43872048D01*
X34025000Y-43967286D01*
X34072619Y-44014905D01*
X34167857Y-44062524D01*
X34263095Y-44062524D01*
X34405952Y-44014905D01*
X34977381Y-43443476D01*
X34977381Y-44062524D01*
X33977381Y-44967286D02*
X33977381Y-44491095D01*
X34453571Y-44443476D01*
X34405952Y-44491095D01*
X34358333Y-44586333D01*
X34358333Y-44824429D01*
X34405952Y-44919667D01*
X34453571Y-44967286D01*
X34548810Y-45014905D01*
X34786905Y-45014905D01*
X34882143Y-44967286D01*
X34929762Y-44919667D01*
X34977381Y-44824429D01*
X34977381Y-44586333D01*
X34929762Y-44491095D01*
X34882143Y-44443476D01*
X57467857Y-42105381D02*
X57801191Y-41629190D01*
X58039286Y-42105381D02*
X58039286Y-41105381D01*
X57658333Y-41105381D01*
X57563095Y-41153000D01*
X57515476Y-41200619D01*
X57467857Y-41295857D01*
X57467857Y-41438714D01*
X57515476Y-41533952D01*
X57563095Y-41581571D01*
X57658333Y-41629190D01*
X58039286Y-41629190D01*
X57086905Y-41200619D02*
X57039286Y-41153000D01*
X56944048Y-41105381D01*
X56705952Y-41105381D01*
X56610714Y-41153000D01*
X56563095Y-41200619D01*
X56515476Y-41295857D01*
X56515476Y-41391095D01*
X56563095Y-41533952D01*
X57134524Y-42105381D01*
X56515476Y-42105381D01*
X55658333Y-41105381D02*
X55848810Y-41105381D01*
X55944048Y-41153000D01*
X55991667Y-41200619D01*
X56086905Y-41343476D01*
X56134524Y-41533952D01*
X56134524Y-41914905D01*
X56086905Y-42010143D01*
X56039286Y-42057762D01*
X55944048Y-42105381D01*
X55753571Y-42105381D01*
X55658333Y-42057762D01*
X55610714Y-42010143D01*
X55563095Y-41914905D01*
X55563095Y-41676810D01*
X55610714Y-41581571D01*
X55658333Y-41533952D01*
X55753571Y-41486333D01*
X55944048Y-41486333D01*
X56039286Y-41533952D01*
X56086905Y-41581571D01*
X56134524Y-41676810D01*
X47307857Y-36145381D02*
X47641191Y-35669190D01*
X47879286Y-36145381D02*
X47879286Y-35145381D01*
X47498333Y-35145381D01*
X47403095Y-35193000D01*
X47355476Y-35240619D01*
X47307857Y-35335857D01*
X47307857Y-35478714D01*
X47355476Y-35573952D01*
X47403095Y-35621571D01*
X47498333Y-35669190D01*
X47879286Y-35669190D01*
X46926905Y-35240619D02*
X46879286Y-35193000D01*
X46784048Y-35145381D01*
X46545952Y-35145381D01*
X46450714Y-35193000D01*
X46403095Y-35240619D01*
X46355476Y-35335857D01*
X46355476Y-35431095D01*
X46403095Y-35573952D01*
X46974524Y-36145381D01*
X46355476Y-36145381D01*
X46022143Y-35145381D02*
X45355476Y-35145381D01*
X45784048Y-36145381D01*
X33587381Y-31680143D02*
X33111190Y-31346809D01*
X33587381Y-31108714D02*
X32587381Y-31108714D01*
X32587381Y-31489667D01*
X32635000Y-31584905D01*
X32682619Y-31632524D01*
X32777857Y-31680143D01*
X32920714Y-31680143D01*
X33015952Y-31632524D01*
X33063571Y-31584905D01*
X33111190Y-31489667D01*
X33111190Y-31108714D01*
X32682619Y-32061095D02*
X32635000Y-32108714D01*
X32587381Y-32203952D01*
X32587381Y-32442048D01*
X32635000Y-32537286D01*
X32682619Y-32584905D01*
X32777857Y-32632524D01*
X32873095Y-32632524D01*
X33015952Y-32584905D01*
X33587381Y-32013476D01*
X33587381Y-32632524D01*
X33587381Y-33108714D02*
X33587381Y-33299190D01*
X33539762Y-33394429D01*
X33492143Y-33442048D01*
X33349286Y-33537286D01*
X33158810Y-33584905D01*
X32777857Y-33584905D01*
X32682619Y-33537286D01*
X32635000Y-33489667D01*
X32587381Y-33394429D01*
X32587381Y-33203952D01*
X32635000Y-33108714D01*
X32682619Y-33061095D01*
X32777857Y-33013476D01*
X33015952Y-33013476D01*
X33111190Y-33061095D01*
X33158810Y-33108714D01*
X33206429Y-33203952D01*
X33206429Y-33394429D01*
X33158810Y-33489667D01*
X33111190Y-33537286D01*
X33015952Y-33584905D01*
X37397381Y-31680143D02*
X36921190Y-31346809D01*
X37397381Y-31108714D02*
X36397381Y-31108714D01*
X36397381Y-31489667D01*
X36445000Y-31584905D01*
X36492619Y-31632524D01*
X36587857Y-31680143D01*
X36730714Y-31680143D01*
X36825952Y-31632524D01*
X36873571Y-31584905D01*
X36921190Y-31489667D01*
X36921190Y-31108714D01*
X36397381Y-32013476D02*
X36397381Y-32632524D01*
X36778333Y-32299190D01*
X36778333Y-32442048D01*
X36825952Y-32537286D01*
X36873571Y-32584905D01*
X36968810Y-32632524D01*
X37206905Y-32632524D01*
X37302143Y-32584905D01*
X37349762Y-32537286D01*
X37397381Y-32442048D01*
X37397381Y-32156333D01*
X37349762Y-32061095D01*
X37302143Y-32013476D01*
X36397381Y-33251571D02*
X36397381Y-33346810D01*
X36445000Y-33442048D01*
X36492619Y-33489667D01*
X36587857Y-33537286D01*
X36778333Y-33584905D01*
X37016429Y-33584905D01*
X37206905Y-33537286D01*
X37302143Y-33489667D01*
X37349762Y-33442048D01*
X37397381Y-33346810D01*
X37397381Y-33251571D01*
X37349762Y-33156333D01*
X37302143Y-33108714D01*
X37206905Y-33061095D01*
X37016429Y-33013476D01*
X36778333Y-33013476D01*
X36587857Y-33061095D01*
X36492619Y-33108714D01*
X36445000Y-33156333D01*
X36397381Y-33251571D01*
X47307857Y-33605381D02*
X47641191Y-33129190D01*
X47879286Y-33605381D02*
X47879286Y-32605381D01*
X47498333Y-32605381D01*
X47403095Y-32653000D01*
X47355476Y-32700619D01*
X47307857Y-32795857D01*
X47307857Y-32938714D01*
X47355476Y-33033952D01*
X47403095Y-33081571D01*
X47498333Y-33129190D01*
X47879286Y-33129190D01*
X46974524Y-32605381D02*
X46355476Y-32605381D01*
X46688810Y-32986333D01*
X46545952Y-32986333D01*
X46450714Y-33033952D01*
X46403095Y-33081571D01*
X46355476Y-33176810D01*
X46355476Y-33414905D01*
X46403095Y-33510143D01*
X46450714Y-33557762D01*
X46545952Y-33605381D01*
X46831667Y-33605381D01*
X46926905Y-33557762D01*
X46974524Y-33510143D01*
X45403095Y-33605381D02*
X45974524Y-33605381D01*
X45688810Y-33605381D02*
X45688810Y-32605381D01*
X45784048Y-32748238D01*
X45879286Y-32843476D01*
X45974524Y-32891095D01*
X57467857Y-25595381D02*
X57801191Y-25119190D01*
X58039286Y-25595381D02*
X58039286Y-24595381D01*
X57658333Y-24595381D01*
X57563095Y-24643000D01*
X57515476Y-24690619D01*
X57467857Y-24785857D01*
X57467857Y-24928714D01*
X57515476Y-25023952D01*
X57563095Y-25071571D01*
X57658333Y-25119190D01*
X58039286Y-25119190D01*
X57134524Y-24595381D02*
X56515476Y-24595381D01*
X56848810Y-24976333D01*
X56705952Y-24976333D01*
X56610714Y-25023952D01*
X56563095Y-25071571D01*
X56515476Y-25166810D01*
X56515476Y-25404905D01*
X56563095Y-25500143D01*
X56610714Y-25547762D01*
X56705952Y-25595381D01*
X56991667Y-25595381D01*
X57086905Y-25547762D01*
X57134524Y-25500143D01*
X56134524Y-24690619D02*
X56086905Y-24643000D01*
X55991667Y-24595381D01*
X55753571Y-24595381D01*
X55658333Y-24643000D01*
X55610714Y-24690619D01*
X55563095Y-24785857D01*
X55563095Y-24881095D01*
X55610714Y-25023952D01*
X56182143Y-25595381D01*
X55563095Y-25595381D01*
X34977381Y-29140143D02*
X34501190Y-28806809D01*
X34977381Y-28568714D02*
X33977381Y-28568714D01*
X33977381Y-28949667D01*
X34025000Y-29044905D01*
X34072619Y-29092524D01*
X34167857Y-29140143D01*
X34310714Y-29140143D01*
X34405952Y-29092524D01*
X34453571Y-29044905D01*
X34501190Y-28949667D01*
X34501190Y-28568714D01*
X33977381Y-29473476D02*
X33977381Y-30092524D01*
X34358333Y-29759190D01*
X34358333Y-29902048D01*
X34405952Y-29997286D01*
X34453571Y-30044905D01*
X34548810Y-30092524D01*
X34786905Y-30092524D01*
X34882143Y-30044905D01*
X34929762Y-29997286D01*
X34977381Y-29902048D01*
X34977381Y-29616333D01*
X34929762Y-29521095D01*
X34882143Y-29473476D01*
X33977381Y-30425857D02*
X33977381Y-31044905D01*
X34358333Y-30711571D01*
X34358333Y-30854429D01*
X34405952Y-30949667D01*
X34453571Y-30997286D01*
X34548810Y-31044905D01*
X34786905Y-31044905D01*
X34882143Y-30997286D01*
X34929762Y-30949667D01*
X34977381Y-30854429D01*
X34977381Y-30568714D01*
X34929762Y-30473476D01*
X34882143Y-30425857D01*
X57467857Y-28135381D02*
X57801191Y-27659190D01*
X58039286Y-28135381D02*
X58039286Y-27135381D01*
X57658333Y-27135381D01*
X57563095Y-27183000D01*
X57515476Y-27230619D01*
X57467857Y-27325857D01*
X57467857Y-27468714D01*
X57515476Y-27563952D01*
X57563095Y-27611571D01*
X57658333Y-27659190D01*
X58039286Y-27659190D01*
X57134524Y-27135381D02*
X56515476Y-27135381D01*
X56848810Y-27516333D01*
X56705952Y-27516333D01*
X56610714Y-27563952D01*
X56563095Y-27611571D01*
X56515476Y-27706810D01*
X56515476Y-27944905D01*
X56563095Y-28040143D01*
X56610714Y-28087762D01*
X56705952Y-28135381D01*
X56991667Y-28135381D01*
X57086905Y-28087762D01*
X57134524Y-28040143D01*
X55658333Y-27468714D02*
X55658333Y-28135381D01*
X55896429Y-27087762D02*
X56134524Y-27802048D01*
X55515476Y-27802048D01*
X72826905Y-35585381D02*
X72826905Y-36394905D01*
X72779286Y-36490143D01*
X72731667Y-36537762D01*
X72636429Y-36585381D01*
X72445952Y-36585381D01*
X72350714Y-36537762D01*
X72303095Y-36490143D01*
X72255476Y-36394905D01*
X72255476Y-35585381D01*
X71826905Y-35680619D02*
X71779286Y-35633000D01*
X71684048Y-35585381D01*
X71445952Y-35585381D01*
X71350714Y-35633000D01*
X71303095Y-35680619D01*
X71255476Y-35775857D01*
X71255476Y-35871095D01*
X71303095Y-36013952D01*
X71874524Y-36585381D01*
X71255476Y-36585381D01*
M02*
