G04 #@! TF.FileFunction,Copper,L1,Top,Signal*
%FSLAX46Y46*%
G04 Gerber Fmt 4.6, Leading zero omitted, Abs format (unit mm)*
G04 Created by KiCad (PCBNEW 4.0.7) date Sat Jan  5 20:39:28 2019*
%MOMM*%
%LPD*%
G01*
G04 APERTURE LIST*
%ADD10C,0.100000*%
%ADD11R,2.032000X1.727200*%
%ADD12O,2.032000X1.727200*%
%ADD13R,1.250000X1.500000*%
%ADD14R,1.500000X1.250000*%
%ADD15R,2.000000X1.600000*%
%ADD16R,0.800100X1.800860*%
%ADD17R,0.600000X0.700000*%
%ADD18R,2.032000X2.032000*%
%ADD19O,2.032000X2.032000*%
%ADD20R,1.300000X1.500000*%
%ADD21R,1.500000X1.300000*%
%ADD22R,3.200000X2.700000*%
%ADD23R,0.508000X1.143000*%
%ADD24C,0.500000*%
%ADD25C,1.000000*%
%ADD26C,0.254000*%
G04 APERTURE END LIST*
D10*
D11*
X78499000Y-28015000D03*
D12*
X78499000Y-30555000D03*
X78499000Y-33095000D03*
X78499000Y-35635000D03*
X78499000Y-38175000D03*
X78499000Y-40715000D03*
X78499000Y-43255000D03*
X78499000Y-45795000D03*
D13*
X35235000Y-30935000D03*
X35235000Y-33435000D03*
X39045000Y-30935000D03*
X39045000Y-33435000D03*
D14*
X61925000Y-32185000D03*
X64425000Y-32185000D03*
X74077000Y-27105000D03*
X71577000Y-27105000D03*
D15*
X51777000Y-26343000D03*
X55777000Y-26343000D03*
D13*
X73750000Y-41500000D03*
X73750000Y-44000000D03*
X81293000Y-35615000D03*
X81293000Y-33115000D03*
X35235000Y-44905000D03*
X35235000Y-47405000D03*
X39045000Y-44905000D03*
X39045000Y-47405000D03*
D14*
X61925000Y-46155000D03*
X64425000Y-46155000D03*
X70013000Y-42853000D03*
X67513000Y-42853000D03*
D15*
X51777000Y-40313000D03*
X55777000Y-40313000D03*
D16*
X52695000Y-29413860D03*
X50795000Y-29413860D03*
X51745000Y-32416140D03*
D17*
X59557000Y-26343000D03*
X58157000Y-26343000D03*
D16*
X52695000Y-43383860D03*
X50795000Y-43383860D03*
X51745000Y-46386140D03*
D17*
X59557000Y-40313000D03*
X58157000Y-40313000D03*
D18*
X26162000Y-24638000D03*
D19*
X26162000Y-27178000D03*
D18*
X26162000Y-38862000D03*
D19*
X26162000Y-41402000D03*
D18*
X26250000Y-46000000D03*
D19*
X26250000Y-48540000D03*
D18*
X26250000Y-31750000D03*
D19*
X26250000Y-34290000D03*
D20*
X41585000Y-28455000D03*
X41585000Y-25755000D03*
D21*
X45315000Y-25835000D03*
X48015000Y-25835000D03*
X83913000Y-38175000D03*
X81213000Y-38175000D03*
D20*
X35235000Y-28455000D03*
X35235000Y-25755000D03*
D21*
X45315000Y-28375000D03*
X48015000Y-28375000D03*
X58175000Y-32185000D03*
X55475000Y-32185000D03*
D20*
X39045000Y-28455000D03*
X39045000Y-25755000D03*
D22*
X31425000Y-25695000D03*
X31425000Y-33595000D03*
D21*
X58175000Y-29645000D03*
X55475000Y-29645000D03*
D20*
X39045000Y-42425000D03*
X39045000Y-39725000D03*
D21*
X45315000Y-39805000D03*
X48015000Y-39805000D03*
X83913000Y-40715000D03*
X81213000Y-40715000D03*
D20*
X35235000Y-42425000D03*
X35235000Y-39725000D03*
D21*
X45315000Y-42345000D03*
X48015000Y-42345000D03*
X58175000Y-46155000D03*
X55475000Y-46155000D03*
D20*
X41585000Y-42425000D03*
X41585000Y-39725000D03*
D22*
X31425000Y-39665000D03*
X31425000Y-47565000D03*
D21*
X58175000Y-43615000D03*
X55475000Y-43615000D03*
X83850000Y-45750000D03*
X81150000Y-45750000D03*
X83850000Y-43250000D03*
X81150000Y-43250000D03*
D23*
X73970000Y-39170000D03*
X72700000Y-39170000D03*
X71430000Y-39170000D03*
X70160000Y-39170000D03*
X70160000Y-32820000D03*
X71430000Y-32820000D03*
X72700000Y-32820000D03*
X73970000Y-32820000D03*
D24*
X45315000Y-25835000D02*
X41665000Y-25835000D01*
X41665000Y-25835000D02*
X41585000Y-25755000D01*
X39045000Y-25755000D02*
X41585000Y-25755000D01*
X35235000Y-28455000D02*
X35235000Y-30935000D01*
X37013000Y-26343000D02*
X37601000Y-25755000D01*
X37601000Y-25755000D02*
X39045000Y-25755000D01*
X37013000Y-27827000D02*
X37013000Y-26343000D01*
X35235000Y-28455000D02*
X36385000Y-28455000D01*
X36385000Y-28455000D02*
X37013000Y-27827000D01*
X73750000Y-44000000D02*
X73750000Y-44125000D01*
X72700000Y-32820000D02*
X72700000Y-29772000D01*
X72700000Y-29772000D02*
X71577000Y-28649000D01*
X71577000Y-28649000D02*
X71577000Y-27105000D01*
X68783000Y-27105000D02*
X71577000Y-27105000D01*
X81273000Y-33095000D02*
X81293000Y-33115000D01*
X51745000Y-46886520D02*
X51745000Y-46386140D01*
X67513000Y-42325000D02*
X67513000Y-42853000D01*
X31585000Y-47405000D02*
X31425000Y-47565000D01*
X51745000Y-32916520D02*
X51745000Y-32416140D01*
X35075000Y-33595000D02*
X35235000Y-33435000D01*
X66223000Y-27105000D02*
X65461000Y-26343000D01*
X65461000Y-26343000D02*
X59557000Y-26343000D01*
X68783000Y-27105000D02*
X66223000Y-27105000D01*
X41585000Y-28455000D02*
X45235000Y-28455000D01*
X45235000Y-28455000D02*
X45315000Y-28375000D01*
X41585000Y-28455000D02*
X39045000Y-28455000D01*
X39045000Y-30935000D02*
X39045000Y-28455000D01*
X70795000Y-30153000D02*
X71430000Y-30788000D01*
X71430000Y-30788000D02*
X71430000Y-32820000D01*
X62832000Y-30153000D02*
X70795000Y-30153000D01*
X61925000Y-32185000D02*
X61925000Y-31060000D01*
X61925000Y-31060000D02*
X62832000Y-30153000D01*
X58175000Y-32185000D02*
X61925000Y-32185000D01*
X73970000Y-32820000D02*
X73970000Y-33646000D01*
X73970000Y-33646000D02*
X78499000Y-38175000D01*
X73970000Y-32820000D02*
X73970000Y-27212000D01*
X73970000Y-27212000D02*
X74077000Y-27105000D01*
X51777000Y-26343000D02*
X51777000Y-25549000D01*
X74097000Y-26089000D02*
X74097000Y-27085000D01*
X51777000Y-25549000D02*
X52761000Y-24565000D01*
X52761000Y-24565000D02*
X72573000Y-24565000D01*
X72573000Y-24565000D02*
X74097000Y-26089000D01*
X74097000Y-27085000D02*
X74077000Y-27105000D01*
X81213000Y-38175000D02*
X78499000Y-38175000D01*
X49967000Y-26343000D02*
X49459000Y-25835000D01*
X49459000Y-25835000D02*
X48015000Y-25835000D01*
X51777000Y-26343000D02*
X49967000Y-26343000D01*
X55777000Y-26343000D02*
X58157000Y-26343000D01*
X58175000Y-29645000D02*
X58175000Y-26361000D01*
X58175000Y-26361000D02*
X58157000Y-26343000D01*
X73970000Y-39170000D02*
X73897000Y-41353000D01*
X73897000Y-41353000D02*
X73750000Y-41500000D01*
X83913000Y-38175000D02*
X83913000Y-36985000D01*
X83913000Y-36985000D02*
X82543000Y-35615000D01*
X82543000Y-35615000D02*
X81293000Y-35615000D01*
X83913000Y-40715000D02*
X83913000Y-38175000D01*
X82289000Y-35615000D02*
X81293000Y-35615000D01*
X78499000Y-35635000D02*
X81273000Y-35635000D01*
X81273000Y-35635000D02*
X81293000Y-35615000D01*
X83913000Y-43255000D02*
X83913000Y-40715000D01*
X83913000Y-45795000D02*
X83913000Y-43255000D01*
X41585000Y-39725000D02*
X45235000Y-39725000D01*
X45235000Y-39725000D02*
X45315000Y-39805000D01*
X39045000Y-39725000D02*
X41585000Y-39725000D01*
X35235000Y-42425000D02*
X36679000Y-42425000D01*
X36679000Y-42425000D02*
X37267000Y-41837000D01*
X37267000Y-41837000D02*
X37267000Y-40353000D01*
X37895000Y-39725000D02*
X39045000Y-39725000D01*
X37267000Y-40353000D02*
X37895000Y-39725000D01*
X35235000Y-44905000D02*
X35235000Y-42425000D01*
X41585000Y-42425000D02*
X45235000Y-42425000D01*
X45235000Y-42425000D02*
X45315000Y-42345000D01*
X39045000Y-42425000D02*
X39045000Y-44905000D01*
X39045000Y-42425000D02*
X41585000Y-42425000D01*
X61925000Y-43341000D02*
X66096000Y-39170000D01*
X66096000Y-39170000D02*
X70160000Y-39170000D01*
X61925000Y-46155000D02*
X61925000Y-43341000D01*
X58175000Y-46155000D02*
X61925000Y-46155000D01*
X72700000Y-39170000D02*
X72700000Y-38050000D01*
X75284000Y-37500000D02*
X78499000Y-40715000D01*
X73250000Y-37500000D02*
X75284000Y-37500000D01*
X72700000Y-38050000D02*
X73250000Y-37500000D01*
X51777000Y-40313000D02*
X51777000Y-39519000D01*
X51777000Y-39519000D02*
X55047000Y-36249000D01*
X55047000Y-36249000D02*
X71500000Y-36250000D01*
X71500000Y-36250000D02*
X72700000Y-37138000D01*
X72700000Y-37138000D02*
X72700000Y-39170000D01*
X78499000Y-40715000D02*
X81213000Y-40715000D01*
X72700000Y-39170000D02*
X72000000Y-42000000D01*
X72000000Y-42000000D02*
X71500000Y-42750000D01*
X70013000Y-42853000D02*
X71500000Y-42750000D01*
X48015000Y-39805000D02*
X49459000Y-39805000D01*
X49459000Y-39805000D02*
X49967000Y-40313000D01*
X49967000Y-40313000D02*
X51777000Y-40313000D01*
X58175000Y-43615000D02*
X58175000Y-40331000D01*
X58175000Y-40331000D02*
X58157000Y-40313000D01*
X55777000Y-40313000D02*
X58157000Y-40313000D01*
X78499000Y-45795000D02*
X81105000Y-45795000D01*
X81105000Y-45795000D02*
X81150000Y-45750000D01*
X78499000Y-43255000D02*
X81145000Y-43255000D01*
X81145000Y-43255000D02*
X81150000Y-43250000D01*
X55475000Y-29645000D02*
X55475000Y-32185000D01*
X52695000Y-29413860D02*
X55243860Y-29413860D01*
X55243860Y-29413860D02*
X55475000Y-29645000D01*
X50795000Y-29413860D02*
X52695000Y-29413860D01*
X48015000Y-28375000D02*
X49756140Y-28375000D01*
X49756140Y-28375000D02*
X50795000Y-29413860D01*
X55475000Y-43615000D02*
X55475000Y-46155000D01*
X52695000Y-43383860D02*
X55243860Y-43383860D01*
X55243860Y-43383860D02*
X55475000Y-43615000D01*
X52695000Y-43383860D02*
X50795000Y-43383860D01*
X48015000Y-42345000D02*
X49756140Y-42345000D01*
X49756140Y-42345000D02*
X50795000Y-43383860D01*
D25*
X26162000Y-24638000D02*
X27940000Y-24638000D01*
X28997000Y-25695000D02*
X31425000Y-25695000D01*
X27940000Y-24638000D02*
X28997000Y-25695000D01*
D24*
X31425000Y-25695000D02*
X35175000Y-25695000D01*
X35175000Y-25695000D02*
X35235000Y-25755000D01*
D25*
X26162000Y-38862000D02*
X27940000Y-38862000D01*
X28743000Y-39665000D02*
X31425000Y-39665000D01*
X27940000Y-38862000D02*
X28743000Y-39665000D01*
D24*
X31425000Y-39665000D02*
X35175000Y-39665000D01*
X35175000Y-39665000D02*
X35235000Y-39725000D01*
D26*
G36*
X71208135Y-37134982D02*
X71815000Y-37584063D01*
X71815000Y-37965443D01*
X71810309Y-37963500D01*
X71715750Y-37963500D01*
X71557000Y-38122250D01*
X71557000Y-39043000D01*
X71577000Y-39043000D01*
X71577000Y-39297000D01*
X71557000Y-39297000D01*
X71557000Y-40105231D01*
X71177972Y-41637585D01*
X71129690Y-41710008D01*
X71014890Y-41631569D01*
X70763000Y-41580560D01*
X69263000Y-41580560D01*
X69027683Y-41624838D01*
X68811559Y-41763910D01*
X68765031Y-41832006D01*
X68622698Y-41689673D01*
X68389309Y-41593000D01*
X67798750Y-41593000D01*
X67640000Y-41751750D01*
X67640000Y-42726000D01*
X67660000Y-42726000D01*
X67660000Y-42980000D01*
X67640000Y-42980000D01*
X67640000Y-43954250D01*
X67798750Y-44113000D01*
X68389309Y-44113000D01*
X68622698Y-44016327D01*
X68763936Y-43875090D01*
X68798910Y-43929441D01*
X69011110Y-44074431D01*
X69263000Y-44125440D01*
X70763000Y-44125440D01*
X70998317Y-44081162D01*
X71214441Y-43942090D01*
X71359431Y-43729890D01*
X71376485Y-43645677D01*
X71561155Y-43632885D01*
X71616355Y-43617875D01*
X71673563Y-43617815D01*
X71781543Y-43572955D01*
X71894365Y-43542276D01*
X71939620Y-43507283D01*
X71992449Y-43485336D01*
X72075039Y-43402573D01*
X72167537Y-43331051D01*
X72195956Y-43281403D01*
X72236365Y-43240910D01*
X72629035Y-42651905D01*
X72660910Y-42701441D01*
X72729006Y-42747969D01*
X72586673Y-42890302D01*
X72490000Y-43123691D01*
X72490000Y-43714250D01*
X72648750Y-43873000D01*
X73623000Y-43873000D01*
X73623000Y-43853000D01*
X73877000Y-43853000D01*
X73877000Y-43873000D01*
X74851250Y-43873000D01*
X75010000Y-43714250D01*
X75010000Y-43123691D01*
X74913327Y-42890302D01*
X74772090Y-42749064D01*
X74826441Y-42714090D01*
X74971431Y-42501890D01*
X75022440Y-42250000D01*
X75022440Y-40750000D01*
X74978162Y-40514683D01*
X74839090Y-40298559D01*
X74818232Y-40284308D01*
X74829450Y-39948852D01*
X74871440Y-39741500D01*
X74871440Y-38598500D01*
X74831267Y-38385000D01*
X74917420Y-38385000D01*
X76887290Y-40354869D01*
X76815655Y-40715000D01*
X76929729Y-41288489D01*
X77254585Y-41774670D01*
X77569366Y-41985000D01*
X77254585Y-42195330D01*
X76929729Y-42681511D01*
X76815655Y-43255000D01*
X76929729Y-43828489D01*
X77254585Y-44314670D01*
X77569366Y-44525000D01*
X77254585Y-44735330D01*
X76929729Y-45221511D01*
X76815655Y-45795000D01*
X76929729Y-46368489D01*
X77254585Y-46854670D01*
X77740766Y-47179526D01*
X78314255Y-47293600D01*
X78683745Y-47293600D01*
X79257234Y-47179526D01*
X79743415Y-46854670D01*
X79842533Y-46706329D01*
X79935910Y-46851441D01*
X80148110Y-46996431D01*
X80400000Y-47047440D01*
X81900000Y-47047440D01*
X82135317Y-47003162D01*
X82351441Y-46864090D01*
X82496431Y-46651890D01*
X82499081Y-46638803D01*
X82635910Y-46851441D01*
X82848110Y-46996431D01*
X83100000Y-47047440D01*
X84600000Y-47047440D01*
X84790000Y-47011689D01*
X84790000Y-50040000D01*
X26863776Y-50040000D01*
X27218379Y-49877188D01*
X27656385Y-49404818D01*
X27855975Y-48922944D01*
X27736836Y-48667000D01*
X26377000Y-48667000D01*
X26377000Y-48687000D01*
X26123000Y-48687000D01*
X26123000Y-48667000D01*
X26103000Y-48667000D01*
X26103000Y-48413000D01*
X26123000Y-48413000D01*
X26123000Y-48393000D01*
X26377000Y-48393000D01*
X26377000Y-48413000D01*
X27736836Y-48413000D01*
X27855975Y-48157056D01*
X27729105Y-47850750D01*
X29190000Y-47850750D01*
X29190000Y-49041309D01*
X29286673Y-49274698D01*
X29465301Y-49453327D01*
X29698690Y-49550000D01*
X31139250Y-49550000D01*
X31298000Y-49391250D01*
X31298000Y-47692000D01*
X31552000Y-47692000D01*
X31552000Y-49391250D01*
X31710750Y-49550000D01*
X33151310Y-49550000D01*
X33384699Y-49453327D01*
X33563327Y-49274698D01*
X33660000Y-49041309D01*
X33660000Y-47850750D01*
X33501250Y-47692000D01*
X31552000Y-47692000D01*
X31298000Y-47692000D01*
X29348750Y-47692000D01*
X29190000Y-47850750D01*
X27729105Y-47850750D01*
X27662834Y-47690750D01*
X33975000Y-47690750D01*
X33975000Y-48281309D01*
X34071673Y-48514698D01*
X34250301Y-48693327D01*
X34483690Y-48790000D01*
X34949250Y-48790000D01*
X35108000Y-48631250D01*
X35108000Y-47532000D01*
X35362000Y-47532000D01*
X35362000Y-48631250D01*
X35520750Y-48790000D01*
X35986310Y-48790000D01*
X36219699Y-48693327D01*
X36398327Y-48514698D01*
X36495000Y-48281309D01*
X36495000Y-47690750D01*
X37785000Y-47690750D01*
X37785000Y-48281309D01*
X37881673Y-48514698D01*
X38060301Y-48693327D01*
X38293690Y-48790000D01*
X38759250Y-48790000D01*
X38918000Y-48631250D01*
X38918000Y-47532000D01*
X39172000Y-47532000D01*
X39172000Y-48631250D01*
X39330750Y-48790000D01*
X39796310Y-48790000D01*
X40029699Y-48693327D01*
X40208327Y-48514698D01*
X40305000Y-48281309D01*
X40305000Y-47690750D01*
X40146250Y-47532000D01*
X39172000Y-47532000D01*
X38918000Y-47532000D01*
X37943750Y-47532000D01*
X37785000Y-47690750D01*
X36495000Y-47690750D01*
X36336250Y-47532000D01*
X35362000Y-47532000D01*
X35108000Y-47532000D01*
X34133750Y-47532000D01*
X33975000Y-47690750D01*
X27662834Y-47690750D01*
X27656385Y-47675182D01*
X27565903Y-47577602D01*
X27717441Y-47480090D01*
X27862431Y-47267890D01*
X27913440Y-47016000D01*
X27913440Y-46088691D01*
X29190000Y-46088691D01*
X29190000Y-47279250D01*
X29348750Y-47438000D01*
X31298000Y-47438000D01*
X31298000Y-45738750D01*
X31552000Y-45738750D01*
X31552000Y-47438000D01*
X33501250Y-47438000D01*
X33660000Y-47279250D01*
X33660000Y-46088691D01*
X33563327Y-45855302D01*
X33384699Y-45676673D01*
X33151310Y-45580000D01*
X31710750Y-45580000D01*
X31552000Y-45738750D01*
X31298000Y-45738750D01*
X31139250Y-45580000D01*
X29698690Y-45580000D01*
X29465301Y-45676673D01*
X29286673Y-45855302D01*
X29190000Y-46088691D01*
X27913440Y-46088691D01*
X27913440Y-44984000D01*
X27869162Y-44748683D01*
X27730090Y-44532559D01*
X27517890Y-44387569D01*
X27266000Y-44336560D01*
X25234000Y-44336560D01*
X24998683Y-44380838D01*
X24782559Y-44519910D01*
X24710000Y-44626104D01*
X24710000Y-42156689D01*
X24755615Y-42266818D01*
X25193621Y-42739188D01*
X25779054Y-43007983D01*
X26035000Y-42889367D01*
X26035000Y-41529000D01*
X26289000Y-41529000D01*
X26289000Y-42889367D01*
X26544946Y-43007983D01*
X27130379Y-42739188D01*
X27568385Y-42266818D01*
X27767975Y-41784944D01*
X27648836Y-41529000D01*
X26289000Y-41529000D01*
X26035000Y-41529000D01*
X26015000Y-41529000D01*
X26015000Y-41275000D01*
X26035000Y-41275000D01*
X26035000Y-41255000D01*
X26289000Y-41255000D01*
X26289000Y-41275000D01*
X27648836Y-41275000D01*
X27767975Y-41019056D01*
X27568385Y-40537182D01*
X27477903Y-40439602D01*
X27629441Y-40342090D01*
X27704745Y-40231878D01*
X27940433Y-40467566D01*
X28172508Y-40622633D01*
X28308654Y-40713603D01*
X28743000Y-40800000D01*
X29177560Y-40800000D01*
X29177560Y-41015000D01*
X29221838Y-41250317D01*
X29360910Y-41466441D01*
X29573110Y-41611431D01*
X29825000Y-41662440D01*
X33025000Y-41662440D01*
X33260317Y-41618162D01*
X33476441Y-41479090D01*
X33621431Y-41266890D01*
X33672440Y-41015000D01*
X33672440Y-40550000D01*
X33951672Y-40550000D01*
X33981838Y-40710317D01*
X34120910Y-40926441D01*
X34333110Y-41071431D01*
X34346197Y-41074081D01*
X34133559Y-41210910D01*
X33988569Y-41423110D01*
X33937560Y-41675000D01*
X33937560Y-43175000D01*
X33981838Y-43410317D01*
X34120910Y-43626441D01*
X34187762Y-43672119D01*
X34158559Y-43690910D01*
X34013569Y-43903110D01*
X33962560Y-44155000D01*
X33962560Y-45655000D01*
X34006838Y-45890317D01*
X34145910Y-46106441D01*
X34214006Y-46152969D01*
X34071673Y-46295302D01*
X33975000Y-46528691D01*
X33975000Y-47119250D01*
X34133750Y-47278000D01*
X35108000Y-47278000D01*
X35108000Y-47258000D01*
X35362000Y-47258000D01*
X35362000Y-47278000D01*
X36336250Y-47278000D01*
X36495000Y-47119250D01*
X36495000Y-46528691D01*
X36398327Y-46295302D01*
X36257090Y-46154064D01*
X36311441Y-46119090D01*
X36456431Y-45906890D01*
X36507440Y-45655000D01*
X36507440Y-44155000D01*
X36463162Y-43919683D01*
X36324090Y-43703559D01*
X36281489Y-43674451D01*
X36336441Y-43639090D01*
X36481431Y-43426890D01*
X36505102Y-43310000D01*
X36678995Y-43310000D01*
X36679000Y-43310001D01*
X36961484Y-43253810D01*
X37017675Y-43242633D01*
X37304790Y-43050790D01*
X37747560Y-42608019D01*
X37747560Y-43175000D01*
X37791838Y-43410317D01*
X37930910Y-43626441D01*
X37997762Y-43672119D01*
X37968559Y-43690910D01*
X37823569Y-43903110D01*
X37772560Y-44155000D01*
X37772560Y-45655000D01*
X37816838Y-45890317D01*
X37955910Y-46106441D01*
X38024006Y-46152969D01*
X37881673Y-46295302D01*
X37785000Y-46528691D01*
X37785000Y-47119250D01*
X37943750Y-47278000D01*
X38918000Y-47278000D01*
X38918000Y-47258000D01*
X39172000Y-47258000D01*
X39172000Y-47278000D01*
X40146250Y-47278000D01*
X40305000Y-47119250D01*
X40305000Y-46671890D01*
X50709950Y-46671890D01*
X50709950Y-47412880D01*
X50806623Y-47646269D01*
X50985252Y-47824897D01*
X51218641Y-47921570D01*
X51459250Y-47921570D01*
X51618000Y-47762820D01*
X51618000Y-46513140D01*
X51872000Y-46513140D01*
X51872000Y-47762820D01*
X52030750Y-47921570D01*
X52271359Y-47921570D01*
X52504748Y-47824897D01*
X52683377Y-47646269D01*
X52780050Y-47412880D01*
X52780050Y-46671890D01*
X52621300Y-46513140D01*
X51872000Y-46513140D01*
X51618000Y-46513140D01*
X50868700Y-46513140D01*
X50709950Y-46671890D01*
X40305000Y-46671890D01*
X40305000Y-46528691D01*
X40208327Y-46295302D01*
X40067090Y-46154064D01*
X40121441Y-46119090D01*
X40266431Y-45906890D01*
X40317440Y-45655000D01*
X40317440Y-44155000D01*
X40273162Y-43919683D01*
X40134090Y-43703559D01*
X40091489Y-43674451D01*
X40146441Y-43639090D01*
X40291431Y-43426890D01*
X40313993Y-43315477D01*
X40331838Y-43410317D01*
X40470910Y-43626441D01*
X40683110Y-43771431D01*
X40935000Y-43822440D01*
X42235000Y-43822440D01*
X42470317Y-43778162D01*
X42686441Y-43639090D01*
X42831431Y-43426890D01*
X42855102Y-43310000D01*
X44013113Y-43310000D01*
X44100910Y-43446441D01*
X44313110Y-43591431D01*
X44565000Y-43642440D01*
X46065000Y-43642440D01*
X46300317Y-43598162D01*
X46516441Y-43459090D01*
X46661431Y-43246890D01*
X46664081Y-43233803D01*
X46800910Y-43446441D01*
X47013110Y-43591431D01*
X47265000Y-43642440D01*
X48765000Y-43642440D01*
X49000317Y-43598162D01*
X49216441Y-43459090D01*
X49361431Y-43246890D01*
X49364851Y-43230000D01*
X49389560Y-43230000D01*
X49747510Y-43587949D01*
X49747510Y-44284290D01*
X49791788Y-44519607D01*
X49930860Y-44735731D01*
X50143060Y-44880721D01*
X50394950Y-44931730D01*
X51023042Y-44931730D01*
X50985252Y-44947383D01*
X50806623Y-45126011D01*
X50709950Y-45359400D01*
X50709950Y-46100390D01*
X50868700Y-46259140D01*
X51618000Y-46259140D01*
X51618000Y-45009460D01*
X51470297Y-44861757D01*
X51646491Y-44748380D01*
X51745632Y-44603283D01*
X51830860Y-44735731D01*
X52017918Y-44863542D01*
X51872000Y-45009460D01*
X51872000Y-46259140D01*
X52621300Y-46259140D01*
X52780050Y-46100390D01*
X52780050Y-45359400D01*
X52683377Y-45126011D01*
X52504748Y-44947383D01*
X52466958Y-44931730D01*
X53095050Y-44931730D01*
X53330367Y-44887452D01*
X53546491Y-44748380D01*
X53691481Y-44536180D01*
X53742490Y-44284290D01*
X53742490Y-44268860D01*
X54078286Y-44268860D01*
X54121838Y-44500317D01*
X54260910Y-44716441D01*
X54473110Y-44861431D01*
X54584523Y-44883993D01*
X54489683Y-44901838D01*
X54273559Y-45040910D01*
X54128569Y-45253110D01*
X54077560Y-45505000D01*
X54077560Y-46805000D01*
X54121838Y-47040317D01*
X54260910Y-47256441D01*
X54473110Y-47401431D01*
X54725000Y-47452440D01*
X56225000Y-47452440D01*
X56460317Y-47408162D01*
X56676441Y-47269090D01*
X56821431Y-47056890D01*
X56824081Y-47043803D01*
X56960910Y-47256441D01*
X57173110Y-47401431D01*
X57425000Y-47452440D01*
X58925000Y-47452440D01*
X59160317Y-47408162D01*
X59376441Y-47269090D01*
X59521431Y-47056890D01*
X59524851Y-47040000D01*
X60587721Y-47040000D01*
X60710910Y-47231441D01*
X60923110Y-47376431D01*
X61175000Y-47427440D01*
X62675000Y-47427440D01*
X62910317Y-47383162D01*
X63126441Y-47244090D01*
X63172969Y-47175994D01*
X63315302Y-47318327D01*
X63548691Y-47415000D01*
X64139250Y-47415000D01*
X64298000Y-47256250D01*
X64298000Y-46282000D01*
X64552000Y-46282000D01*
X64552000Y-47256250D01*
X64710750Y-47415000D01*
X65301309Y-47415000D01*
X65534698Y-47318327D01*
X65713327Y-47139699D01*
X65810000Y-46906310D01*
X65810000Y-46440750D01*
X65651250Y-46282000D01*
X64552000Y-46282000D01*
X64298000Y-46282000D01*
X64278000Y-46282000D01*
X64278000Y-46028000D01*
X64298000Y-46028000D01*
X64298000Y-45053750D01*
X64552000Y-45053750D01*
X64552000Y-46028000D01*
X65651250Y-46028000D01*
X65810000Y-45869250D01*
X65810000Y-45403690D01*
X65713327Y-45170301D01*
X65534698Y-44991673D01*
X65301309Y-44895000D01*
X64710750Y-44895000D01*
X64552000Y-45053750D01*
X64298000Y-45053750D01*
X64139250Y-44895000D01*
X63548691Y-44895000D01*
X63315302Y-44991673D01*
X63174064Y-45132910D01*
X63139090Y-45078559D01*
X62926890Y-44933569D01*
X62810000Y-44909898D01*
X62810000Y-44285750D01*
X72490000Y-44285750D01*
X72490000Y-44876309D01*
X72586673Y-45109698D01*
X72765301Y-45288327D01*
X72998690Y-45385000D01*
X73464250Y-45385000D01*
X73623000Y-45226250D01*
X73623000Y-44127000D01*
X73877000Y-44127000D01*
X73877000Y-45226250D01*
X74035750Y-45385000D01*
X74501310Y-45385000D01*
X74734699Y-45288327D01*
X74913327Y-45109698D01*
X75010000Y-44876309D01*
X75010000Y-44285750D01*
X74851250Y-44127000D01*
X73877000Y-44127000D01*
X73623000Y-44127000D01*
X72648750Y-44127000D01*
X72490000Y-44285750D01*
X62810000Y-44285750D01*
X62810000Y-43707580D01*
X63378829Y-43138750D01*
X66128000Y-43138750D01*
X66128000Y-43604310D01*
X66224673Y-43837699D01*
X66403302Y-44016327D01*
X66636691Y-44113000D01*
X67227250Y-44113000D01*
X67386000Y-43954250D01*
X67386000Y-42980000D01*
X66286750Y-42980000D01*
X66128000Y-43138750D01*
X63378829Y-43138750D01*
X64415889Y-42101690D01*
X66128000Y-42101690D01*
X66128000Y-42567250D01*
X66286750Y-42726000D01*
X67386000Y-42726000D01*
X67386000Y-41751750D01*
X67227250Y-41593000D01*
X66636691Y-41593000D01*
X66403302Y-41689673D01*
X66224673Y-41868301D01*
X66128000Y-42101690D01*
X64415889Y-42101690D01*
X66462579Y-40055000D01*
X69353147Y-40055000D01*
X69441910Y-40192941D01*
X69654110Y-40337931D01*
X69906000Y-40388940D01*
X70414000Y-40388940D01*
X70649317Y-40344662D01*
X70790371Y-40253896D01*
X70816302Y-40279827D01*
X71049691Y-40376500D01*
X71144250Y-40376500D01*
X71303000Y-40217750D01*
X71303000Y-39297000D01*
X71283000Y-39297000D01*
X71283000Y-39043000D01*
X71303000Y-39043000D01*
X71303000Y-38122250D01*
X71144250Y-37963500D01*
X71049691Y-37963500D01*
X70816302Y-38060173D01*
X70789765Y-38086709D01*
X70665890Y-38002069D01*
X70414000Y-37951060D01*
X69906000Y-37951060D01*
X69670683Y-37995338D01*
X69454559Y-38134410D01*
X69351665Y-38285000D01*
X66096005Y-38285000D01*
X66096000Y-38284999D01*
X65813516Y-38341190D01*
X65757325Y-38352367D01*
X65470210Y-38544210D01*
X65470208Y-38544213D01*
X61299210Y-42715210D01*
X61107367Y-43002325D01*
X61107367Y-43002326D01*
X61039999Y-43341000D01*
X61040000Y-43341005D01*
X61040000Y-44907962D01*
X60939683Y-44926838D01*
X60723559Y-45065910D01*
X60584110Y-45270000D01*
X59528222Y-45270000D01*
X59528162Y-45269683D01*
X59389090Y-45053559D01*
X59176890Y-44908569D01*
X59065477Y-44886007D01*
X59160317Y-44868162D01*
X59376441Y-44729090D01*
X59521431Y-44516890D01*
X59572440Y-44265000D01*
X59572440Y-42965000D01*
X59528162Y-42729683D01*
X59389090Y-42513559D01*
X59176890Y-42368569D01*
X59060000Y-42344898D01*
X59060000Y-41268719D01*
X59130691Y-41298000D01*
X59271250Y-41298000D01*
X59430000Y-41139250D01*
X59430000Y-40440000D01*
X59684000Y-40440000D01*
X59684000Y-41139250D01*
X59842750Y-41298000D01*
X59983309Y-41298000D01*
X60216698Y-41201327D01*
X60395327Y-41022699D01*
X60492000Y-40789310D01*
X60492000Y-40598750D01*
X60333250Y-40440000D01*
X59684000Y-40440000D01*
X59430000Y-40440000D01*
X59410000Y-40440000D01*
X59410000Y-40186000D01*
X59430000Y-40186000D01*
X59430000Y-39486750D01*
X59684000Y-39486750D01*
X59684000Y-40186000D01*
X60333250Y-40186000D01*
X60492000Y-40027250D01*
X60492000Y-39836690D01*
X60395327Y-39603301D01*
X60216698Y-39424673D01*
X59983309Y-39328000D01*
X59842750Y-39328000D01*
X59684000Y-39486750D01*
X59430000Y-39486750D01*
X59271250Y-39328000D01*
X59130691Y-39328000D01*
X58897302Y-39424673D01*
X58855340Y-39466634D01*
X58708890Y-39366569D01*
X58457000Y-39315560D01*
X57857000Y-39315560D01*
X57621683Y-39359838D01*
X57515756Y-39428000D01*
X57408446Y-39428000D01*
X57380162Y-39277683D01*
X57241090Y-39061559D01*
X57028890Y-38916569D01*
X56777000Y-38865560D01*
X54777000Y-38865560D01*
X54541683Y-38909838D01*
X54325559Y-39048910D01*
X54180569Y-39261110D01*
X54129560Y-39513000D01*
X54129560Y-41113000D01*
X54173838Y-41348317D01*
X54312910Y-41564441D01*
X54525110Y-41709431D01*
X54777000Y-41760440D01*
X56777000Y-41760440D01*
X57012317Y-41716162D01*
X57228441Y-41577090D01*
X57290000Y-41486995D01*
X57290000Y-42342962D01*
X57189683Y-42361838D01*
X56973559Y-42500910D01*
X56828569Y-42713110D01*
X56825919Y-42726197D01*
X56689090Y-42513559D01*
X56476890Y-42368569D01*
X56225000Y-42317560D01*
X54725000Y-42317560D01*
X54489683Y-42361838D01*
X54276745Y-42498860D01*
X53742490Y-42498860D01*
X53742490Y-42483430D01*
X53698212Y-42248113D01*
X53559140Y-42031989D01*
X53346940Y-41886999D01*
X53095050Y-41835990D01*
X52294950Y-41835990D01*
X52059633Y-41880268D01*
X51843509Y-42019340D01*
X51744368Y-42164437D01*
X51659140Y-42031989D01*
X51446940Y-41886999D01*
X51195050Y-41835990D01*
X50498710Y-41835990D01*
X50381930Y-41719210D01*
X50337724Y-41689673D01*
X50094815Y-41527367D01*
X50002931Y-41509090D01*
X49756140Y-41459999D01*
X49756135Y-41460000D01*
X49368222Y-41460000D01*
X49368162Y-41459683D01*
X49229090Y-41243559D01*
X49016890Y-41098569D01*
X48905477Y-41076007D01*
X49000317Y-41058162D01*
X49216441Y-40919090D01*
X49259091Y-40856670D01*
X49341208Y-40938787D01*
X49341210Y-40938790D01*
X49628325Y-41130633D01*
X49967000Y-41198000D01*
X50145554Y-41198000D01*
X50173838Y-41348317D01*
X50312910Y-41564441D01*
X50525110Y-41709431D01*
X50777000Y-41760440D01*
X52777000Y-41760440D01*
X53012317Y-41716162D01*
X53228441Y-41577090D01*
X53373431Y-41364890D01*
X53424440Y-41113000D01*
X53424440Y-39513000D01*
X53380162Y-39277683D01*
X53336989Y-39210591D01*
X55413557Y-37134022D01*
X71208135Y-37134982D01*
X71208135Y-37134982D01*
G37*
X71208135Y-37134982D02*
X71815000Y-37584063D01*
X71815000Y-37965443D01*
X71810309Y-37963500D01*
X71715750Y-37963500D01*
X71557000Y-38122250D01*
X71557000Y-39043000D01*
X71577000Y-39043000D01*
X71577000Y-39297000D01*
X71557000Y-39297000D01*
X71557000Y-40105231D01*
X71177972Y-41637585D01*
X71129690Y-41710008D01*
X71014890Y-41631569D01*
X70763000Y-41580560D01*
X69263000Y-41580560D01*
X69027683Y-41624838D01*
X68811559Y-41763910D01*
X68765031Y-41832006D01*
X68622698Y-41689673D01*
X68389309Y-41593000D01*
X67798750Y-41593000D01*
X67640000Y-41751750D01*
X67640000Y-42726000D01*
X67660000Y-42726000D01*
X67660000Y-42980000D01*
X67640000Y-42980000D01*
X67640000Y-43954250D01*
X67798750Y-44113000D01*
X68389309Y-44113000D01*
X68622698Y-44016327D01*
X68763936Y-43875090D01*
X68798910Y-43929441D01*
X69011110Y-44074431D01*
X69263000Y-44125440D01*
X70763000Y-44125440D01*
X70998317Y-44081162D01*
X71214441Y-43942090D01*
X71359431Y-43729890D01*
X71376485Y-43645677D01*
X71561155Y-43632885D01*
X71616355Y-43617875D01*
X71673563Y-43617815D01*
X71781543Y-43572955D01*
X71894365Y-43542276D01*
X71939620Y-43507283D01*
X71992449Y-43485336D01*
X72075039Y-43402573D01*
X72167537Y-43331051D01*
X72195956Y-43281403D01*
X72236365Y-43240910D01*
X72629035Y-42651905D01*
X72660910Y-42701441D01*
X72729006Y-42747969D01*
X72586673Y-42890302D01*
X72490000Y-43123691D01*
X72490000Y-43714250D01*
X72648750Y-43873000D01*
X73623000Y-43873000D01*
X73623000Y-43853000D01*
X73877000Y-43853000D01*
X73877000Y-43873000D01*
X74851250Y-43873000D01*
X75010000Y-43714250D01*
X75010000Y-43123691D01*
X74913327Y-42890302D01*
X74772090Y-42749064D01*
X74826441Y-42714090D01*
X74971431Y-42501890D01*
X75022440Y-42250000D01*
X75022440Y-40750000D01*
X74978162Y-40514683D01*
X74839090Y-40298559D01*
X74818232Y-40284308D01*
X74829450Y-39948852D01*
X74871440Y-39741500D01*
X74871440Y-38598500D01*
X74831267Y-38385000D01*
X74917420Y-38385000D01*
X76887290Y-40354869D01*
X76815655Y-40715000D01*
X76929729Y-41288489D01*
X77254585Y-41774670D01*
X77569366Y-41985000D01*
X77254585Y-42195330D01*
X76929729Y-42681511D01*
X76815655Y-43255000D01*
X76929729Y-43828489D01*
X77254585Y-44314670D01*
X77569366Y-44525000D01*
X77254585Y-44735330D01*
X76929729Y-45221511D01*
X76815655Y-45795000D01*
X76929729Y-46368489D01*
X77254585Y-46854670D01*
X77740766Y-47179526D01*
X78314255Y-47293600D01*
X78683745Y-47293600D01*
X79257234Y-47179526D01*
X79743415Y-46854670D01*
X79842533Y-46706329D01*
X79935910Y-46851441D01*
X80148110Y-46996431D01*
X80400000Y-47047440D01*
X81900000Y-47047440D01*
X82135317Y-47003162D01*
X82351441Y-46864090D01*
X82496431Y-46651890D01*
X82499081Y-46638803D01*
X82635910Y-46851441D01*
X82848110Y-46996431D01*
X83100000Y-47047440D01*
X84600000Y-47047440D01*
X84790000Y-47011689D01*
X84790000Y-50040000D01*
X26863776Y-50040000D01*
X27218379Y-49877188D01*
X27656385Y-49404818D01*
X27855975Y-48922944D01*
X27736836Y-48667000D01*
X26377000Y-48667000D01*
X26377000Y-48687000D01*
X26123000Y-48687000D01*
X26123000Y-48667000D01*
X26103000Y-48667000D01*
X26103000Y-48413000D01*
X26123000Y-48413000D01*
X26123000Y-48393000D01*
X26377000Y-48393000D01*
X26377000Y-48413000D01*
X27736836Y-48413000D01*
X27855975Y-48157056D01*
X27729105Y-47850750D01*
X29190000Y-47850750D01*
X29190000Y-49041309D01*
X29286673Y-49274698D01*
X29465301Y-49453327D01*
X29698690Y-49550000D01*
X31139250Y-49550000D01*
X31298000Y-49391250D01*
X31298000Y-47692000D01*
X31552000Y-47692000D01*
X31552000Y-49391250D01*
X31710750Y-49550000D01*
X33151310Y-49550000D01*
X33384699Y-49453327D01*
X33563327Y-49274698D01*
X33660000Y-49041309D01*
X33660000Y-47850750D01*
X33501250Y-47692000D01*
X31552000Y-47692000D01*
X31298000Y-47692000D01*
X29348750Y-47692000D01*
X29190000Y-47850750D01*
X27729105Y-47850750D01*
X27662834Y-47690750D01*
X33975000Y-47690750D01*
X33975000Y-48281309D01*
X34071673Y-48514698D01*
X34250301Y-48693327D01*
X34483690Y-48790000D01*
X34949250Y-48790000D01*
X35108000Y-48631250D01*
X35108000Y-47532000D01*
X35362000Y-47532000D01*
X35362000Y-48631250D01*
X35520750Y-48790000D01*
X35986310Y-48790000D01*
X36219699Y-48693327D01*
X36398327Y-48514698D01*
X36495000Y-48281309D01*
X36495000Y-47690750D01*
X37785000Y-47690750D01*
X37785000Y-48281309D01*
X37881673Y-48514698D01*
X38060301Y-48693327D01*
X38293690Y-48790000D01*
X38759250Y-48790000D01*
X38918000Y-48631250D01*
X38918000Y-47532000D01*
X39172000Y-47532000D01*
X39172000Y-48631250D01*
X39330750Y-48790000D01*
X39796310Y-48790000D01*
X40029699Y-48693327D01*
X40208327Y-48514698D01*
X40305000Y-48281309D01*
X40305000Y-47690750D01*
X40146250Y-47532000D01*
X39172000Y-47532000D01*
X38918000Y-47532000D01*
X37943750Y-47532000D01*
X37785000Y-47690750D01*
X36495000Y-47690750D01*
X36336250Y-47532000D01*
X35362000Y-47532000D01*
X35108000Y-47532000D01*
X34133750Y-47532000D01*
X33975000Y-47690750D01*
X27662834Y-47690750D01*
X27656385Y-47675182D01*
X27565903Y-47577602D01*
X27717441Y-47480090D01*
X27862431Y-47267890D01*
X27913440Y-47016000D01*
X27913440Y-46088691D01*
X29190000Y-46088691D01*
X29190000Y-47279250D01*
X29348750Y-47438000D01*
X31298000Y-47438000D01*
X31298000Y-45738750D01*
X31552000Y-45738750D01*
X31552000Y-47438000D01*
X33501250Y-47438000D01*
X33660000Y-47279250D01*
X33660000Y-46088691D01*
X33563327Y-45855302D01*
X33384699Y-45676673D01*
X33151310Y-45580000D01*
X31710750Y-45580000D01*
X31552000Y-45738750D01*
X31298000Y-45738750D01*
X31139250Y-45580000D01*
X29698690Y-45580000D01*
X29465301Y-45676673D01*
X29286673Y-45855302D01*
X29190000Y-46088691D01*
X27913440Y-46088691D01*
X27913440Y-44984000D01*
X27869162Y-44748683D01*
X27730090Y-44532559D01*
X27517890Y-44387569D01*
X27266000Y-44336560D01*
X25234000Y-44336560D01*
X24998683Y-44380838D01*
X24782559Y-44519910D01*
X24710000Y-44626104D01*
X24710000Y-42156689D01*
X24755615Y-42266818D01*
X25193621Y-42739188D01*
X25779054Y-43007983D01*
X26035000Y-42889367D01*
X26035000Y-41529000D01*
X26289000Y-41529000D01*
X26289000Y-42889367D01*
X26544946Y-43007983D01*
X27130379Y-42739188D01*
X27568385Y-42266818D01*
X27767975Y-41784944D01*
X27648836Y-41529000D01*
X26289000Y-41529000D01*
X26035000Y-41529000D01*
X26015000Y-41529000D01*
X26015000Y-41275000D01*
X26035000Y-41275000D01*
X26035000Y-41255000D01*
X26289000Y-41255000D01*
X26289000Y-41275000D01*
X27648836Y-41275000D01*
X27767975Y-41019056D01*
X27568385Y-40537182D01*
X27477903Y-40439602D01*
X27629441Y-40342090D01*
X27704745Y-40231878D01*
X27940433Y-40467566D01*
X28172508Y-40622633D01*
X28308654Y-40713603D01*
X28743000Y-40800000D01*
X29177560Y-40800000D01*
X29177560Y-41015000D01*
X29221838Y-41250317D01*
X29360910Y-41466441D01*
X29573110Y-41611431D01*
X29825000Y-41662440D01*
X33025000Y-41662440D01*
X33260317Y-41618162D01*
X33476441Y-41479090D01*
X33621431Y-41266890D01*
X33672440Y-41015000D01*
X33672440Y-40550000D01*
X33951672Y-40550000D01*
X33981838Y-40710317D01*
X34120910Y-40926441D01*
X34333110Y-41071431D01*
X34346197Y-41074081D01*
X34133559Y-41210910D01*
X33988569Y-41423110D01*
X33937560Y-41675000D01*
X33937560Y-43175000D01*
X33981838Y-43410317D01*
X34120910Y-43626441D01*
X34187762Y-43672119D01*
X34158559Y-43690910D01*
X34013569Y-43903110D01*
X33962560Y-44155000D01*
X33962560Y-45655000D01*
X34006838Y-45890317D01*
X34145910Y-46106441D01*
X34214006Y-46152969D01*
X34071673Y-46295302D01*
X33975000Y-46528691D01*
X33975000Y-47119250D01*
X34133750Y-47278000D01*
X35108000Y-47278000D01*
X35108000Y-47258000D01*
X35362000Y-47258000D01*
X35362000Y-47278000D01*
X36336250Y-47278000D01*
X36495000Y-47119250D01*
X36495000Y-46528691D01*
X36398327Y-46295302D01*
X36257090Y-46154064D01*
X36311441Y-46119090D01*
X36456431Y-45906890D01*
X36507440Y-45655000D01*
X36507440Y-44155000D01*
X36463162Y-43919683D01*
X36324090Y-43703559D01*
X36281489Y-43674451D01*
X36336441Y-43639090D01*
X36481431Y-43426890D01*
X36505102Y-43310000D01*
X36678995Y-43310000D01*
X36679000Y-43310001D01*
X36961484Y-43253810D01*
X37017675Y-43242633D01*
X37304790Y-43050790D01*
X37747560Y-42608019D01*
X37747560Y-43175000D01*
X37791838Y-43410317D01*
X37930910Y-43626441D01*
X37997762Y-43672119D01*
X37968559Y-43690910D01*
X37823569Y-43903110D01*
X37772560Y-44155000D01*
X37772560Y-45655000D01*
X37816838Y-45890317D01*
X37955910Y-46106441D01*
X38024006Y-46152969D01*
X37881673Y-46295302D01*
X37785000Y-46528691D01*
X37785000Y-47119250D01*
X37943750Y-47278000D01*
X38918000Y-47278000D01*
X38918000Y-47258000D01*
X39172000Y-47258000D01*
X39172000Y-47278000D01*
X40146250Y-47278000D01*
X40305000Y-47119250D01*
X40305000Y-46671890D01*
X50709950Y-46671890D01*
X50709950Y-47412880D01*
X50806623Y-47646269D01*
X50985252Y-47824897D01*
X51218641Y-47921570D01*
X51459250Y-47921570D01*
X51618000Y-47762820D01*
X51618000Y-46513140D01*
X51872000Y-46513140D01*
X51872000Y-47762820D01*
X52030750Y-47921570D01*
X52271359Y-47921570D01*
X52504748Y-47824897D01*
X52683377Y-47646269D01*
X52780050Y-47412880D01*
X52780050Y-46671890D01*
X52621300Y-46513140D01*
X51872000Y-46513140D01*
X51618000Y-46513140D01*
X50868700Y-46513140D01*
X50709950Y-46671890D01*
X40305000Y-46671890D01*
X40305000Y-46528691D01*
X40208327Y-46295302D01*
X40067090Y-46154064D01*
X40121441Y-46119090D01*
X40266431Y-45906890D01*
X40317440Y-45655000D01*
X40317440Y-44155000D01*
X40273162Y-43919683D01*
X40134090Y-43703559D01*
X40091489Y-43674451D01*
X40146441Y-43639090D01*
X40291431Y-43426890D01*
X40313993Y-43315477D01*
X40331838Y-43410317D01*
X40470910Y-43626441D01*
X40683110Y-43771431D01*
X40935000Y-43822440D01*
X42235000Y-43822440D01*
X42470317Y-43778162D01*
X42686441Y-43639090D01*
X42831431Y-43426890D01*
X42855102Y-43310000D01*
X44013113Y-43310000D01*
X44100910Y-43446441D01*
X44313110Y-43591431D01*
X44565000Y-43642440D01*
X46065000Y-43642440D01*
X46300317Y-43598162D01*
X46516441Y-43459090D01*
X46661431Y-43246890D01*
X46664081Y-43233803D01*
X46800910Y-43446441D01*
X47013110Y-43591431D01*
X47265000Y-43642440D01*
X48765000Y-43642440D01*
X49000317Y-43598162D01*
X49216441Y-43459090D01*
X49361431Y-43246890D01*
X49364851Y-43230000D01*
X49389560Y-43230000D01*
X49747510Y-43587949D01*
X49747510Y-44284290D01*
X49791788Y-44519607D01*
X49930860Y-44735731D01*
X50143060Y-44880721D01*
X50394950Y-44931730D01*
X51023042Y-44931730D01*
X50985252Y-44947383D01*
X50806623Y-45126011D01*
X50709950Y-45359400D01*
X50709950Y-46100390D01*
X50868700Y-46259140D01*
X51618000Y-46259140D01*
X51618000Y-45009460D01*
X51470297Y-44861757D01*
X51646491Y-44748380D01*
X51745632Y-44603283D01*
X51830860Y-44735731D01*
X52017918Y-44863542D01*
X51872000Y-45009460D01*
X51872000Y-46259140D01*
X52621300Y-46259140D01*
X52780050Y-46100390D01*
X52780050Y-45359400D01*
X52683377Y-45126011D01*
X52504748Y-44947383D01*
X52466958Y-44931730D01*
X53095050Y-44931730D01*
X53330367Y-44887452D01*
X53546491Y-44748380D01*
X53691481Y-44536180D01*
X53742490Y-44284290D01*
X53742490Y-44268860D01*
X54078286Y-44268860D01*
X54121838Y-44500317D01*
X54260910Y-44716441D01*
X54473110Y-44861431D01*
X54584523Y-44883993D01*
X54489683Y-44901838D01*
X54273559Y-45040910D01*
X54128569Y-45253110D01*
X54077560Y-45505000D01*
X54077560Y-46805000D01*
X54121838Y-47040317D01*
X54260910Y-47256441D01*
X54473110Y-47401431D01*
X54725000Y-47452440D01*
X56225000Y-47452440D01*
X56460317Y-47408162D01*
X56676441Y-47269090D01*
X56821431Y-47056890D01*
X56824081Y-47043803D01*
X56960910Y-47256441D01*
X57173110Y-47401431D01*
X57425000Y-47452440D01*
X58925000Y-47452440D01*
X59160317Y-47408162D01*
X59376441Y-47269090D01*
X59521431Y-47056890D01*
X59524851Y-47040000D01*
X60587721Y-47040000D01*
X60710910Y-47231441D01*
X60923110Y-47376431D01*
X61175000Y-47427440D01*
X62675000Y-47427440D01*
X62910317Y-47383162D01*
X63126441Y-47244090D01*
X63172969Y-47175994D01*
X63315302Y-47318327D01*
X63548691Y-47415000D01*
X64139250Y-47415000D01*
X64298000Y-47256250D01*
X64298000Y-46282000D01*
X64552000Y-46282000D01*
X64552000Y-47256250D01*
X64710750Y-47415000D01*
X65301309Y-47415000D01*
X65534698Y-47318327D01*
X65713327Y-47139699D01*
X65810000Y-46906310D01*
X65810000Y-46440750D01*
X65651250Y-46282000D01*
X64552000Y-46282000D01*
X64298000Y-46282000D01*
X64278000Y-46282000D01*
X64278000Y-46028000D01*
X64298000Y-46028000D01*
X64298000Y-45053750D01*
X64552000Y-45053750D01*
X64552000Y-46028000D01*
X65651250Y-46028000D01*
X65810000Y-45869250D01*
X65810000Y-45403690D01*
X65713327Y-45170301D01*
X65534698Y-44991673D01*
X65301309Y-44895000D01*
X64710750Y-44895000D01*
X64552000Y-45053750D01*
X64298000Y-45053750D01*
X64139250Y-44895000D01*
X63548691Y-44895000D01*
X63315302Y-44991673D01*
X63174064Y-45132910D01*
X63139090Y-45078559D01*
X62926890Y-44933569D01*
X62810000Y-44909898D01*
X62810000Y-44285750D01*
X72490000Y-44285750D01*
X72490000Y-44876309D01*
X72586673Y-45109698D01*
X72765301Y-45288327D01*
X72998690Y-45385000D01*
X73464250Y-45385000D01*
X73623000Y-45226250D01*
X73623000Y-44127000D01*
X73877000Y-44127000D01*
X73877000Y-45226250D01*
X74035750Y-45385000D01*
X74501310Y-45385000D01*
X74734699Y-45288327D01*
X74913327Y-45109698D01*
X75010000Y-44876309D01*
X75010000Y-44285750D01*
X74851250Y-44127000D01*
X73877000Y-44127000D01*
X73623000Y-44127000D01*
X72648750Y-44127000D01*
X72490000Y-44285750D01*
X62810000Y-44285750D01*
X62810000Y-43707580D01*
X63378829Y-43138750D01*
X66128000Y-43138750D01*
X66128000Y-43604310D01*
X66224673Y-43837699D01*
X66403302Y-44016327D01*
X66636691Y-44113000D01*
X67227250Y-44113000D01*
X67386000Y-43954250D01*
X67386000Y-42980000D01*
X66286750Y-42980000D01*
X66128000Y-43138750D01*
X63378829Y-43138750D01*
X64415889Y-42101690D01*
X66128000Y-42101690D01*
X66128000Y-42567250D01*
X66286750Y-42726000D01*
X67386000Y-42726000D01*
X67386000Y-41751750D01*
X67227250Y-41593000D01*
X66636691Y-41593000D01*
X66403302Y-41689673D01*
X66224673Y-41868301D01*
X66128000Y-42101690D01*
X64415889Y-42101690D01*
X66462579Y-40055000D01*
X69353147Y-40055000D01*
X69441910Y-40192941D01*
X69654110Y-40337931D01*
X69906000Y-40388940D01*
X70414000Y-40388940D01*
X70649317Y-40344662D01*
X70790371Y-40253896D01*
X70816302Y-40279827D01*
X71049691Y-40376500D01*
X71144250Y-40376500D01*
X71303000Y-40217750D01*
X71303000Y-39297000D01*
X71283000Y-39297000D01*
X71283000Y-39043000D01*
X71303000Y-39043000D01*
X71303000Y-38122250D01*
X71144250Y-37963500D01*
X71049691Y-37963500D01*
X70816302Y-38060173D01*
X70789765Y-38086709D01*
X70665890Y-38002069D01*
X70414000Y-37951060D01*
X69906000Y-37951060D01*
X69670683Y-37995338D01*
X69454559Y-38134410D01*
X69351665Y-38285000D01*
X66096005Y-38285000D01*
X66096000Y-38284999D01*
X65813516Y-38341190D01*
X65757325Y-38352367D01*
X65470210Y-38544210D01*
X65470208Y-38544213D01*
X61299210Y-42715210D01*
X61107367Y-43002325D01*
X61107367Y-43002326D01*
X61039999Y-43341000D01*
X61040000Y-43341005D01*
X61040000Y-44907962D01*
X60939683Y-44926838D01*
X60723559Y-45065910D01*
X60584110Y-45270000D01*
X59528222Y-45270000D01*
X59528162Y-45269683D01*
X59389090Y-45053559D01*
X59176890Y-44908569D01*
X59065477Y-44886007D01*
X59160317Y-44868162D01*
X59376441Y-44729090D01*
X59521431Y-44516890D01*
X59572440Y-44265000D01*
X59572440Y-42965000D01*
X59528162Y-42729683D01*
X59389090Y-42513559D01*
X59176890Y-42368569D01*
X59060000Y-42344898D01*
X59060000Y-41268719D01*
X59130691Y-41298000D01*
X59271250Y-41298000D01*
X59430000Y-41139250D01*
X59430000Y-40440000D01*
X59684000Y-40440000D01*
X59684000Y-41139250D01*
X59842750Y-41298000D01*
X59983309Y-41298000D01*
X60216698Y-41201327D01*
X60395327Y-41022699D01*
X60492000Y-40789310D01*
X60492000Y-40598750D01*
X60333250Y-40440000D01*
X59684000Y-40440000D01*
X59430000Y-40440000D01*
X59410000Y-40440000D01*
X59410000Y-40186000D01*
X59430000Y-40186000D01*
X59430000Y-39486750D01*
X59684000Y-39486750D01*
X59684000Y-40186000D01*
X60333250Y-40186000D01*
X60492000Y-40027250D01*
X60492000Y-39836690D01*
X60395327Y-39603301D01*
X60216698Y-39424673D01*
X59983309Y-39328000D01*
X59842750Y-39328000D01*
X59684000Y-39486750D01*
X59430000Y-39486750D01*
X59271250Y-39328000D01*
X59130691Y-39328000D01*
X58897302Y-39424673D01*
X58855340Y-39466634D01*
X58708890Y-39366569D01*
X58457000Y-39315560D01*
X57857000Y-39315560D01*
X57621683Y-39359838D01*
X57515756Y-39428000D01*
X57408446Y-39428000D01*
X57380162Y-39277683D01*
X57241090Y-39061559D01*
X57028890Y-38916569D01*
X56777000Y-38865560D01*
X54777000Y-38865560D01*
X54541683Y-38909838D01*
X54325559Y-39048910D01*
X54180569Y-39261110D01*
X54129560Y-39513000D01*
X54129560Y-41113000D01*
X54173838Y-41348317D01*
X54312910Y-41564441D01*
X54525110Y-41709431D01*
X54777000Y-41760440D01*
X56777000Y-41760440D01*
X57012317Y-41716162D01*
X57228441Y-41577090D01*
X57290000Y-41486995D01*
X57290000Y-42342962D01*
X57189683Y-42361838D01*
X56973559Y-42500910D01*
X56828569Y-42713110D01*
X56825919Y-42726197D01*
X56689090Y-42513559D01*
X56476890Y-42368569D01*
X56225000Y-42317560D01*
X54725000Y-42317560D01*
X54489683Y-42361838D01*
X54276745Y-42498860D01*
X53742490Y-42498860D01*
X53742490Y-42483430D01*
X53698212Y-42248113D01*
X53559140Y-42031989D01*
X53346940Y-41886999D01*
X53095050Y-41835990D01*
X52294950Y-41835990D01*
X52059633Y-41880268D01*
X51843509Y-42019340D01*
X51744368Y-42164437D01*
X51659140Y-42031989D01*
X51446940Y-41886999D01*
X51195050Y-41835990D01*
X50498710Y-41835990D01*
X50381930Y-41719210D01*
X50337724Y-41689673D01*
X50094815Y-41527367D01*
X50002931Y-41509090D01*
X49756140Y-41459999D01*
X49756135Y-41460000D01*
X49368222Y-41460000D01*
X49368162Y-41459683D01*
X49229090Y-41243559D01*
X49016890Y-41098569D01*
X48905477Y-41076007D01*
X49000317Y-41058162D01*
X49216441Y-40919090D01*
X49259091Y-40856670D01*
X49341208Y-40938787D01*
X49341210Y-40938790D01*
X49628325Y-41130633D01*
X49967000Y-41198000D01*
X50145554Y-41198000D01*
X50173838Y-41348317D01*
X50312910Y-41564441D01*
X50525110Y-41709431D01*
X50777000Y-41760440D01*
X52777000Y-41760440D01*
X53012317Y-41716162D01*
X53228441Y-41577090D01*
X53373431Y-41364890D01*
X53424440Y-41113000D01*
X53424440Y-39513000D01*
X53380162Y-39277683D01*
X53336989Y-39210591D01*
X55413557Y-37134022D01*
X71208135Y-37134982D01*
G36*
X72833657Y-26077236D02*
X72829031Y-26084006D01*
X72686698Y-25941673D01*
X72453309Y-25845000D01*
X71862750Y-25845000D01*
X71704000Y-26003750D01*
X71704000Y-26978000D01*
X71724000Y-26978000D01*
X71724000Y-27232000D01*
X71704000Y-27232000D01*
X71704000Y-28206250D01*
X71862750Y-28365000D01*
X72453309Y-28365000D01*
X72686698Y-28268327D01*
X72827936Y-28127090D01*
X72862910Y-28181441D01*
X73075110Y-28326431D01*
X73085000Y-28328434D01*
X73085000Y-31615443D01*
X73080309Y-31613500D01*
X72985750Y-31613500D01*
X72827000Y-31772250D01*
X72827000Y-32693000D01*
X72847000Y-32693000D01*
X72847000Y-32947000D01*
X72827000Y-32947000D01*
X72827000Y-33867750D01*
X72985750Y-34026500D01*
X73080309Y-34026500D01*
X73158635Y-33994056D01*
X73307975Y-34217560D01*
X73344210Y-34271790D01*
X76887290Y-37814869D01*
X76881177Y-37845598D01*
X75909790Y-36874210D01*
X75784469Y-36790474D01*
X75622675Y-36682367D01*
X75566484Y-36671190D01*
X75284000Y-36614999D01*
X75283995Y-36615000D01*
X73397558Y-36615000D01*
X73385884Y-36602147D01*
X73325790Y-36512210D01*
X73270855Y-36475504D01*
X73226436Y-36426600D01*
X72026436Y-35538600D01*
X71928634Y-35492471D01*
X71838725Y-35432388D01*
X71773901Y-35419490D01*
X71714122Y-35391294D01*
X71606110Y-35386103D01*
X71500054Y-35365000D01*
X55047054Y-35364000D01*
X55047027Y-35364005D01*
X55047000Y-35364000D01*
X54880146Y-35397189D01*
X54708375Y-35431346D01*
X54708351Y-35431362D01*
X54708325Y-35431367D01*
X54571435Y-35522834D01*
X54421248Y-35623172D01*
X54421232Y-35623197D01*
X54421210Y-35623211D01*
X51178860Y-38865560D01*
X50777000Y-38865560D01*
X50541683Y-38909838D01*
X50325559Y-39048910D01*
X50180569Y-39261110D01*
X50178232Y-39272652D01*
X50084790Y-39179210D01*
X49965062Y-39099211D01*
X49797675Y-38987367D01*
X49735502Y-38975000D01*
X49459000Y-38919999D01*
X49458995Y-38920000D01*
X49368222Y-38920000D01*
X49368162Y-38919683D01*
X49229090Y-38703559D01*
X49016890Y-38558569D01*
X48765000Y-38507560D01*
X47265000Y-38507560D01*
X47029683Y-38551838D01*
X46813559Y-38690910D01*
X46668569Y-38903110D01*
X46665919Y-38916197D01*
X46529090Y-38703559D01*
X46316890Y-38558569D01*
X46065000Y-38507560D01*
X44565000Y-38507560D01*
X44329683Y-38551838D01*
X44113559Y-38690910D01*
X44011690Y-38840000D01*
X42857038Y-38840000D01*
X42838162Y-38739683D01*
X42699090Y-38523559D01*
X42486890Y-38378569D01*
X42235000Y-38327560D01*
X40935000Y-38327560D01*
X40699683Y-38371838D01*
X40483559Y-38510910D01*
X40338569Y-38723110D01*
X40316007Y-38834523D01*
X40298162Y-38739683D01*
X40159090Y-38523559D01*
X39946890Y-38378569D01*
X39695000Y-38327560D01*
X38395000Y-38327560D01*
X38159683Y-38371838D01*
X37943559Y-38510910D01*
X37798569Y-38723110D01*
X37769857Y-38864892D01*
X37577726Y-38903110D01*
X37556325Y-38907367D01*
X37269210Y-39099210D01*
X37269208Y-39099213D01*
X36641210Y-39727210D01*
X36532440Y-39889997D01*
X36532440Y-38975000D01*
X36488162Y-38739683D01*
X36349090Y-38523559D01*
X36136890Y-38378569D01*
X35885000Y-38327560D01*
X34585000Y-38327560D01*
X34349683Y-38371838D01*
X34133559Y-38510910D01*
X33988569Y-38723110D01*
X33977048Y-38780000D01*
X33672440Y-38780000D01*
X33672440Y-38315000D01*
X33628162Y-38079683D01*
X33489090Y-37863559D01*
X33276890Y-37718569D01*
X33025000Y-37667560D01*
X29825000Y-37667560D01*
X29589683Y-37711838D01*
X29373559Y-37850910D01*
X29228569Y-38063110D01*
X29177560Y-38315000D01*
X29177560Y-38494427D01*
X28742566Y-38059434D01*
X28648687Y-37996706D01*
X28374346Y-37813397D01*
X27940000Y-37727000D01*
X27803049Y-37727000D01*
X27781162Y-37610683D01*
X27642090Y-37394559D01*
X27429890Y-37249569D01*
X27178000Y-37198560D01*
X25146000Y-37198560D01*
X24910683Y-37242838D01*
X24710000Y-37371974D01*
X24710000Y-34832229D01*
X24843615Y-35154818D01*
X25281621Y-35627188D01*
X25867054Y-35895983D01*
X26123000Y-35777367D01*
X26123000Y-34417000D01*
X26377000Y-34417000D01*
X26377000Y-35777367D01*
X26632946Y-35895983D01*
X27218379Y-35627188D01*
X27656385Y-35154818D01*
X27855975Y-34672944D01*
X27736836Y-34417000D01*
X26377000Y-34417000D01*
X26123000Y-34417000D01*
X26103000Y-34417000D01*
X26103000Y-34163000D01*
X26123000Y-34163000D01*
X26123000Y-34143000D01*
X26377000Y-34143000D01*
X26377000Y-34163000D01*
X27736836Y-34163000D01*
X27855975Y-33907056D01*
X27845080Y-33880750D01*
X29190000Y-33880750D01*
X29190000Y-35071309D01*
X29286673Y-35304698D01*
X29465301Y-35483327D01*
X29698690Y-35580000D01*
X31139250Y-35580000D01*
X31298000Y-35421250D01*
X31298000Y-33722000D01*
X31552000Y-33722000D01*
X31552000Y-35421250D01*
X31710750Y-35580000D01*
X33151310Y-35580000D01*
X33384699Y-35483327D01*
X33563327Y-35304698D01*
X33660000Y-35071309D01*
X33660000Y-33880750D01*
X33501250Y-33722000D01*
X31552000Y-33722000D01*
X31298000Y-33722000D01*
X29348750Y-33722000D01*
X29190000Y-33880750D01*
X27845080Y-33880750D01*
X27778809Y-33720750D01*
X33975000Y-33720750D01*
X33975000Y-34311309D01*
X34071673Y-34544698D01*
X34250301Y-34723327D01*
X34483690Y-34820000D01*
X34949250Y-34820000D01*
X35108000Y-34661250D01*
X35108000Y-33562000D01*
X35362000Y-33562000D01*
X35362000Y-34661250D01*
X35520750Y-34820000D01*
X35986310Y-34820000D01*
X36219699Y-34723327D01*
X36398327Y-34544698D01*
X36495000Y-34311309D01*
X36495000Y-33720750D01*
X37785000Y-33720750D01*
X37785000Y-34311309D01*
X37881673Y-34544698D01*
X38060301Y-34723327D01*
X38293690Y-34820000D01*
X38759250Y-34820000D01*
X38918000Y-34661250D01*
X38918000Y-33562000D01*
X39172000Y-33562000D01*
X39172000Y-34661250D01*
X39330750Y-34820000D01*
X39796310Y-34820000D01*
X40029699Y-34723327D01*
X40208327Y-34544698D01*
X40305000Y-34311309D01*
X40305000Y-33720750D01*
X40146250Y-33562000D01*
X39172000Y-33562000D01*
X38918000Y-33562000D01*
X37943750Y-33562000D01*
X37785000Y-33720750D01*
X36495000Y-33720750D01*
X36336250Y-33562000D01*
X35362000Y-33562000D01*
X35108000Y-33562000D01*
X34133750Y-33562000D01*
X33975000Y-33720750D01*
X27778809Y-33720750D01*
X27656385Y-33425182D01*
X27565903Y-33327602D01*
X27717441Y-33230090D01*
X27862431Y-33017890D01*
X27913440Y-32766000D01*
X27913440Y-32118691D01*
X29190000Y-32118691D01*
X29190000Y-33309250D01*
X29348750Y-33468000D01*
X31298000Y-33468000D01*
X31298000Y-31768750D01*
X31552000Y-31768750D01*
X31552000Y-33468000D01*
X33501250Y-33468000D01*
X33660000Y-33309250D01*
X33660000Y-32118691D01*
X33563327Y-31885302D01*
X33384699Y-31706673D01*
X33151310Y-31610000D01*
X31710750Y-31610000D01*
X31552000Y-31768750D01*
X31298000Y-31768750D01*
X31139250Y-31610000D01*
X29698690Y-31610000D01*
X29465301Y-31706673D01*
X29286673Y-31885302D01*
X29190000Y-32118691D01*
X27913440Y-32118691D01*
X27913440Y-30734000D01*
X27869162Y-30498683D01*
X27730090Y-30282559D01*
X27517890Y-30137569D01*
X27266000Y-30086560D01*
X25234000Y-30086560D01*
X24998683Y-30130838D01*
X24782559Y-30269910D01*
X24710000Y-30376104D01*
X24710000Y-27932689D01*
X24755615Y-28042818D01*
X25193621Y-28515188D01*
X25779054Y-28783983D01*
X26035000Y-28665367D01*
X26035000Y-27305000D01*
X26289000Y-27305000D01*
X26289000Y-28665367D01*
X26544946Y-28783983D01*
X27130379Y-28515188D01*
X27568385Y-28042818D01*
X27767975Y-27560944D01*
X27648836Y-27305000D01*
X26289000Y-27305000D01*
X26035000Y-27305000D01*
X26015000Y-27305000D01*
X26015000Y-27051000D01*
X26035000Y-27051000D01*
X26035000Y-27031000D01*
X26289000Y-27031000D01*
X26289000Y-27051000D01*
X27648836Y-27051000D01*
X27767975Y-26795056D01*
X27568385Y-26313182D01*
X27477903Y-26215602D01*
X27629441Y-26118090D01*
X27704746Y-26007878D01*
X28194434Y-26497566D01*
X28562654Y-26743603D01*
X28997000Y-26830000D01*
X29177560Y-26830000D01*
X29177560Y-27045000D01*
X29221838Y-27280317D01*
X29360910Y-27496441D01*
X29573110Y-27641431D01*
X29825000Y-27692440D01*
X33025000Y-27692440D01*
X33260317Y-27648162D01*
X33476441Y-27509090D01*
X33621431Y-27296890D01*
X33672440Y-27045000D01*
X33672440Y-26580000D01*
X33951672Y-26580000D01*
X33981838Y-26740317D01*
X34120910Y-26956441D01*
X34333110Y-27101431D01*
X34346197Y-27104081D01*
X34133559Y-27240910D01*
X33988569Y-27453110D01*
X33937560Y-27705000D01*
X33937560Y-29205000D01*
X33981838Y-29440317D01*
X34120910Y-29656441D01*
X34187762Y-29702119D01*
X34158559Y-29720910D01*
X34013569Y-29933110D01*
X33962560Y-30185000D01*
X33962560Y-31685000D01*
X34006838Y-31920317D01*
X34145910Y-32136441D01*
X34214006Y-32182969D01*
X34071673Y-32325302D01*
X33975000Y-32558691D01*
X33975000Y-33149250D01*
X34133750Y-33308000D01*
X35108000Y-33308000D01*
X35108000Y-33288000D01*
X35362000Y-33288000D01*
X35362000Y-33308000D01*
X36336250Y-33308000D01*
X36495000Y-33149250D01*
X36495000Y-32558691D01*
X36398327Y-32325302D01*
X36257090Y-32184064D01*
X36311441Y-32149090D01*
X36456431Y-31936890D01*
X36507440Y-31685000D01*
X36507440Y-30185000D01*
X36463162Y-29949683D01*
X36324090Y-29733559D01*
X36281489Y-29704451D01*
X36336441Y-29669090D01*
X36481431Y-29456890D01*
X36510143Y-29315108D01*
X36667484Y-29283810D01*
X36723675Y-29272633D01*
X37010790Y-29080790D01*
X37638787Y-28452792D01*
X37638790Y-28452790D01*
X37747560Y-28290003D01*
X37747560Y-29205000D01*
X37791838Y-29440317D01*
X37930910Y-29656441D01*
X37997762Y-29702119D01*
X37968559Y-29720910D01*
X37823569Y-29933110D01*
X37772560Y-30185000D01*
X37772560Y-31685000D01*
X37816838Y-31920317D01*
X37955910Y-32136441D01*
X38024006Y-32182969D01*
X37881673Y-32325302D01*
X37785000Y-32558691D01*
X37785000Y-33149250D01*
X37943750Y-33308000D01*
X38918000Y-33308000D01*
X38918000Y-33288000D01*
X39172000Y-33288000D01*
X39172000Y-33308000D01*
X40146250Y-33308000D01*
X40305000Y-33149250D01*
X40305000Y-32701890D01*
X50709950Y-32701890D01*
X50709950Y-33442880D01*
X50806623Y-33676269D01*
X50985252Y-33854897D01*
X51218641Y-33951570D01*
X51459250Y-33951570D01*
X51618000Y-33792820D01*
X51618000Y-32543140D01*
X51872000Y-32543140D01*
X51872000Y-33792820D01*
X52030750Y-33951570D01*
X52271359Y-33951570D01*
X52504748Y-33854897D01*
X52683377Y-33676269D01*
X52780050Y-33442880D01*
X52780050Y-32701890D01*
X52621300Y-32543140D01*
X51872000Y-32543140D01*
X51618000Y-32543140D01*
X50868700Y-32543140D01*
X50709950Y-32701890D01*
X40305000Y-32701890D01*
X40305000Y-32558691D01*
X40208327Y-32325302D01*
X40067090Y-32184064D01*
X40121441Y-32149090D01*
X40266431Y-31936890D01*
X40317440Y-31685000D01*
X40317440Y-30185000D01*
X40273162Y-29949683D01*
X40134090Y-29733559D01*
X40091489Y-29704451D01*
X40146441Y-29669090D01*
X40291431Y-29456890D01*
X40313993Y-29345477D01*
X40331838Y-29440317D01*
X40470910Y-29656441D01*
X40683110Y-29801431D01*
X40935000Y-29852440D01*
X42235000Y-29852440D01*
X42470317Y-29808162D01*
X42686441Y-29669090D01*
X42831431Y-29456890D01*
X42855102Y-29340000D01*
X44013113Y-29340000D01*
X44100910Y-29476441D01*
X44313110Y-29621431D01*
X44565000Y-29672440D01*
X46065000Y-29672440D01*
X46300317Y-29628162D01*
X46516441Y-29489090D01*
X46661431Y-29276890D01*
X46664081Y-29263803D01*
X46800910Y-29476441D01*
X47013110Y-29621431D01*
X47265000Y-29672440D01*
X48765000Y-29672440D01*
X49000317Y-29628162D01*
X49216441Y-29489090D01*
X49361431Y-29276890D01*
X49364851Y-29260000D01*
X49389560Y-29260000D01*
X49747510Y-29617949D01*
X49747510Y-30314290D01*
X49791788Y-30549607D01*
X49930860Y-30765731D01*
X50143060Y-30910721D01*
X50394950Y-30961730D01*
X51023042Y-30961730D01*
X50985252Y-30977383D01*
X50806623Y-31156011D01*
X50709950Y-31389400D01*
X50709950Y-32130390D01*
X50868700Y-32289140D01*
X51618000Y-32289140D01*
X51618000Y-31039460D01*
X51470297Y-30891757D01*
X51646491Y-30778380D01*
X51745632Y-30633283D01*
X51830860Y-30765731D01*
X52017918Y-30893542D01*
X51872000Y-31039460D01*
X51872000Y-32289140D01*
X52621300Y-32289140D01*
X52780050Y-32130390D01*
X52780050Y-31389400D01*
X52683377Y-31156011D01*
X52504748Y-30977383D01*
X52466958Y-30961730D01*
X53095050Y-30961730D01*
X53330367Y-30917452D01*
X53546491Y-30778380D01*
X53691481Y-30566180D01*
X53742490Y-30314290D01*
X53742490Y-30298860D01*
X54078286Y-30298860D01*
X54121838Y-30530317D01*
X54260910Y-30746441D01*
X54473110Y-30891431D01*
X54584523Y-30913993D01*
X54489683Y-30931838D01*
X54273559Y-31070910D01*
X54128569Y-31283110D01*
X54077560Y-31535000D01*
X54077560Y-32835000D01*
X54121838Y-33070317D01*
X54260910Y-33286441D01*
X54473110Y-33431431D01*
X54725000Y-33482440D01*
X56225000Y-33482440D01*
X56460317Y-33438162D01*
X56676441Y-33299090D01*
X56821431Y-33086890D01*
X56824081Y-33073803D01*
X56960910Y-33286441D01*
X57173110Y-33431431D01*
X57425000Y-33482440D01*
X58925000Y-33482440D01*
X59160317Y-33438162D01*
X59376441Y-33299090D01*
X59521431Y-33086890D01*
X59524851Y-33070000D01*
X60587721Y-33070000D01*
X60710910Y-33261441D01*
X60923110Y-33406431D01*
X61175000Y-33457440D01*
X62675000Y-33457440D01*
X62910317Y-33413162D01*
X63126441Y-33274090D01*
X63172969Y-33205994D01*
X63315302Y-33348327D01*
X63548691Y-33445000D01*
X64139250Y-33445000D01*
X64298000Y-33286250D01*
X64298000Y-32312000D01*
X64552000Y-32312000D01*
X64552000Y-33286250D01*
X64710750Y-33445000D01*
X65301309Y-33445000D01*
X65534698Y-33348327D01*
X65713327Y-33169699D01*
X65739815Y-33105750D01*
X69271000Y-33105750D01*
X69271000Y-33517810D01*
X69367673Y-33751199D01*
X69546302Y-33929827D01*
X69779691Y-34026500D01*
X69874250Y-34026500D01*
X70033000Y-33867750D01*
X70033000Y-32947000D01*
X69429750Y-32947000D01*
X69271000Y-33105750D01*
X65739815Y-33105750D01*
X65810000Y-32936310D01*
X65810000Y-32470750D01*
X65651250Y-32312000D01*
X64552000Y-32312000D01*
X64298000Y-32312000D01*
X64278000Y-32312000D01*
X64278000Y-32122190D01*
X69271000Y-32122190D01*
X69271000Y-32534250D01*
X69429750Y-32693000D01*
X70033000Y-32693000D01*
X70033000Y-31772250D01*
X69874250Y-31613500D01*
X69779691Y-31613500D01*
X69546302Y-31710173D01*
X69367673Y-31888801D01*
X69271000Y-32122190D01*
X64278000Y-32122190D01*
X64278000Y-32058000D01*
X64298000Y-32058000D01*
X64298000Y-32038000D01*
X64552000Y-32038000D01*
X64552000Y-32058000D01*
X65651250Y-32058000D01*
X65810000Y-31899250D01*
X65810000Y-31433690D01*
X65713327Y-31200301D01*
X65551025Y-31038000D01*
X70428420Y-31038000D01*
X70545000Y-31154579D01*
X70545000Y-31615443D01*
X70540309Y-31613500D01*
X70445750Y-31613500D01*
X70287000Y-31772250D01*
X70287000Y-32693000D01*
X70307000Y-32693000D01*
X70307000Y-32947000D01*
X70287000Y-32947000D01*
X70287000Y-33867750D01*
X70445750Y-34026500D01*
X70540309Y-34026500D01*
X70773698Y-33929827D01*
X70800235Y-33903291D01*
X70924110Y-33987931D01*
X71176000Y-34038940D01*
X71684000Y-34038940D01*
X71919317Y-33994662D01*
X72060371Y-33903896D01*
X72086302Y-33929827D01*
X72319691Y-34026500D01*
X72414250Y-34026500D01*
X72573000Y-33867750D01*
X72573000Y-32947000D01*
X72553000Y-32947000D01*
X72553000Y-32693000D01*
X72573000Y-32693000D01*
X72573000Y-31772250D01*
X72414250Y-31613500D01*
X72319691Y-31613500D01*
X72315000Y-31615443D01*
X72315000Y-30788005D01*
X72315001Y-30788000D01*
X72247634Y-30449326D01*
X72128340Y-30270790D01*
X72055790Y-30162210D01*
X72055787Y-30162208D01*
X71420790Y-29527210D01*
X71315548Y-29456890D01*
X71133675Y-29335367D01*
X71077484Y-29324190D01*
X70795000Y-29267999D01*
X70794995Y-29268000D01*
X62832005Y-29268000D01*
X62832000Y-29267999D01*
X62549516Y-29324190D01*
X62493325Y-29335367D01*
X62206210Y-29527210D01*
X62206208Y-29527213D01*
X61299210Y-30434210D01*
X61107367Y-30721325D01*
X61107367Y-30721326D01*
X61065218Y-30933217D01*
X60939683Y-30956838D01*
X60723559Y-31095910D01*
X60584110Y-31300000D01*
X59528222Y-31300000D01*
X59528162Y-31299683D01*
X59389090Y-31083559D01*
X59176890Y-30938569D01*
X59065477Y-30916007D01*
X59160317Y-30898162D01*
X59376441Y-30759090D01*
X59521431Y-30546890D01*
X59572440Y-30295000D01*
X59572440Y-28995000D01*
X59528162Y-28759683D01*
X59389090Y-28543559D01*
X59176890Y-28398569D01*
X59060000Y-28374898D01*
X59060000Y-27390750D01*
X70192000Y-27390750D01*
X70192000Y-27856310D01*
X70288673Y-28089699D01*
X70467302Y-28268327D01*
X70700691Y-28365000D01*
X71291250Y-28365000D01*
X71450000Y-28206250D01*
X71450000Y-27232000D01*
X70350750Y-27232000D01*
X70192000Y-27390750D01*
X59060000Y-27390750D01*
X59060000Y-27298719D01*
X59130691Y-27328000D01*
X59271250Y-27328000D01*
X59430000Y-27169250D01*
X59430000Y-26470000D01*
X59684000Y-26470000D01*
X59684000Y-27169250D01*
X59842750Y-27328000D01*
X59983309Y-27328000D01*
X60216698Y-27231327D01*
X60395327Y-27052699D01*
X60492000Y-26819310D01*
X60492000Y-26628750D01*
X60333250Y-26470000D01*
X59684000Y-26470000D01*
X59430000Y-26470000D01*
X59410000Y-26470000D01*
X59410000Y-26353690D01*
X70192000Y-26353690D01*
X70192000Y-26819250D01*
X70350750Y-26978000D01*
X71450000Y-26978000D01*
X71450000Y-26003750D01*
X71291250Y-25845000D01*
X70700691Y-25845000D01*
X70467302Y-25941673D01*
X70288673Y-26120301D01*
X70192000Y-26353690D01*
X59410000Y-26353690D01*
X59410000Y-26216000D01*
X59430000Y-26216000D01*
X59430000Y-26196000D01*
X59684000Y-26196000D01*
X59684000Y-26216000D01*
X60333250Y-26216000D01*
X60492000Y-26057250D01*
X60492000Y-25866690D01*
X60395327Y-25633301D01*
X60216698Y-25454673D01*
X60205416Y-25450000D01*
X72206420Y-25450000D01*
X72833657Y-26077236D01*
X72833657Y-26077236D01*
G37*
X72833657Y-26077236D02*
X72829031Y-26084006D01*
X72686698Y-25941673D01*
X72453309Y-25845000D01*
X71862750Y-25845000D01*
X71704000Y-26003750D01*
X71704000Y-26978000D01*
X71724000Y-26978000D01*
X71724000Y-27232000D01*
X71704000Y-27232000D01*
X71704000Y-28206250D01*
X71862750Y-28365000D01*
X72453309Y-28365000D01*
X72686698Y-28268327D01*
X72827936Y-28127090D01*
X72862910Y-28181441D01*
X73075110Y-28326431D01*
X73085000Y-28328434D01*
X73085000Y-31615443D01*
X73080309Y-31613500D01*
X72985750Y-31613500D01*
X72827000Y-31772250D01*
X72827000Y-32693000D01*
X72847000Y-32693000D01*
X72847000Y-32947000D01*
X72827000Y-32947000D01*
X72827000Y-33867750D01*
X72985750Y-34026500D01*
X73080309Y-34026500D01*
X73158635Y-33994056D01*
X73307975Y-34217560D01*
X73344210Y-34271790D01*
X76887290Y-37814869D01*
X76881177Y-37845598D01*
X75909790Y-36874210D01*
X75784469Y-36790474D01*
X75622675Y-36682367D01*
X75566484Y-36671190D01*
X75284000Y-36614999D01*
X75283995Y-36615000D01*
X73397558Y-36615000D01*
X73385884Y-36602147D01*
X73325790Y-36512210D01*
X73270855Y-36475504D01*
X73226436Y-36426600D01*
X72026436Y-35538600D01*
X71928634Y-35492471D01*
X71838725Y-35432388D01*
X71773901Y-35419490D01*
X71714122Y-35391294D01*
X71606110Y-35386103D01*
X71500054Y-35365000D01*
X55047054Y-35364000D01*
X55047027Y-35364005D01*
X55047000Y-35364000D01*
X54880146Y-35397189D01*
X54708375Y-35431346D01*
X54708351Y-35431362D01*
X54708325Y-35431367D01*
X54571435Y-35522834D01*
X54421248Y-35623172D01*
X54421232Y-35623197D01*
X54421210Y-35623211D01*
X51178860Y-38865560D01*
X50777000Y-38865560D01*
X50541683Y-38909838D01*
X50325559Y-39048910D01*
X50180569Y-39261110D01*
X50178232Y-39272652D01*
X50084790Y-39179210D01*
X49965062Y-39099211D01*
X49797675Y-38987367D01*
X49735502Y-38975000D01*
X49459000Y-38919999D01*
X49458995Y-38920000D01*
X49368222Y-38920000D01*
X49368162Y-38919683D01*
X49229090Y-38703559D01*
X49016890Y-38558569D01*
X48765000Y-38507560D01*
X47265000Y-38507560D01*
X47029683Y-38551838D01*
X46813559Y-38690910D01*
X46668569Y-38903110D01*
X46665919Y-38916197D01*
X46529090Y-38703559D01*
X46316890Y-38558569D01*
X46065000Y-38507560D01*
X44565000Y-38507560D01*
X44329683Y-38551838D01*
X44113559Y-38690910D01*
X44011690Y-38840000D01*
X42857038Y-38840000D01*
X42838162Y-38739683D01*
X42699090Y-38523559D01*
X42486890Y-38378569D01*
X42235000Y-38327560D01*
X40935000Y-38327560D01*
X40699683Y-38371838D01*
X40483559Y-38510910D01*
X40338569Y-38723110D01*
X40316007Y-38834523D01*
X40298162Y-38739683D01*
X40159090Y-38523559D01*
X39946890Y-38378569D01*
X39695000Y-38327560D01*
X38395000Y-38327560D01*
X38159683Y-38371838D01*
X37943559Y-38510910D01*
X37798569Y-38723110D01*
X37769857Y-38864892D01*
X37577726Y-38903110D01*
X37556325Y-38907367D01*
X37269210Y-39099210D01*
X37269208Y-39099213D01*
X36641210Y-39727210D01*
X36532440Y-39889997D01*
X36532440Y-38975000D01*
X36488162Y-38739683D01*
X36349090Y-38523559D01*
X36136890Y-38378569D01*
X35885000Y-38327560D01*
X34585000Y-38327560D01*
X34349683Y-38371838D01*
X34133559Y-38510910D01*
X33988569Y-38723110D01*
X33977048Y-38780000D01*
X33672440Y-38780000D01*
X33672440Y-38315000D01*
X33628162Y-38079683D01*
X33489090Y-37863559D01*
X33276890Y-37718569D01*
X33025000Y-37667560D01*
X29825000Y-37667560D01*
X29589683Y-37711838D01*
X29373559Y-37850910D01*
X29228569Y-38063110D01*
X29177560Y-38315000D01*
X29177560Y-38494427D01*
X28742566Y-38059434D01*
X28648687Y-37996706D01*
X28374346Y-37813397D01*
X27940000Y-37727000D01*
X27803049Y-37727000D01*
X27781162Y-37610683D01*
X27642090Y-37394559D01*
X27429890Y-37249569D01*
X27178000Y-37198560D01*
X25146000Y-37198560D01*
X24910683Y-37242838D01*
X24710000Y-37371974D01*
X24710000Y-34832229D01*
X24843615Y-35154818D01*
X25281621Y-35627188D01*
X25867054Y-35895983D01*
X26123000Y-35777367D01*
X26123000Y-34417000D01*
X26377000Y-34417000D01*
X26377000Y-35777367D01*
X26632946Y-35895983D01*
X27218379Y-35627188D01*
X27656385Y-35154818D01*
X27855975Y-34672944D01*
X27736836Y-34417000D01*
X26377000Y-34417000D01*
X26123000Y-34417000D01*
X26103000Y-34417000D01*
X26103000Y-34163000D01*
X26123000Y-34163000D01*
X26123000Y-34143000D01*
X26377000Y-34143000D01*
X26377000Y-34163000D01*
X27736836Y-34163000D01*
X27855975Y-33907056D01*
X27845080Y-33880750D01*
X29190000Y-33880750D01*
X29190000Y-35071309D01*
X29286673Y-35304698D01*
X29465301Y-35483327D01*
X29698690Y-35580000D01*
X31139250Y-35580000D01*
X31298000Y-35421250D01*
X31298000Y-33722000D01*
X31552000Y-33722000D01*
X31552000Y-35421250D01*
X31710750Y-35580000D01*
X33151310Y-35580000D01*
X33384699Y-35483327D01*
X33563327Y-35304698D01*
X33660000Y-35071309D01*
X33660000Y-33880750D01*
X33501250Y-33722000D01*
X31552000Y-33722000D01*
X31298000Y-33722000D01*
X29348750Y-33722000D01*
X29190000Y-33880750D01*
X27845080Y-33880750D01*
X27778809Y-33720750D01*
X33975000Y-33720750D01*
X33975000Y-34311309D01*
X34071673Y-34544698D01*
X34250301Y-34723327D01*
X34483690Y-34820000D01*
X34949250Y-34820000D01*
X35108000Y-34661250D01*
X35108000Y-33562000D01*
X35362000Y-33562000D01*
X35362000Y-34661250D01*
X35520750Y-34820000D01*
X35986310Y-34820000D01*
X36219699Y-34723327D01*
X36398327Y-34544698D01*
X36495000Y-34311309D01*
X36495000Y-33720750D01*
X37785000Y-33720750D01*
X37785000Y-34311309D01*
X37881673Y-34544698D01*
X38060301Y-34723327D01*
X38293690Y-34820000D01*
X38759250Y-34820000D01*
X38918000Y-34661250D01*
X38918000Y-33562000D01*
X39172000Y-33562000D01*
X39172000Y-34661250D01*
X39330750Y-34820000D01*
X39796310Y-34820000D01*
X40029699Y-34723327D01*
X40208327Y-34544698D01*
X40305000Y-34311309D01*
X40305000Y-33720750D01*
X40146250Y-33562000D01*
X39172000Y-33562000D01*
X38918000Y-33562000D01*
X37943750Y-33562000D01*
X37785000Y-33720750D01*
X36495000Y-33720750D01*
X36336250Y-33562000D01*
X35362000Y-33562000D01*
X35108000Y-33562000D01*
X34133750Y-33562000D01*
X33975000Y-33720750D01*
X27778809Y-33720750D01*
X27656385Y-33425182D01*
X27565903Y-33327602D01*
X27717441Y-33230090D01*
X27862431Y-33017890D01*
X27913440Y-32766000D01*
X27913440Y-32118691D01*
X29190000Y-32118691D01*
X29190000Y-33309250D01*
X29348750Y-33468000D01*
X31298000Y-33468000D01*
X31298000Y-31768750D01*
X31552000Y-31768750D01*
X31552000Y-33468000D01*
X33501250Y-33468000D01*
X33660000Y-33309250D01*
X33660000Y-32118691D01*
X33563327Y-31885302D01*
X33384699Y-31706673D01*
X33151310Y-31610000D01*
X31710750Y-31610000D01*
X31552000Y-31768750D01*
X31298000Y-31768750D01*
X31139250Y-31610000D01*
X29698690Y-31610000D01*
X29465301Y-31706673D01*
X29286673Y-31885302D01*
X29190000Y-32118691D01*
X27913440Y-32118691D01*
X27913440Y-30734000D01*
X27869162Y-30498683D01*
X27730090Y-30282559D01*
X27517890Y-30137569D01*
X27266000Y-30086560D01*
X25234000Y-30086560D01*
X24998683Y-30130838D01*
X24782559Y-30269910D01*
X24710000Y-30376104D01*
X24710000Y-27932689D01*
X24755615Y-28042818D01*
X25193621Y-28515188D01*
X25779054Y-28783983D01*
X26035000Y-28665367D01*
X26035000Y-27305000D01*
X26289000Y-27305000D01*
X26289000Y-28665367D01*
X26544946Y-28783983D01*
X27130379Y-28515188D01*
X27568385Y-28042818D01*
X27767975Y-27560944D01*
X27648836Y-27305000D01*
X26289000Y-27305000D01*
X26035000Y-27305000D01*
X26015000Y-27305000D01*
X26015000Y-27051000D01*
X26035000Y-27051000D01*
X26035000Y-27031000D01*
X26289000Y-27031000D01*
X26289000Y-27051000D01*
X27648836Y-27051000D01*
X27767975Y-26795056D01*
X27568385Y-26313182D01*
X27477903Y-26215602D01*
X27629441Y-26118090D01*
X27704746Y-26007878D01*
X28194434Y-26497566D01*
X28562654Y-26743603D01*
X28997000Y-26830000D01*
X29177560Y-26830000D01*
X29177560Y-27045000D01*
X29221838Y-27280317D01*
X29360910Y-27496441D01*
X29573110Y-27641431D01*
X29825000Y-27692440D01*
X33025000Y-27692440D01*
X33260317Y-27648162D01*
X33476441Y-27509090D01*
X33621431Y-27296890D01*
X33672440Y-27045000D01*
X33672440Y-26580000D01*
X33951672Y-26580000D01*
X33981838Y-26740317D01*
X34120910Y-26956441D01*
X34333110Y-27101431D01*
X34346197Y-27104081D01*
X34133559Y-27240910D01*
X33988569Y-27453110D01*
X33937560Y-27705000D01*
X33937560Y-29205000D01*
X33981838Y-29440317D01*
X34120910Y-29656441D01*
X34187762Y-29702119D01*
X34158559Y-29720910D01*
X34013569Y-29933110D01*
X33962560Y-30185000D01*
X33962560Y-31685000D01*
X34006838Y-31920317D01*
X34145910Y-32136441D01*
X34214006Y-32182969D01*
X34071673Y-32325302D01*
X33975000Y-32558691D01*
X33975000Y-33149250D01*
X34133750Y-33308000D01*
X35108000Y-33308000D01*
X35108000Y-33288000D01*
X35362000Y-33288000D01*
X35362000Y-33308000D01*
X36336250Y-33308000D01*
X36495000Y-33149250D01*
X36495000Y-32558691D01*
X36398327Y-32325302D01*
X36257090Y-32184064D01*
X36311441Y-32149090D01*
X36456431Y-31936890D01*
X36507440Y-31685000D01*
X36507440Y-30185000D01*
X36463162Y-29949683D01*
X36324090Y-29733559D01*
X36281489Y-29704451D01*
X36336441Y-29669090D01*
X36481431Y-29456890D01*
X36510143Y-29315108D01*
X36667484Y-29283810D01*
X36723675Y-29272633D01*
X37010790Y-29080790D01*
X37638787Y-28452792D01*
X37638790Y-28452790D01*
X37747560Y-28290003D01*
X37747560Y-29205000D01*
X37791838Y-29440317D01*
X37930910Y-29656441D01*
X37997762Y-29702119D01*
X37968559Y-29720910D01*
X37823569Y-29933110D01*
X37772560Y-30185000D01*
X37772560Y-31685000D01*
X37816838Y-31920317D01*
X37955910Y-32136441D01*
X38024006Y-32182969D01*
X37881673Y-32325302D01*
X37785000Y-32558691D01*
X37785000Y-33149250D01*
X37943750Y-33308000D01*
X38918000Y-33308000D01*
X38918000Y-33288000D01*
X39172000Y-33288000D01*
X39172000Y-33308000D01*
X40146250Y-33308000D01*
X40305000Y-33149250D01*
X40305000Y-32701890D01*
X50709950Y-32701890D01*
X50709950Y-33442880D01*
X50806623Y-33676269D01*
X50985252Y-33854897D01*
X51218641Y-33951570D01*
X51459250Y-33951570D01*
X51618000Y-33792820D01*
X51618000Y-32543140D01*
X51872000Y-32543140D01*
X51872000Y-33792820D01*
X52030750Y-33951570D01*
X52271359Y-33951570D01*
X52504748Y-33854897D01*
X52683377Y-33676269D01*
X52780050Y-33442880D01*
X52780050Y-32701890D01*
X52621300Y-32543140D01*
X51872000Y-32543140D01*
X51618000Y-32543140D01*
X50868700Y-32543140D01*
X50709950Y-32701890D01*
X40305000Y-32701890D01*
X40305000Y-32558691D01*
X40208327Y-32325302D01*
X40067090Y-32184064D01*
X40121441Y-32149090D01*
X40266431Y-31936890D01*
X40317440Y-31685000D01*
X40317440Y-30185000D01*
X40273162Y-29949683D01*
X40134090Y-29733559D01*
X40091489Y-29704451D01*
X40146441Y-29669090D01*
X40291431Y-29456890D01*
X40313993Y-29345477D01*
X40331838Y-29440317D01*
X40470910Y-29656441D01*
X40683110Y-29801431D01*
X40935000Y-29852440D01*
X42235000Y-29852440D01*
X42470317Y-29808162D01*
X42686441Y-29669090D01*
X42831431Y-29456890D01*
X42855102Y-29340000D01*
X44013113Y-29340000D01*
X44100910Y-29476441D01*
X44313110Y-29621431D01*
X44565000Y-29672440D01*
X46065000Y-29672440D01*
X46300317Y-29628162D01*
X46516441Y-29489090D01*
X46661431Y-29276890D01*
X46664081Y-29263803D01*
X46800910Y-29476441D01*
X47013110Y-29621431D01*
X47265000Y-29672440D01*
X48765000Y-29672440D01*
X49000317Y-29628162D01*
X49216441Y-29489090D01*
X49361431Y-29276890D01*
X49364851Y-29260000D01*
X49389560Y-29260000D01*
X49747510Y-29617949D01*
X49747510Y-30314290D01*
X49791788Y-30549607D01*
X49930860Y-30765731D01*
X50143060Y-30910721D01*
X50394950Y-30961730D01*
X51023042Y-30961730D01*
X50985252Y-30977383D01*
X50806623Y-31156011D01*
X50709950Y-31389400D01*
X50709950Y-32130390D01*
X50868700Y-32289140D01*
X51618000Y-32289140D01*
X51618000Y-31039460D01*
X51470297Y-30891757D01*
X51646491Y-30778380D01*
X51745632Y-30633283D01*
X51830860Y-30765731D01*
X52017918Y-30893542D01*
X51872000Y-31039460D01*
X51872000Y-32289140D01*
X52621300Y-32289140D01*
X52780050Y-32130390D01*
X52780050Y-31389400D01*
X52683377Y-31156011D01*
X52504748Y-30977383D01*
X52466958Y-30961730D01*
X53095050Y-30961730D01*
X53330367Y-30917452D01*
X53546491Y-30778380D01*
X53691481Y-30566180D01*
X53742490Y-30314290D01*
X53742490Y-30298860D01*
X54078286Y-30298860D01*
X54121838Y-30530317D01*
X54260910Y-30746441D01*
X54473110Y-30891431D01*
X54584523Y-30913993D01*
X54489683Y-30931838D01*
X54273559Y-31070910D01*
X54128569Y-31283110D01*
X54077560Y-31535000D01*
X54077560Y-32835000D01*
X54121838Y-33070317D01*
X54260910Y-33286441D01*
X54473110Y-33431431D01*
X54725000Y-33482440D01*
X56225000Y-33482440D01*
X56460317Y-33438162D01*
X56676441Y-33299090D01*
X56821431Y-33086890D01*
X56824081Y-33073803D01*
X56960910Y-33286441D01*
X57173110Y-33431431D01*
X57425000Y-33482440D01*
X58925000Y-33482440D01*
X59160317Y-33438162D01*
X59376441Y-33299090D01*
X59521431Y-33086890D01*
X59524851Y-33070000D01*
X60587721Y-33070000D01*
X60710910Y-33261441D01*
X60923110Y-33406431D01*
X61175000Y-33457440D01*
X62675000Y-33457440D01*
X62910317Y-33413162D01*
X63126441Y-33274090D01*
X63172969Y-33205994D01*
X63315302Y-33348327D01*
X63548691Y-33445000D01*
X64139250Y-33445000D01*
X64298000Y-33286250D01*
X64298000Y-32312000D01*
X64552000Y-32312000D01*
X64552000Y-33286250D01*
X64710750Y-33445000D01*
X65301309Y-33445000D01*
X65534698Y-33348327D01*
X65713327Y-33169699D01*
X65739815Y-33105750D01*
X69271000Y-33105750D01*
X69271000Y-33517810D01*
X69367673Y-33751199D01*
X69546302Y-33929827D01*
X69779691Y-34026500D01*
X69874250Y-34026500D01*
X70033000Y-33867750D01*
X70033000Y-32947000D01*
X69429750Y-32947000D01*
X69271000Y-33105750D01*
X65739815Y-33105750D01*
X65810000Y-32936310D01*
X65810000Y-32470750D01*
X65651250Y-32312000D01*
X64552000Y-32312000D01*
X64298000Y-32312000D01*
X64278000Y-32312000D01*
X64278000Y-32122190D01*
X69271000Y-32122190D01*
X69271000Y-32534250D01*
X69429750Y-32693000D01*
X70033000Y-32693000D01*
X70033000Y-31772250D01*
X69874250Y-31613500D01*
X69779691Y-31613500D01*
X69546302Y-31710173D01*
X69367673Y-31888801D01*
X69271000Y-32122190D01*
X64278000Y-32122190D01*
X64278000Y-32058000D01*
X64298000Y-32058000D01*
X64298000Y-32038000D01*
X64552000Y-32038000D01*
X64552000Y-32058000D01*
X65651250Y-32058000D01*
X65810000Y-31899250D01*
X65810000Y-31433690D01*
X65713327Y-31200301D01*
X65551025Y-31038000D01*
X70428420Y-31038000D01*
X70545000Y-31154579D01*
X70545000Y-31615443D01*
X70540309Y-31613500D01*
X70445750Y-31613500D01*
X70287000Y-31772250D01*
X70287000Y-32693000D01*
X70307000Y-32693000D01*
X70307000Y-32947000D01*
X70287000Y-32947000D01*
X70287000Y-33867750D01*
X70445750Y-34026500D01*
X70540309Y-34026500D01*
X70773698Y-33929827D01*
X70800235Y-33903291D01*
X70924110Y-33987931D01*
X71176000Y-34038940D01*
X71684000Y-34038940D01*
X71919317Y-33994662D01*
X72060371Y-33903896D01*
X72086302Y-33929827D01*
X72319691Y-34026500D01*
X72414250Y-34026500D01*
X72573000Y-33867750D01*
X72573000Y-32947000D01*
X72553000Y-32947000D01*
X72553000Y-32693000D01*
X72573000Y-32693000D01*
X72573000Y-31772250D01*
X72414250Y-31613500D01*
X72319691Y-31613500D01*
X72315000Y-31615443D01*
X72315000Y-30788005D01*
X72315001Y-30788000D01*
X72247634Y-30449326D01*
X72128340Y-30270790D01*
X72055790Y-30162210D01*
X72055787Y-30162208D01*
X71420790Y-29527210D01*
X71315548Y-29456890D01*
X71133675Y-29335367D01*
X71077484Y-29324190D01*
X70795000Y-29267999D01*
X70794995Y-29268000D01*
X62832005Y-29268000D01*
X62832000Y-29267999D01*
X62549516Y-29324190D01*
X62493325Y-29335367D01*
X62206210Y-29527210D01*
X62206208Y-29527213D01*
X61299210Y-30434210D01*
X61107367Y-30721325D01*
X61107367Y-30721326D01*
X61065218Y-30933217D01*
X60939683Y-30956838D01*
X60723559Y-31095910D01*
X60584110Y-31300000D01*
X59528222Y-31300000D01*
X59528162Y-31299683D01*
X59389090Y-31083559D01*
X59176890Y-30938569D01*
X59065477Y-30916007D01*
X59160317Y-30898162D01*
X59376441Y-30759090D01*
X59521431Y-30546890D01*
X59572440Y-30295000D01*
X59572440Y-28995000D01*
X59528162Y-28759683D01*
X59389090Y-28543559D01*
X59176890Y-28398569D01*
X59060000Y-28374898D01*
X59060000Y-27390750D01*
X70192000Y-27390750D01*
X70192000Y-27856310D01*
X70288673Y-28089699D01*
X70467302Y-28268327D01*
X70700691Y-28365000D01*
X71291250Y-28365000D01*
X71450000Y-28206250D01*
X71450000Y-27232000D01*
X70350750Y-27232000D01*
X70192000Y-27390750D01*
X59060000Y-27390750D01*
X59060000Y-27298719D01*
X59130691Y-27328000D01*
X59271250Y-27328000D01*
X59430000Y-27169250D01*
X59430000Y-26470000D01*
X59684000Y-26470000D01*
X59684000Y-27169250D01*
X59842750Y-27328000D01*
X59983309Y-27328000D01*
X60216698Y-27231327D01*
X60395327Y-27052699D01*
X60492000Y-26819310D01*
X60492000Y-26628750D01*
X60333250Y-26470000D01*
X59684000Y-26470000D01*
X59430000Y-26470000D01*
X59410000Y-26470000D01*
X59410000Y-26353690D01*
X70192000Y-26353690D01*
X70192000Y-26819250D01*
X70350750Y-26978000D01*
X71450000Y-26978000D01*
X71450000Y-26003750D01*
X71291250Y-25845000D01*
X70700691Y-25845000D01*
X70467302Y-25941673D01*
X70288673Y-26120301D01*
X70192000Y-26353690D01*
X59410000Y-26353690D01*
X59410000Y-26216000D01*
X59430000Y-26216000D01*
X59430000Y-26196000D01*
X59684000Y-26196000D01*
X59684000Y-26216000D01*
X60333250Y-26216000D01*
X60492000Y-26057250D01*
X60492000Y-25866690D01*
X60395327Y-25633301D01*
X60216698Y-25454673D01*
X60205416Y-25450000D01*
X72206420Y-25450000D01*
X72833657Y-26077236D01*
G36*
X84790000Y-36903278D02*
X84781399Y-36901536D01*
X84730634Y-36646326D01*
X84583818Y-36426600D01*
X84538790Y-36359210D01*
X84538787Y-36359208D01*
X83168790Y-34989210D01*
X82881675Y-34797367D01*
X82825484Y-34786190D01*
X82543000Y-34729999D01*
X82542995Y-34730000D01*
X82540038Y-34730000D01*
X82521162Y-34629683D01*
X82382090Y-34413559D01*
X82313994Y-34367031D01*
X82456327Y-34224698D01*
X82553000Y-33991309D01*
X82553000Y-33400750D01*
X82394250Y-33242000D01*
X81420000Y-33242000D01*
X81420000Y-33262000D01*
X81166000Y-33262000D01*
X81166000Y-33242000D01*
X80191750Y-33242000D01*
X80062921Y-33370829D01*
X79985217Y-33222000D01*
X78626000Y-33222000D01*
X78626000Y-33242000D01*
X78372000Y-33242000D01*
X78372000Y-33222000D01*
X77012783Y-33222000D01*
X76891642Y-33454026D01*
X76894291Y-33469791D01*
X77148268Y-33997036D01*
X77564069Y-34368539D01*
X77254585Y-34575330D01*
X76929729Y-35061511D01*
X76881177Y-35305598D01*
X74871440Y-33295860D01*
X74871440Y-32248500D01*
X74855000Y-32161129D01*
X74855000Y-30555000D01*
X76815655Y-30555000D01*
X76929729Y-31128489D01*
X77254585Y-31614670D01*
X77564069Y-31821461D01*
X77148268Y-32192964D01*
X76894291Y-32720209D01*
X76891642Y-32735974D01*
X77012783Y-32968000D01*
X78372000Y-32968000D01*
X78372000Y-32948000D01*
X78626000Y-32948000D01*
X78626000Y-32968000D01*
X79985217Y-32968000D01*
X80049200Y-32845450D01*
X80191750Y-32988000D01*
X81166000Y-32988000D01*
X81166000Y-31888750D01*
X81420000Y-31888750D01*
X81420000Y-32988000D01*
X82394250Y-32988000D01*
X82553000Y-32829250D01*
X82553000Y-32238691D01*
X82456327Y-32005302D01*
X82277699Y-31826673D01*
X82044310Y-31730000D01*
X81578750Y-31730000D01*
X81420000Y-31888750D01*
X81166000Y-31888750D01*
X81007250Y-31730000D01*
X80541690Y-31730000D01*
X80308301Y-31826673D01*
X80129673Y-32005302D01*
X80033000Y-32238691D01*
X80033000Y-32573420D01*
X79849732Y-32192964D01*
X79433931Y-31821461D01*
X79743415Y-31614670D01*
X80068271Y-31128489D01*
X80182345Y-30555000D01*
X80068271Y-29981511D01*
X79743415Y-29495330D01*
X79721220Y-29480500D01*
X79874698Y-29416927D01*
X80053327Y-29238299D01*
X80150000Y-29004910D01*
X80150000Y-28300750D01*
X79991250Y-28142000D01*
X78626000Y-28142000D01*
X78626000Y-28162000D01*
X78372000Y-28162000D01*
X78372000Y-28142000D01*
X77006750Y-28142000D01*
X76848000Y-28300750D01*
X76848000Y-29004910D01*
X76944673Y-29238299D01*
X77123302Y-29416927D01*
X77276780Y-29480500D01*
X77254585Y-29495330D01*
X76929729Y-29981511D01*
X76815655Y-30555000D01*
X74855000Y-30555000D01*
X74855000Y-28372171D01*
X75062317Y-28333162D01*
X75278441Y-28194090D01*
X75423431Y-27981890D01*
X75474440Y-27730000D01*
X75474440Y-27025090D01*
X76848000Y-27025090D01*
X76848000Y-27729250D01*
X77006750Y-27888000D01*
X78372000Y-27888000D01*
X78372000Y-26675150D01*
X78626000Y-26675150D01*
X78626000Y-27888000D01*
X79991250Y-27888000D01*
X80150000Y-27729250D01*
X80150000Y-27025090D01*
X80053327Y-26791701D01*
X79874698Y-26613073D01*
X79641309Y-26516400D01*
X78784750Y-26516400D01*
X78626000Y-26675150D01*
X78372000Y-26675150D01*
X78213250Y-26516400D01*
X77356691Y-26516400D01*
X77123302Y-26613073D01*
X76944673Y-26791701D01*
X76848000Y-27025090D01*
X75474440Y-27025090D01*
X75474440Y-26480000D01*
X75430162Y-26244683D01*
X75291090Y-26028559D01*
X75078890Y-25883569D01*
X74935355Y-25854502D01*
X74914633Y-25750325D01*
X74722790Y-25463210D01*
X74722787Y-25463208D01*
X73198790Y-23939210D01*
X73043477Y-23835434D01*
X72911675Y-23747367D01*
X72855484Y-23736190D01*
X72573000Y-23679999D01*
X72572995Y-23680000D01*
X52761005Y-23680000D01*
X52761000Y-23679999D01*
X52450121Y-23741838D01*
X52422325Y-23747367D01*
X52135210Y-23939210D01*
X52135208Y-23939213D01*
X51178860Y-24895560D01*
X50777000Y-24895560D01*
X50541683Y-24939838D01*
X50325559Y-25078910D01*
X50180569Y-25291110D01*
X50178232Y-25302652D01*
X50084790Y-25209210D01*
X49965062Y-25129211D01*
X49797675Y-25017367D01*
X49735502Y-25005000D01*
X49459000Y-24949999D01*
X49458995Y-24950000D01*
X49368222Y-24950000D01*
X49368162Y-24949683D01*
X49229090Y-24733559D01*
X49016890Y-24588569D01*
X48765000Y-24537560D01*
X47265000Y-24537560D01*
X47029683Y-24581838D01*
X46813559Y-24720910D01*
X46668569Y-24933110D01*
X46665919Y-24946197D01*
X46529090Y-24733559D01*
X46316890Y-24588569D01*
X46065000Y-24537560D01*
X44565000Y-24537560D01*
X44329683Y-24581838D01*
X44113559Y-24720910D01*
X43968569Y-24933110D01*
X43965149Y-24950000D01*
X42872091Y-24950000D01*
X42838162Y-24769683D01*
X42699090Y-24553559D01*
X42486890Y-24408569D01*
X42235000Y-24357560D01*
X40935000Y-24357560D01*
X40699683Y-24401838D01*
X40483559Y-24540910D01*
X40338569Y-24753110D01*
X40316007Y-24864523D01*
X40298162Y-24769683D01*
X40159090Y-24553559D01*
X39946890Y-24408569D01*
X39695000Y-24357560D01*
X38395000Y-24357560D01*
X38159683Y-24401838D01*
X37943559Y-24540910D01*
X37798569Y-24753110D01*
X37774898Y-24870000D01*
X37601005Y-24870000D01*
X37601000Y-24869999D01*
X37262326Y-24937366D01*
X37243418Y-24950000D01*
X36975210Y-25129210D01*
X36975208Y-25129213D01*
X36532440Y-25571980D01*
X36532440Y-25005000D01*
X36488162Y-24769683D01*
X36349090Y-24553559D01*
X36136890Y-24408569D01*
X35885000Y-24357560D01*
X34585000Y-24357560D01*
X34349683Y-24401838D01*
X34133559Y-24540910D01*
X33988569Y-24753110D01*
X33977048Y-24810000D01*
X33672440Y-24810000D01*
X33672440Y-24345000D01*
X33628162Y-24109683D01*
X33489090Y-23893559D01*
X33276890Y-23748569D01*
X33025000Y-23697560D01*
X29825000Y-23697560D01*
X29589683Y-23741838D01*
X29373559Y-23880910D01*
X29228569Y-24093110D01*
X29190118Y-24282986D01*
X28742566Y-23835434D01*
X28612563Y-23748569D01*
X28374346Y-23589397D01*
X27940000Y-23503000D01*
X27803049Y-23503000D01*
X27781162Y-23386683D01*
X27667470Y-23210000D01*
X84790000Y-23210000D01*
X84790000Y-36903278D01*
X84790000Y-36903278D01*
G37*
X84790000Y-36903278D02*
X84781399Y-36901536D01*
X84730634Y-36646326D01*
X84583818Y-36426600D01*
X84538790Y-36359210D01*
X84538787Y-36359208D01*
X83168790Y-34989210D01*
X82881675Y-34797367D01*
X82825484Y-34786190D01*
X82543000Y-34729999D01*
X82542995Y-34730000D01*
X82540038Y-34730000D01*
X82521162Y-34629683D01*
X82382090Y-34413559D01*
X82313994Y-34367031D01*
X82456327Y-34224698D01*
X82553000Y-33991309D01*
X82553000Y-33400750D01*
X82394250Y-33242000D01*
X81420000Y-33242000D01*
X81420000Y-33262000D01*
X81166000Y-33262000D01*
X81166000Y-33242000D01*
X80191750Y-33242000D01*
X80062921Y-33370829D01*
X79985217Y-33222000D01*
X78626000Y-33222000D01*
X78626000Y-33242000D01*
X78372000Y-33242000D01*
X78372000Y-33222000D01*
X77012783Y-33222000D01*
X76891642Y-33454026D01*
X76894291Y-33469791D01*
X77148268Y-33997036D01*
X77564069Y-34368539D01*
X77254585Y-34575330D01*
X76929729Y-35061511D01*
X76881177Y-35305598D01*
X74871440Y-33295860D01*
X74871440Y-32248500D01*
X74855000Y-32161129D01*
X74855000Y-30555000D01*
X76815655Y-30555000D01*
X76929729Y-31128489D01*
X77254585Y-31614670D01*
X77564069Y-31821461D01*
X77148268Y-32192964D01*
X76894291Y-32720209D01*
X76891642Y-32735974D01*
X77012783Y-32968000D01*
X78372000Y-32968000D01*
X78372000Y-32948000D01*
X78626000Y-32948000D01*
X78626000Y-32968000D01*
X79985217Y-32968000D01*
X80049200Y-32845450D01*
X80191750Y-32988000D01*
X81166000Y-32988000D01*
X81166000Y-31888750D01*
X81420000Y-31888750D01*
X81420000Y-32988000D01*
X82394250Y-32988000D01*
X82553000Y-32829250D01*
X82553000Y-32238691D01*
X82456327Y-32005302D01*
X82277699Y-31826673D01*
X82044310Y-31730000D01*
X81578750Y-31730000D01*
X81420000Y-31888750D01*
X81166000Y-31888750D01*
X81007250Y-31730000D01*
X80541690Y-31730000D01*
X80308301Y-31826673D01*
X80129673Y-32005302D01*
X80033000Y-32238691D01*
X80033000Y-32573420D01*
X79849732Y-32192964D01*
X79433931Y-31821461D01*
X79743415Y-31614670D01*
X80068271Y-31128489D01*
X80182345Y-30555000D01*
X80068271Y-29981511D01*
X79743415Y-29495330D01*
X79721220Y-29480500D01*
X79874698Y-29416927D01*
X80053327Y-29238299D01*
X80150000Y-29004910D01*
X80150000Y-28300750D01*
X79991250Y-28142000D01*
X78626000Y-28142000D01*
X78626000Y-28162000D01*
X78372000Y-28162000D01*
X78372000Y-28142000D01*
X77006750Y-28142000D01*
X76848000Y-28300750D01*
X76848000Y-29004910D01*
X76944673Y-29238299D01*
X77123302Y-29416927D01*
X77276780Y-29480500D01*
X77254585Y-29495330D01*
X76929729Y-29981511D01*
X76815655Y-30555000D01*
X74855000Y-30555000D01*
X74855000Y-28372171D01*
X75062317Y-28333162D01*
X75278441Y-28194090D01*
X75423431Y-27981890D01*
X75474440Y-27730000D01*
X75474440Y-27025090D01*
X76848000Y-27025090D01*
X76848000Y-27729250D01*
X77006750Y-27888000D01*
X78372000Y-27888000D01*
X78372000Y-26675150D01*
X78626000Y-26675150D01*
X78626000Y-27888000D01*
X79991250Y-27888000D01*
X80150000Y-27729250D01*
X80150000Y-27025090D01*
X80053327Y-26791701D01*
X79874698Y-26613073D01*
X79641309Y-26516400D01*
X78784750Y-26516400D01*
X78626000Y-26675150D01*
X78372000Y-26675150D01*
X78213250Y-26516400D01*
X77356691Y-26516400D01*
X77123302Y-26613073D01*
X76944673Y-26791701D01*
X76848000Y-27025090D01*
X75474440Y-27025090D01*
X75474440Y-26480000D01*
X75430162Y-26244683D01*
X75291090Y-26028559D01*
X75078890Y-25883569D01*
X74935355Y-25854502D01*
X74914633Y-25750325D01*
X74722790Y-25463210D01*
X74722787Y-25463208D01*
X73198790Y-23939210D01*
X73043477Y-23835434D01*
X72911675Y-23747367D01*
X72855484Y-23736190D01*
X72573000Y-23679999D01*
X72572995Y-23680000D01*
X52761005Y-23680000D01*
X52761000Y-23679999D01*
X52450121Y-23741838D01*
X52422325Y-23747367D01*
X52135210Y-23939210D01*
X52135208Y-23939213D01*
X51178860Y-24895560D01*
X50777000Y-24895560D01*
X50541683Y-24939838D01*
X50325559Y-25078910D01*
X50180569Y-25291110D01*
X50178232Y-25302652D01*
X50084790Y-25209210D01*
X49965062Y-25129211D01*
X49797675Y-25017367D01*
X49735502Y-25005000D01*
X49459000Y-24949999D01*
X49458995Y-24950000D01*
X49368222Y-24950000D01*
X49368162Y-24949683D01*
X49229090Y-24733559D01*
X49016890Y-24588569D01*
X48765000Y-24537560D01*
X47265000Y-24537560D01*
X47029683Y-24581838D01*
X46813559Y-24720910D01*
X46668569Y-24933110D01*
X46665919Y-24946197D01*
X46529090Y-24733559D01*
X46316890Y-24588569D01*
X46065000Y-24537560D01*
X44565000Y-24537560D01*
X44329683Y-24581838D01*
X44113559Y-24720910D01*
X43968569Y-24933110D01*
X43965149Y-24950000D01*
X42872091Y-24950000D01*
X42838162Y-24769683D01*
X42699090Y-24553559D01*
X42486890Y-24408569D01*
X42235000Y-24357560D01*
X40935000Y-24357560D01*
X40699683Y-24401838D01*
X40483559Y-24540910D01*
X40338569Y-24753110D01*
X40316007Y-24864523D01*
X40298162Y-24769683D01*
X40159090Y-24553559D01*
X39946890Y-24408569D01*
X39695000Y-24357560D01*
X38395000Y-24357560D01*
X38159683Y-24401838D01*
X37943559Y-24540910D01*
X37798569Y-24753110D01*
X37774898Y-24870000D01*
X37601005Y-24870000D01*
X37601000Y-24869999D01*
X37262326Y-24937366D01*
X37243418Y-24950000D01*
X36975210Y-25129210D01*
X36975208Y-25129213D01*
X36532440Y-25571980D01*
X36532440Y-25005000D01*
X36488162Y-24769683D01*
X36349090Y-24553559D01*
X36136890Y-24408569D01*
X35885000Y-24357560D01*
X34585000Y-24357560D01*
X34349683Y-24401838D01*
X34133559Y-24540910D01*
X33988569Y-24753110D01*
X33977048Y-24810000D01*
X33672440Y-24810000D01*
X33672440Y-24345000D01*
X33628162Y-24109683D01*
X33489090Y-23893559D01*
X33276890Y-23748569D01*
X33025000Y-23697560D01*
X29825000Y-23697560D01*
X29589683Y-23741838D01*
X29373559Y-23880910D01*
X29228569Y-24093110D01*
X29190118Y-24282986D01*
X28742566Y-23835434D01*
X28612563Y-23748569D01*
X28374346Y-23589397D01*
X27940000Y-23503000D01*
X27803049Y-23503000D01*
X27781162Y-23386683D01*
X27667470Y-23210000D01*
X84790000Y-23210000D01*
X84790000Y-36903278D01*
M02*
