G04 #@! TF.FileFunction,Copper,L2,Bot,Signal*
%FSLAX46Y46*%
G04 Gerber Fmt 4.6, Leading zero omitted, Abs format (unit mm)*
G04 Created by KiCad (PCBNEW 4.0.7) date Sat Jan  5 20:39:28 2019*
%MOMM*%
%LPD*%
G01*
G04 APERTURE LIST*
%ADD10C,0.100000*%
%ADD11R,1.250000X1.500000*%
%ADD12R,1.500000X1.250000*%
%ADD13R,2.032000X1.727200*%
%ADD14O,2.032000X1.727200*%
%ADD15R,2.000000X1.600000*%
%ADD16R,0.800100X1.800860*%
%ADD17R,0.600000X0.700000*%
%ADD18R,2.032000X2.032000*%
%ADD19O,2.032000X2.032000*%
%ADD20R,1.500000X1.300000*%
%ADD21R,1.300000X1.500000*%
%ADD22R,3.200000X2.700000*%
%ADD23R,0.508000X1.143000*%
%ADD24C,0.500000*%
%ADD25C,1.000000*%
%ADD26C,0.254000*%
G04 APERTURE END LIST*
D10*
D11*
X74097000Y-30779000D03*
X74097000Y-28279000D03*
X65750000Y-37000000D03*
X65750000Y-34500000D03*
D12*
X74000000Y-46500000D03*
X71500000Y-46500000D03*
D13*
X78499000Y-28015000D03*
D14*
X78499000Y-30555000D03*
X78499000Y-33095000D03*
X78499000Y-35635000D03*
X78499000Y-38175000D03*
X78499000Y-40715000D03*
X78499000Y-43255000D03*
X78499000Y-45795000D03*
D11*
X35235000Y-42463000D03*
X35235000Y-39963000D03*
X39045000Y-42463000D03*
X39045000Y-39963000D03*
D12*
X61925000Y-41213000D03*
X64425000Y-41213000D03*
D15*
X52285000Y-46801000D03*
X56285000Y-46801000D03*
D11*
X35235000Y-28493000D03*
X35235000Y-25993000D03*
X39045000Y-28493000D03*
X39045000Y-25993000D03*
D12*
X61925000Y-27243000D03*
X64425000Y-27243000D03*
D15*
X52285000Y-33593000D03*
X56285000Y-33593000D03*
D16*
X52695000Y-43984140D03*
X50795000Y-43984140D03*
X51745000Y-40981860D03*
D17*
X60065000Y-46801000D03*
X58665000Y-46801000D03*
D16*
X52695000Y-30014140D03*
X50795000Y-30014140D03*
X51745000Y-27011860D03*
D17*
X60065000Y-33593000D03*
X58665000Y-33593000D03*
D18*
X26162000Y-24638000D03*
D19*
X26162000Y-27178000D03*
D18*
X26162000Y-38862000D03*
D19*
X26162000Y-41402000D03*
D18*
X26250000Y-46000000D03*
D19*
X26250000Y-48540000D03*
D18*
X26250000Y-31750000D03*
D19*
X26250000Y-34290000D03*
D20*
X45315000Y-47563000D03*
X48015000Y-47563000D03*
D21*
X35235000Y-44943000D03*
X35235000Y-47643000D03*
X39045000Y-44943000D03*
X39045000Y-47643000D03*
D20*
X45315000Y-45023000D03*
X48015000Y-45023000D03*
X58175000Y-41213000D03*
X55475000Y-41213000D03*
D22*
X31425000Y-47703000D03*
X31425000Y-39803000D03*
D20*
X58175000Y-43753000D03*
X55475000Y-43753000D03*
X45315000Y-33593000D03*
X48015000Y-33593000D03*
D21*
X35235000Y-30973000D03*
X35235000Y-33673000D03*
X39045000Y-30973000D03*
X39045000Y-33673000D03*
D20*
X45315000Y-31053000D03*
X48015000Y-31053000D03*
X58175000Y-27243000D03*
X55475000Y-27243000D03*
D22*
X31425000Y-33733000D03*
X31425000Y-25833000D03*
D20*
X58175000Y-29783000D03*
X55475000Y-29783000D03*
D23*
X73970000Y-34228000D03*
X72700000Y-34228000D03*
X71430000Y-34228000D03*
X70160000Y-34228000D03*
X70160000Y-40578000D03*
X71430000Y-40578000D03*
X72700000Y-40578000D03*
X73970000Y-40578000D03*
D24*
X74097000Y-28259000D02*
X74097000Y-28279000D01*
X60065000Y-46801000D02*
X60065000Y-46751000D01*
X60065000Y-33593000D02*
X60065000Y-33643000D01*
X51745000Y-40981860D02*
X51745000Y-40197000D01*
X51745000Y-26481000D02*
X51745000Y-27011860D01*
X35075000Y-25833000D02*
X35235000Y-25993000D01*
X35075000Y-39803000D02*
X35235000Y-39963000D01*
X74097000Y-30779000D02*
X78275000Y-30779000D01*
X78275000Y-30779000D02*
X78499000Y-30555000D01*
X73970000Y-34228000D02*
X73970000Y-33500000D01*
X73970000Y-33500000D02*
X73970000Y-30906000D01*
X73970000Y-30906000D02*
X74097000Y-30779000D01*
X39045000Y-47643000D02*
X45235000Y-47643000D01*
X45235000Y-47643000D02*
X45315000Y-47563000D01*
X37267000Y-47055000D02*
X37855000Y-47643000D01*
X37855000Y-47643000D02*
X39045000Y-47643000D01*
X37267000Y-45825000D02*
X37267000Y-47055000D01*
X35235000Y-44943000D02*
X36385000Y-44943000D01*
X36385000Y-44943000D02*
X37267000Y-45825000D01*
X35235000Y-44943000D02*
X35235000Y-42463000D01*
X39045000Y-44943000D02*
X45235000Y-44943000D01*
X45235000Y-44943000D02*
X45315000Y-45023000D01*
X39045000Y-44943000D02*
X39045000Y-42463000D01*
X70287000Y-43245000D02*
X71430000Y-42102000D01*
X71430000Y-42102000D02*
X71430000Y-40578000D01*
X62832000Y-43245000D02*
X70287000Y-43245000D01*
X61925000Y-41213000D02*
X61925000Y-42338000D01*
X61925000Y-42338000D02*
X62832000Y-43245000D01*
X58175000Y-41213000D02*
X61925000Y-41213000D01*
X78499000Y-45795000D02*
X76455000Y-45795000D01*
X75750000Y-46500000D02*
X74000000Y-46500000D01*
X76455000Y-45795000D02*
X75750000Y-46500000D01*
X74000000Y-46500000D02*
X74112000Y-46500000D01*
X73750000Y-48750000D02*
X53269000Y-48833000D01*
X73730000Y-48730000D02*
X73750000Y-48750000D01*
X74000000Y-46500000D02*
X73730000Y-48730000D01*
X52285000Y-47849000D02*
X52285000Y-46801000D01*
X53269000Y-48833000D02*
X52285000Y-47849000D01*
X48015000Y-47563000D02*
X49713000Y-47563000D01*
X49713000Y-47563000D02*
X50475000Y-46801000D01*
X50475000Y-46801000D02*
X52285000Y-46801000D01*
X73970000Y-40578000D02*
X73893000Y-46393000D01*
X58175000Y-43753000D02*
X58175000Y-44903000D01*
X58175000Y-44903000D02*
X58603000Y-45331000D01*
X58603000Y-45331000D02*
X58603000Y-46547000D01*
X56285000Y-46801000D02*
X58665000Y-46801000D01*
X39045000Y-33673000D02*
X45235000Y-33673000D01*
X45235000Y-33673000D02*
X45315000Y-33593000D01*
X37013000Y-33085000D02*
X37601000Y-33673000D01*
X37601000Y-33673000D02*
X39045000Y-33673000D01*
X37013000Y-31601000D02*
X37013000Y-33085000D01*
X35235000Y-30973000D02*
X36385000Y-30973000D01*
X36385000Y-30973000D02*
X37013000Y-31601000D01*
X35235000Y-30973000D02*
X35235000Y-28493000D01*
X39045000Y-30973000D02*
X45235000Y-30973000D01*
X45235000Y-30973000D02*
X45315000Y-31053000D01*
X39045000Y-28493000D02*
X39045000Y-30973000D01*
X70160000Y-34228000D02*
X70160000Y-32450000D01*
X70160000Y-32450000D02*
X68509000Y-30799000D01*
X68509000Y-30799000D02*
X63937000Y-30799000D01*
X63937000Y-30799000D02*
X61925000Y-28787000D01*
X61925000Y-28787000D02*
X61925000Y-27243000D01*
X58175000Y-27243000D02*
X61925000Y-27243000D01*
X78499000Y-43255000D02*
X77005000Y-43255000D01*
X75750000Y-39100000D02*
X72700000Y-36050000D01*
X75750000Y-42000000D02*
X75750000Y-39100000D01*
X77005000Y-43255000D02*
X75750000Y-42000000D01*
X72700000Y-36050000D02*
X72700000Y-34228000D01*
X52285000Y-33593000D02*
X52285000Y-35035000D01*
X54250000Y-37000000D02*
X67250000Y-37000000D01*
X52285000Y-35035000D02*
X54250000Y-37000000D01*
X67250000Y-37000000D02*
X71750000Y-37000000D01*
X71750000Y-37000000D02*
X72700000Y-36050000D01*
X72700000Y-36050000D02*
X72700000Y-34228000D01*
X48015000Y-33593000D02*
X52285000Y-33593000D01*
X58665000Y-33593000D02*
X58665000Y-30273000D01*
X58665000Y-30273000D02*
X58175000Y-29783000D01*
X56285000Y-33593000D02*
X58665000Y-33593000D01*
X55475000Y-43753000D02*
X55475000Y-41213000D01*
X52695000Y-43984140D02*
X55243860Y-43984140D01*
X55243860Y-43984140D02*
X55475000Y-43753000D01*
X50795000Y-43984140D02*
X52695000Y-43984140D01*
X48015000Y-45023000D02*
X49756140Y-45023000D01*
X49756140Y-45023000D02*
X50795000Y-43984140D01*
X55475000Y-29783000D02*
X55475000Y-27243000D01*
X52695000Y-30014140D02*
X55243860Y-30014140D01*
X55243860Y-30014140D02*
X55475000Y-29783000D01*
X50795000Y-30014140D02*
X52695000Y-30014140D01*
X48015000Y-31053000D02*
X49756140Y-31053000D01*
X49756140Y-31053000D02*
X50795000Y-30014140D01*
D25*
X26162000Y-45974000D02*
X27724000Y-45974000D01*
X29453000Y-47703000D02*
X31425000Y-47703000D01*
X27724000Y-45974000D02*
X29453000Y-47703000D01*
D24*
X31425000Y-47703000D02*
X35175000Y-47703000D01*
X35175000Y-47703000D02*
X35235000Y-47643000D01*
D25*
X26162000Y-31750000D02*
X27250000Y-31750000D01*
X29233000Y-33733000D02*
X31425000Y-33733000D01*
X27250000Y-31750000D02*
X29233000Y-33733000D01*
D24*
X31425000Y-33733000D02*
X35175000Y-33733000D01*
X35175000Y-33733000D02*
X35235000Y-33673000D01*
D26*
G36*
X84790000Y-50040000D02*
X26863776Y-50040000D01*
X27218379Y-49877188D01*
X27656385Y-49404818D01*
X27855975Y-48922944D01*
X27736836Y-48667000D01*
X26377000Y-48667000D01*
X26377000Y-48687000D01*
X26123000Y-48687000D01*
X26123000Y-48667000D01*
X26103000Y-48667000D01*
X26103000Y-48413000D01*
X26123000Y-48413000D01*
X26123000Y-48393000D01*
X26377000Y-48393000D01*
X26377000Y-48413000D01*
X27736836Y-48413000D01*
X27855975Y-48157056D01*
X27656385Y-47675182D01*
X27565903Y-47577602D01*
X27661168Y-47516300D01*
X28650434Y-48505566D01*
X29018654Y-48751603D01*
X29177560Y-48783211D01*
X29177560Y-49053000D01*
X29221838Y-49288317D01*
X29360910Y-49504441D01*
X29573110Y-49649431D01*
X29825000Y-49700440D01*
X33025000Y-49700440D01*
X33260317Y-49656162D01*
X33476441Y-49517090D01*
X33621431Y-49304890D01*
X33672440Y-49053000D01*
X33672440Y-48588000D01*
X33974252Y-48588000D01*
X33981838Y-48628317D01*
X34120910Y-48844441D01*
X34333110Y-48989431D01*
X34585000Y-49040440D01*
X35885000Y-49040440D01*
X36120317Y-48996162D01*
X36336441Y-48857090D01*
X36481431Y-48644890D01*
X36532440Y-48393000D01*
X36532440Y-47518003D01*
X36588859Y-47602441D01*
X36641210Y-47680790D01*
X37229208Y-48268787D01*
X37229210Y-48268790D01*
X37421054Y-48396975D01*
X37516326Y-48460634D01*
X37769772Y-48511048D01*
X37791838Y-48628317D01*
X37930910Y-48844441D01*
X38143110Y-48989431D01*
X38395000Y-49040440D01*
X39695000Y-49040440D01*
X39930317Y-48996162D01*
X40146441Y-48857090D01*
X40291431Y-48644890D01*
X40315102Y-48528000D01*
X44013113Y-48528000D01*
X44100910Y-48664441D01*
X44313110Y-48809431D01*
X44565000Y-48860440D01*
X46065000Y-48860440D01*
X46300317Y-48816162D01*
X46516441Y-48677090D01*
X46661431Y-48464890D01*
X46664081Y-48451803D01*
X46800910Y-48664441D01*
X47013110Y-48809431D01*
X47265000Y-48860440D01*
X48765000Y-48860440D01*
X49000317Y-48816162D01*
X49216441Y-48677090D01*
X49361431Y-48464890D01*
X49364851Y-48448000D01*
X49712995Y-48448000D01*
X49713000Y-48448001D01*
X49997918Y-48391326D01*
X50051675Y-48380633D01*
X50338790Y-48188790D01*
X50685528Y-47842051D01*
X50820910Y-48052441D01*
X51033110Y-48197431D01*
X51285000Y-48248440D01*
X51507969Y-48248440D01*
X51641310Y-48448000D01*
X51659210Y-48474790D01*
X52643210Y-49458789D01*
X52644728Y-49459803D01*
X52645751Y-49461321D01*
X52788369Y-49555781D01*
X52930325Y-49650633D01*
X52932117Y-49650989D01*
X52933641Y-49651999D01*
X53101342Y-49684651D01*
X53269000Y-49718001D01*
X53270794Y-49717644D01*
X53272586Y-49717993D01*
X73753586Y-49634993D01*
X73920997Y-49600987D01*
X74088674Y-49567633D01*
X74090193Y-49566618D01*
X74091985Y-49566254D01*
X74233890Y-49470603D01*
X74375789Y-49375789D01*
X74376802Y-49374273D01*
X74378321Y-49373249D01*
X74472857Y-49230517D01*
X74567633Y-49088674D01*
X74567989Y-49086884D01*
X74568999Y-49085359D01*
X74601656Y-48917634D01*
X74635001Y-48750000D01*
X74634644Y-48748206D01*
X74634993Y-48746414D01*
X74625271Y-48698553D01*
X74737401Y-47772440D01*
X74750000Y-47772440D01*
X74985317Y-47728162D01*
X75201441Y-47589090D01*
X75340890Y-47385000D01*
X75749995Y-47385000D01*
X75750000Y-47385001D01*
X76032484Y-47328810D01*
X76088675Y-47317633D01*
X76375790Y-47125790D01*
X76821579Y-46680000D01*
X77137874Y-46680000D01*
X77254585Y-46854670D01*
X77740766Y-47179526D01*
X78314255Y-47293600D01*
X78683745Y-47293600D01*
X79257234Y-47179526D01*
X79743415Y-46854670D01*
X80068271Y-46368489D01*
X80182345Y-45795000D01*
X80068271Y-45221511D01*
X79743415Y-44735330D01*
X79428634Y-44525000D01*
X79743415Y-44314670D01*
X80068271Y-43828489D01*
X80182345Y-43255000D01*
X80068271Y-42681511D01*
X79743415Y-42195330D01*
X79428634Y-41985000D01*
X79743415Y-41774670D01*
X80068271Y-41288489D01*
X80182345Y-40715000D01*
X80068271Y-40141511D01*
X79743415Y-39655330D01*
X79428634Y-39445000D01*
X79743415Y-39234670D01*
X80068271Y-38748489D01*
X80182345Y-38175000D01*
X80068271Y-37601511D01*
X79743415Y-37115330D01*
X79428634Y-36905000D01*
X79743415Y-36694670D01*
X80068271Y-36208489D01*
X80182345Y-35635000D01*
X80068271Y-35061511D01*
X79743415Y-34575330D01*
X79433931Y-34368539D01*
X79849732Y-33997036D01*
X80103709Y-33469791D01*
X80106358Y-33454026D01*
X79985217Y-33222000D01*
X78626000Y-33222000D01*
X78626000Y-33242000D01*
X78372000Y-33242000D01*
X78372000Y-33222000D01*
X77012783Y-33222000D01*
X76891642Y-33454026D01*
X76894291Y-33469791D01*
X77148268Y-33997036D01*
X77564069Y-34368539D01*
X77254585Y-34575330D01*
X76929729Y-35061511D01*
X76815655Y-35635000D01*
X76929729Y-36208489D01*
X77254585Y-36694670D01*
X77569366Y-36905000D01*
X77254585Y-37115330D01*
X76929729Y-37601511D01*
X76815655Y-38175000D01*
X76929729Y-38748489D01*
X77254585Y-39234670D01*
X77569366Y-39445000D01*
X77254585Y-39655330D01*
X76929729Y-40141511D01*
X76815655Y-40715000D01*
X76929729Y-41288489D01*
X77254585Y-41774670D01*
X77569366Y-41985000D01*
X77254585Y-42195330D01*
X77231483Y-42229904D01*
X76635000Y-41633420D01*
X76635000Y-39100000D01*
X76567633Y-38761325D01*
X76375790Y-38474210D01*
X76375787Y-38474208D01*
X73585000Y-35683420D01*
X73585000Y-35420412D01*
X73716000Y-35446940D01*
X74224000Y-35446940D01*
X74459317Y-35402662D01*
X74675441Y-35263590D01*
X74820431Y-35051390D01*
X74871440Y-34799500D01*
X74871440Y-33656500D01*
X74855000Y-33569129D01*
X74855000Y-32151414D01*
X74957317Y-32132162D01*
X75173441Y-31993090D01*
X75318431Y-31780890D01*
X75342102Y-31664000D01*
X77328413Y-31664000D01*
X77564069Y-31821461D01*
X77148268Y-32192964D01*
X76894291Y-32720209D01*
X76891642Y-32735974D01*
X77012783Y-32968000D01*
X78372000Y-32968000D01*
X78372000Y-32948000D01*
X78626000Y-32948000D01*
X78626000Y-32968000D01*
X79985217Y-32968000D01*
X80106358Y-32735974D01*
X80103709Y-32720209D01*
X79849732Y-32192964D01*
X79433931Y-31821461D01*
X79743415Y-31614670D01*
X80068271Y-31128489D01*
X80182345Y-30555000D01*
X80068271Y-29981511D01*
X79743415Y-29495330D01*
X79721220Y-29480500D01*
X79874698Y-29416927D01*
X80053327Y-29238299D01*
X80150000Y-29004910D01*
X80150000Y-28300750D01*
X79991250Y-28142000D01*
X78626000Y-28142000D01*
X78626000Y-28162000D01*
X78372000Y-28162000D01*
X78372000Y-28142000D01*
X77006750Y-28142000D01*
X76848000Y-28300750D01*
X76848000Y-29004910D01*
X76944673Y-29238299D01*
X77123302Y-29416927D01*
X77276780Y-29480500D01*
X77254585Y-29495330D01*
X76988202Y-29894000D01*
X75344038Y-29894000D01*
X75325162Y-29793683D01*
X75186090Y-29577559D01*
X75117994Y-29531031D01*
X75260327Y-29388698D01*
X75357000Y-29155309D01*
X75357000Y-28564750D01*
X75198250Y-28406000D01*
X74224000Y-28406000D01*
X74224000Y-28426000D01*
X73970000Y-28426000D01*
X73970000Y-28406000D01*
X72995750Y-28406000D01*
X72837000Y-28564750D01*
X72837000Y-29155309D01*
X72933673Y-29388698D01*
X73074910Y-29529936D01*
X73020559Y-29564910D01*
X72875569Y-29777110D01*
X72824560Y-30029000D01*
X72824560Y-31529000D01*
X72868838Y-31764317D01*
X73007910Y-31980441D01*
X73085000Y-32033114D01*
X73085000Y-33035588D01*
X72954000Y-33009060D01*
X72446000Y-33009060D01*
X72210683Y-33053338D01*
X72069629Y-33144104D01*
X72043698Y-33118173D01*
X71810309Y-33021500D01*
X71715750Y-33021500D01*
X71557000Y-33180250D01*
X71557000Y-34101000D01*
X71577000Y-34101000D01*
X71577000Y-34355000D01*
X71557000Y-34355000D01*
X71557000Y-35275750D01*
X71715750Y-35434500D01*
X71810309Y-35434500D01*
X71815000Y-35432557D01*
X71815000Y-35683421D01*
X71383420Y-36115000D01*
X66997038Y-36115000D01*
X66978162Y-36014683D01*
X66839090Y-35798559D01*
X66770994Y-35752031D01*
X66913327Y-35609698D01*
X67010000Y-35376309D01*
X67010000Y-34785750D01*
X66851250Y-34627000D01*
X65877000Y-34627000D01*
X65877000Y-34647000D01*
X65623000Y-34647000D01*
X65623000Y-34627000D01*
X64648750Y-34627000D01*
X64490000Y-34785750D01*
X64490000Y-35376309D01*
X64586673Y-35609698D01*
X64727910Y-35750936D01*
X64673559Y-35785910D01*
X64528569Y-35998110D01*
X64504898Y-36115000D01*
X54616579Y-36115000D01*
X53501317Y-34999737D01*
X53520317Y-34996162D01*
X53736441Y-34857090D01*
X53881431Y-34644890D01*
X53932440Y-34393000D01*
X53932440Y-32793000D01*
X53888162Y-32557683D01*
X53749090Y-32341559D01*
X53536890Y-32196569D01*
X53285000Y-32145560D01*
X51285000Y-32145560D01*
X51049683Y-32189838D01*
X50833559Y-32328910D01*
X50688569Y-32541110D01*
X50654773Y-32708000D01*
X49368222Y-32708000D01*
X49368162Y-32707683D01*
X49229090Y-32491559D01*
X49016890Y-32346569D01*
X48905477Y-32324007D01*
X49000317Y-32306162D01*
X49216441Y-32167090D01*
X49361431Y-31954890D01*
X49364851Y-31938000D01*
X49756135Y-31938000D01*
X49756140Y-31938001D01*
X50038624Y-31881810D01*
X50094815Y-31870633D01*
X50381930Y-31678790D01*
X50498710Y-31562010D01*
X51195050Y-31562010D01*
X51430367Y-31517732D01*
X51646491Y-31378660D01*
X51745632Y-31233563D01*
X51830860Y-31366011D01*
X52043060Y-31511001D01*
X52294950Y-31562010D01*
X53095050Y-31562010D01*
X53330367Y-31517732D01*
X53546491Y-31378660D01*
X53691481Y-31166460D01*
X53742490Y-30914570D01*
X53742490Y-30899140D01*
X54282423Y-30899140D01*
X54473110Y-31029431D01*
X54725000Y-31080440D01*
X56225000Y-31080440D01*
X56460317Y-31036162D01*
X56676441Y-30897090D01*
X56821431Y-30684890D01*
X56824081Y-30671803D01*
X56960910Y-30884441D01*
X57173110Y-31029431D01*
X57425000Y-31080440D01*
X57780000Y-31080440D01*
X57780000Y-32389594D01*
X57749090Y-32341559D01*
X57536890Y-32196569D01*
X57285000Y-32145560D01*
X55285000Y-32145560D01*
X55049683Y-32189838D01*
X54833559Y-32328910D01*
X54688569Y-32541110D01*
X54637560Y-32793000D01*
X54637560Y-34393000D01*
X54681838Y-34628317D01*
X54820910Y-34844441D01*
X55033110Y-34989431D01*
X55285000Y-35040440D01*
X57285000Y-35040440D01*
X57520317Y-34996162D01*
X57736441Y-34857090D01*
X57881431Y-34644890D01*
X57915227Y-34478000D01*
X58023203Y-34478000D01*
X58113110Y-34539431D01*
X58365000Y-34590440D01*
X58965000Y-34590440D01*
X59200317Y-34546162D01*
X59364493Y-34440518D01*
X59405302Y-34481327D01*
X59638691Y-34578000D01*
X59779250Y-34578000D01*
X59938000Y-34419250D01*
X59938000Y-33720000D01*
X60192000Y-33720000D01*
X60192000Y-34419250D01*
X60350750Y-34578000D01*
X60491309Y-34578000D01*
X60724698Y-34481327D01*
X60903327Y-34302699D01*
X61000000Y-34069310D01*
X61000000Y-33878750D01*
X60841250Y-33720000D01*
X60192000Y-33720000D01*
X59938000Y-33720000D01*
X59918000Y-33720000D01*
X59918000Y-33623691D01*
X64490000Y-33623691D01*
X64490000Y-34214250D01*
X64648750Y-34373000D01*
X65623000Y-34373000D01*
X65623000Y-33273750D01*
X65877000Y-33273750D01*
X65877000Y-34373000D01*
X66851250Y-34373000D01*
X67010000Y-34214250D01*
X67010000Y-33623691D01*
X66913327Y-33390302D01*
X66734699Y-33211673D01*
X66501310Y-33115000D01*
X66035750Y-33115000D01*
X65877000Y-33273750D01*
X65623000Y-33273750D01*
X65464250Y-33115000D01*
X64998690Y-33115000D01*
X64765301Y-33211673D01*
X64586673Y-33390302D01*
X64490000Y-33623691D01*
X59918000Y-33623691D01*
X59918000Y-33466000D01*
X59938000Y-33466000D01*
X59938000Y-32766750D01*
X60192000Y-32766750D01*
X60192000Y-33466000D01*
X60841250Y-33466000D01*
X61000000Y-33307250D01*
X61000000Y-33116690D01*
X60903327Y-32883301D01*
X60724698Y-32704673D01*
X60491309Y-32608000D01*
X60350750Y-32608000D01*
X60192000Y-32766750D01*
X59938000Y-32766750D01*
X59779250Y-32608000D01*
X59638691Y-32608000D01*
X59550000Y-32644737D01*
X59550000Y-30543812D01*
X59572440Y-30433000D01*
X59572440Y-29133000D01*
X59528162Y-28897683D01*
X59389090Y-28681559D01*
X59176890Y-28536569D01*
X59065477Y-28514007D01*
X59160317Y-28496162D01*
X59376441Y-28357090D01*
X59521431Y-28144890D01*
X59524851Y-28128000D01*
X60587721Y-28128000D01*
X60710910Y-28319441D01*
X60923110Y-28464431D01*
X61040000Y-28488102D01*
X61040000Y-28786995D01*
X61039999Y-28787000D01*
X61083345Y-29004910D01*
X61107367Y-29125675D01*
X61182620Y-29238299D01*
X61299210Y-29412790D01*
X63311208Y-31424787D01*
X63311210Y-31424790D01*
X63598325Y-31616633D01*
X63654516Y-31627810D01*
X63937000Y-31684001D01*
X63937005Y-31684000D01*
X68142420Y-31684000D01*
X69275000Y-32816579D01*
X69275000Y-33575317D01*
X69258560Y-33656500D01*
X69258560Y-34799500D01*
X69302838Y-35034817D01*
X69441910Y-35250941D01*
X69654110Y-35395931D01*
X69906000Y-35446940D01*
X70414000Y-35446940D01*
X70649317Y-35402662D01*
X70790371Y-35311896D01*
X70816302Y-35337827D01*
X71049691Y-35434500D01*
X71144250Y-35434500D01*
X71303000Y-35275750D01*
X71303000Y-34355000D01*
X71283000Y-34355000D01*
X71283000Y-34101000D01*
X71303000Y-34101000D01*
X71303000Y-33180250D01*
X71144250Y-33021500D01*
X71049691Y-33021500D01*
X71045000Y-33023443D01*
X71045000Y-32450005D01*
X71045001Y-32450000D01*
X70977634Y-32111326D01*
X70898631Y-31993090D01*
X70785790Y-31824210D01*
X70785787Y-31824208D01*
X69134790Y-30173210D01*
X69057660Y-30121674D01*
X68847675Y-29981367D01*
X68791484Y-29970190D01*
X68509000Y-29913999D01*
X68508995Y-29914000D01*
X64303579Y-29914000D01*
X62868593Y-28479013D01*
X62910317Y-28471162D01*
X63126441Y-28332090D01*
X63172969Y-28263994D01*
X63315302Y-28406327D01*
X63548691Y-28503000D01*
X64139250Y-28503000D01*
X64298000Y-28344250D01*
X64298000Y-27370000D01*
X64552000Y-27370000D01*
X64552000Y-28344250D01*
X64710750Y-28503000D01*
X65301309Y-28503000D01*
X65534698Y-28406327D01*
X65713327Y-28227699D01*
X65810000Y-27994310D01*
X65810000Y-27528750D01*
X65683941Y-27402691D01*
X72837000Y-27402691D01*
X72837000Y-27993250D01*
X72995750Y-28152000D01*
X73970000Y-28152000D01*
X73970000Y-27052750D01*
X74224000Y-27052750D01*
X74224000Y-28152000D01*
X75198250Y-28152000D01*
X75357000Y-27993250D01*
X75357000Y-27402691D01*
X75260327Y-27169302D01*
X75116116Y-27025090D01*
X76848000Y-27025090D01*
X76848000Y-27729250D01*
X77006750Y-27888000D01*
X78372000Y-27888000D01*
X78372000Y-26675150D01*
X78626000Y-26675150D01*
X78626000Y-27888000D01*
X79991250Y-27888000D01*
X80150000Y-27729250D01*
X80150000Y-27025090D01*
X80053327Y-26791701D01*
X79874698Y-26613073D01*
X79641309Y-26516400D01*
X78784750Y-26516400D01*
X78626000Y-26675150D01*
X78372000Y-26675150D01*
X78213250Y-26516400D01*
X77356691Y-26516400D01*
X77123302Y-26613073D01*
X76944673Y-26791701D01*
X76848000Y-27025090D01*
X75116116Y-27025090D01*
X75081699Y-26990673D01*
X74848310Y-26894000D01*
X74382750Y-26894000D01*
X74224000Y-27052750D01*
X73970000Y-27052750D01*
X73811250Y-26894000D01*
X73345690Y-26894000D01*
X73112301Y-26990673D01*
X72933673Y-27169302D01*
X72837000Y-27402691D01*
X65683941Y-27402691D01*
X65651250Y-27370000D01*
X64552000Y-27370000D01*
X64298000Y-27370000D01*
X64278000Y-27370000D01*
X64278000Y-27116000D01*
X64298000Y-27116000D01*
X64298000Y-26141750D01*
X64552000Y-26141750D01*
X64552000Y-27116000D01*
X65651250Y-27116000D01*
X65810000Y-26957250D01*
X65810000Y-26491690D01*
X65713327Y-26258301D01*
X65534698Y-26079673D01*
X65301309Y-25983000D01*
X64710750Y-25983000D01*
X64552000Y-26141750D01*
X64298000Y-26141750D01*
X64139250Y-25983000D01*
X63548691Y-25983000D01*
X63315302Y-26079673D01*
X63174064Y-26220910D01*
X63139090Y-26166559D01*
X62926890Y-26021569D01*
X62675000Y-25970560D01*
X61175000Y-25970560D01*
X60939683Y-26014838D01*
X60723559Y-26153910D01*
X60584110Y-26358000D01*
X59528222Y-26358000D01*
X59528162Y-26357683D01*
X59389090Y-26141559D01*
X59176890Y-25996569D01*
X58925000Y-25945560D01*
X57425000Y-25945560D01*
X57189683Y-25989838D01*
X56973559Y-26128910D01*
X56828569Y-26341110D01*
X56825919Y-26354197D01*
X56689090Y-26141559D01*
X56476890Y-25996569D01*
X56225000Y-25945560D01*
X54725000Y-25945560D01*
X54489683Y-25989838D01*
X54273559Y-26128910D01*
X54128569Y-26341110D01*
X54077560Y-26593000D01*
X54077560Y-27893000D01*
X54121838Y-28128317D01*
X54260910Y-28344441D01*
X54473110Y-28489431D01*
X54584523Y-28511993D01*
X54489683Y-28529838D01*
X54273559Y-28668910D01*
X54128569Y-28881110D01*
X54078342Y-29129140D01*
X53742490Y-29129140D01*
X53742490Y-29113710D01*
X53698212Y-28878393D01*
X53559140Y-28662269D01*
X53346940Y-28517279D01*
X53095050Y-28466270D01*
X52466958Y-28466270D01*
X52504748Y-28450617D01*
X52683377Y-28271989D01*
X52780050Y-28038600D01*
X52780050Y-27297610D01*
X52621300Y-27138860D01*
X51872000Y-27138860D01*
X51872000Y-28388540D01*
X52019703Y-28536243D01*
X51843509Y-28649620D01*
X51744368Y-28794717D01*
X51659140Y-28662269D01*
X51472082Y-28534458D01*
X51618000Y-28388540D01*
X51618000Y-27138860D01*
X50868700Y-27138860D01*
X50709950Y-27297610D01*
X50709950Y-28038600D01*
X50806623Y-28271989D01*
X50985252Y-28450617D01*
X51023042Y-28466270D01*
X50394950Y-28466270D01*
X50159633Y-28510548D01*
X49943509Y-28649620D01*
X49798519Y-28861820D01*
X49747510Y-29113710D01*
X49747510Y-29810051D01*
X49389560Y-30168000D01*
X49368222Y-30168000D01*
X49368162Y-30167683D01*
X49229090Y-29951559D01*
X49016890Y-29806569D01*
X48765000Y-29755560D01*
X47265000Y-29755560D01*
X47029683Y-29799838D01*
X46813559Y-29938910D01*
X46668569Y-30151110D01*
X46665919Y-30164197D01*
X46529090Y-29951559D01*
X46316890Y-29806569D01*
X46065000Y-29755560D01*
X44565000Y-29755560D01*
X44329683Y-29799838D01*
X44113559Y-29938910D01*
X44011690Y-30088000D01*
X40317038Y-30088000D01*
X40298162Y-29987683D01*
X40159090Y-29771559D01*
X40092238Y-29725881D01*
X40121441Y-29707090D01*
X40266431Y-29494890D01*
X40317440Y-29243000D01*
X40317440Y-27743000D01*
X40273162Y-27507683D01*
X40134090Y-27291559D01*
X40065994Y-27245031D01*
X40208327Y-27102698D01*
X40305000Y-26869309D01*
X40305000Y-26278750D01*
X40146250Y-26120000D01*
X39172000Y-26120000D01*
X39172000Y-26140000D01*
X38918000Y-26140000D01*
X38918000Y-26120000D01*
X37943750Y-26120000D01*
X37785000Y-26278750D01*
X37785000Y-26869309D01*
X37881673Y-27102698D01*
X38022910Y-27243936D01*
X37968559Y-27278910D01*
X37823569Y-27491110D01*
X37772560Y-27743000D01*
X37772560Y-29243000D01*
X37816838Y-29478317D01*
X37955910Y-29694441D01*
X37998511Y-29723549D01*
X37943559Y-29758910D01*
X37798569Y-29971110D01*
X37747560Y-30223000D01*
X37747560Y-31137997D01*
X37638790Y-30975210D01*
X37638787Y-30975208D01*
X37010790Y-30347210D01*
X36914032Y-30282559D01*
X36723675Y-30155367D01*
X36634199Y-30137569D01*
X36511783Y-30113218D01*
X36488162Y-29987683D01*
X36349090Y-29771559D01*
X36282238Y-29725881D01*
X36311441Y-29707090D01*
X36456431Y-29494890D01*
X36507440Y-29243000D01*
X36507440Y-27743000D01*
X36463162Y-27507683D01*
X36324090Y-27291559D01*
X36255994Y-27245031D01*
X36398327Y-27102698D01*
X36495000Y-26869309D01*
X36495000Y-26278750D01*
X36336250Y-26120000D01*
X35362000Y-26120000D01*
X35362000Y-26140000D01*
X35108000Y-26140000D01*
X35108000Y-26120000D01*
X34133750Y-26120000D01*
X33975000Y-26278750D01*
X33975000Y-26869309D01*
X34071673Y-27102698D01*
X34212910Y-27243936D01*
X34158559Y-27278910D01*
X34013569Y-27491110D01*
X33962560Y-27743000D01*
X33962560Y-29243000D01*
X34006838Y-29478317D01*
X34145910Y-29694441D01*
X34188511Y-29723549D01*
X34133559Y-29758910D01*
X33988569Y-29971110D01*
X33937560Y-30223000D01*
X33937560Y-31723000D01*
X33981838Y-31958317D01*
X34120910Y-32174441D01*
X34333110Y-32319431D01*
X34346197Y-32322081D01*
X34133559Y-32458910D01*
X33988569Y-32671110D01*
X33952748Y-32848000D01*
X33672440Y-32848000D01*
X33672440Y-32383000D01*
X33628162Y-32147683D01*
X33489090Y-31931559D01*
X33276890Y-31786569D01*
X33025000Y-31735560D01*
X29825000Y-31735560D01*
X29589683Y-31779838D01*
X29373559Y-31918910D01*
X29231684Y-32126551D01*
X28052566Y-30947434D01*
X27913440Y-30854473D01*
X27913440Y-30734000D01*
X27869162Y-30498683D01*
X27730090Y-30282559D01*
X27517890Y-30137569D01*
X27266000Y-30086560D01*
X25234000Y-30086560D01*
X24998683Y-30130838D01*
X24782559Y-30269910D01*
X24710000Y-30376104D01*
X24710000Y-27932689D01*
X24755615Y-28042818D01*
X25193621Y-28515188D01*
X25779054Y-28783983D01*
X26035000Y-28665367D01*
X26035000Y-27305000D01*
X26289000Y-27305000D01*
X26289000Y-28665367D01*
X26544946Y-28783983D01*
X27130379Y-28515188D01*
X27568385Y-28042818D01*
X27767975Y-27560944D01*
X27648836Y-27305000D01*
X26289000Y-27305000D01*
X26035000Y-27305000D01*
X26015000Y-27305000D01*
X26015000Y-27051000D01*
X26035000Y-27051000D01*
X26035000Y-27031000D01*
X26289000Y-27031000D01*
X26289000Y-27051000D01*
X27648836Y-27051000D01*
X27767975Y-26795056D01*
X27568385Y-26313182D01*
X27477903Y-26215602D01*
X27628415Y-26118750D01*
X29190000Y-26118750D01*
X29190000Y-27309309D01*
X29286673Y-27542698D01*
X29465301Y-27721327D01*
X29698690Y-27818000D01*
X31139250Y-27818000D01*
X31298000Y-27659250D01*
X31298000Y-25960000D01*
X31552000Y-25960000D01*
X31552000Y-27659250D01*
X31710750Y-27818000D01*
X33151310Y-27818000D01*
X33384699Y-27721327D01*
X33563327Y-27542698D01*
X33660000Y-27309309D01*
X33660000Y-26118750D01*
X33526370Y-25985120D01*
X50709950Y-25985120D01*
X50709950Y-26726110D01*
X50868700Y-26884860D01*
X51618000Y-26884860D01*
X51618000Y-25635180D01*
X51872000Y-25635180D01*
X51872000Y-26884860D01*
X52621300Y-26884860D01*
X52780050Y-26726110D01*
X52780050Y-25985120D01*
X52683377Y-25751731D01*
X52504748Y-25573103D01*
X52271359Y-25476430D01*
X52030750Y-25476430D01*
X51872000Y-25635180D01*
X51618000Y-25635180D01*
X51459250Y-25476430D01*
X51218641Y-25476430D01*
X50985252Y-25573103D01*
X50806623Y-25751731D01*
X50709950Y-25985120D01*
X33526370Y-25985120D01*
X33501250Y-25960000D01*
X31552000Y-25960000D01*
X31298000Y-25960000D01*
X29348750Y-25960000D01*
X29190000Y-26118750D01*
X27628415Y-26118750D01*
X27629441Y-26118090D01*
X27774431Y-25905890D01*
X27825440Y-25654000D01*
X27825440Y-24356691D01*
X29190000Y-24356691D01*
X29190000Y-25547250D01*
X29348750Y-25706000D01*
X31298000Y-25706000D01*
X31298000Y-24006750D01*
X31552000Y-24006750D01*
X31552000Y-25706000D01*
X33501250Y-25706000D01*
X33660000Y-25547250D01*
X33660000Y-25116691D01*
X33975000Y-25116691D01*
X33975000Y-25707250D01*
X34133750Y-25866000D01*
X35108000Y-25866000D01*
X35108000Y-24766750D01*
X35362000Y-24766750D01*
X35362000Y-25866000D01*
X36336250Y-25866000D01*
X36495000Y-25707250D01*
X36495000Y-25116691D01*
X37785000Y-25116691D01*
X37785000Y-25707250D01*
X37943750Y-25866000D01*
X38918000Y-25866000D01*
X38918000Y-24766750D01*
X39172000Y-24766750D01*
X39172000Y-25866000D01*
X40146250Y-25866000D01*
X40305000Y-25707250D01*
X40305000Y-25116691D01*
X40208327Y-24883302D01*
X40029699Y-24704673D01*
X39796310Y-24608000D01*
X39330750Y-24608000D01*
X39172000Y-24766750D01*
X38918000Y-24766750D01*
X38759250Y-24608000D01*
X38293690Y-24608000D01*
X38060301Y-24704673D01*
X37881673Y-24883302D01*
X37785000Y-25116691D01*
X36495000Y-25116691D01*
X36398327Y-24883302D01*
X36219699Y-24704673D01*
X35986310Y-24608000D01*
X35520750Y-24608000D01*
X35362000Y-24766750D01*
X35108000Y-24766750D01*
X34949250Y-24608000D01*
X34483690Y-24608000D01*
X34250301Y-24704673D01*
X34071673Y-24883302D01*
X33975000Y-25116691D01*
X33660000Y-25116691D01*
X33660000Y-24356691D01*
X33563327Y-24123302D01*
X33384699Y-23944673D01*
X33151310Y-23848000D01*
X31710750Y-23848000D01*
X31552000Y-24006750D01*
X31298000Y-24006750D01*
X31139250Y-23848000D01*
X29698690Y-23848000D01*
X29465301Y-23944673D01*
X29286673Y-24123302D01*
X29190000Y-24356691D01*
X27825440Y-24356691D01*
X27825440Y-23622000D01*
X27781162Y-23386683D01*
X27667470Y-23210000D01*
X84790000Y-23210000D01*
X84790000Y-50040000D01*
X84790000Y-50040000D01*
G37*
X84790000Y-50040000D02*
X26863776Y-50040000D01*
X27218379Y-49877188D01*
X27656385Y-49404818D01*
X27855975Y-48922944D01*
X27736836Y-48667000D01*
X26377000Y-48667000D01*
X26377000Y-48687000D01*
X26123000Y-48687000D01*
X26123000Y-48667000D01*
X26103000Y-48667000D01*
X26103000Y-48413000D01*
X26123000Y-48413000D01*
X26123000Y-48393000D01*
X26377000Y-48393000D01*
X26377000Y-48413000D01*
X27736836Y-48413000D01*
X27855975Y-48157056D01*
X27656385Y-47675182D01*
X27565903Y-47577602D01*
X27661168Y-47516300D01*
X28650434Y-48505566D01*
X29018654Y-48751603D01*
X29177560Y-48783211D01*
X29177560Y-49053000D01*
X29221838Y-49288317D01*
X29360910Y-49504441D01*
X29573110Y-49649431D01*
X29825000Y-49700440D01*
X33025000Y-49700440D01*
X33260317Y-49656162D01*
X33476441Y-49517090D01*
X33621431Y-49304890D01*
X33672440Y-49053000D01*
X33672440Y-48588000D01*
X33974252Y-48588000D01*
X33981838Y-48628317D01*
X34120910Y-48844441D01*
X34333110Y-48989431D01*
X34585000Y-49040440D01*
X35885000Y-49040440D01*
X36120317Y-48996162D01*
X36336441Y-48857090D01*
X36481431Y-48644890D01*
X36532440Y-48393000D01*
X36532440Y-47518003D01*
X36588859Y-47602441D01*
X36641210Y-47680790D01*
X37229208Y-48268787D01*
X37229210Y-48268790D01*
X37421054Y-48396975D01*
X37516326Y-48460634D01*
X37769772Y-48511048D01*
X37791838Y-48628317D01*
X37930910Y-48844441D01*
X38143110Y-48989431D01*
X38395000Y-49040440D01*
X39695000Y-49040440D01*
X39930317Y-48996162D01*
X40146441Y-48857090D01*
X40291431Y-48644890D01*
X40315102Y-48528000D01*
X44013113Y-48528000D01*
X44100910Y-48664441D01*
X44313110Y-48809431D01*
X44565000Y-48860440D01*
X46065000Y-48860440D01*
X46300317Y-48816162D01*
X46516441Y-48677090D01*
X46661431Y-48464890D01*
X46664081Y-48451803D01*
X46800910Y-48664441D01*
X47013110Y-48809431D01*
X47265000Y-48860440D01*
X48765000Y-48860440D01*
X49000317Y-48816162D01*
X49216441Y-48677090D01*
X49361431Y-48464890D01*
X49364851Y-48448000D01*
X49712995Y-48448000D01*
X49713000Y-48448001D01*
X49997918Y-48391326D01*
X50051675Y-48380633D01*
X50338790Y-48188790D01*
X50685528Y-47842051D01*
X50820910Y-48052441D01*
X51033110Y-48197431D01*
X51285000Y-48248440D01*
X51507969Y-48248440D01*
X51641310Y-48448000D01*
X51659210Y-48474790D01*
X52643210Y-49458789D01*
X52644728Y-49459803D01*
X52645751Y-49461321D01*
X52788369Y-49555781D01*
X52930325Y-49650633D01*
X52932117Y-49650989D01*
X52933641Y-49651999D01*
X53101342Y-49684651D01*
X53269000Y-49718001D01*
X53270794Y-49717644D01*
X53272586Y-49717993D01*
X73753586Y-49634993D01*
X73920997Y-49600987D01*
X74088674Y-49567633D01*
X74090193Y-49566618D01*
X74091985Y-49566254D01*
X74233890Y-49470603D01*
X74375789Y-49375789D01*
X74376802Y-49374273D01*
X74378321Y-49373249D01*
X74472857Y-49230517D01*
X74567633Y-49088674D01*
X74567989Y-49086884D01*
X74568999Y-49085359D01*
X74601656Y-48917634D01*
X74635001Y-48750000D01*
X74634644Y-48748206D01*
X74634993Y-48746414D01*
X74625271Y-48698553D01*
X74737401Y-47772440D01*
X74750000Y-47772440D01*
X74985317Y-47728162D01*
X75201441Y-47589090D01*
X75340890Y-47385000D01*
X75749995Y-47385000D01*
X75750000Y-47385001D01*
X76032484Y-47328810D01*
X76088675Y-47317633D01*
X76375790Y-47125790D01*
X76821579Y-46680000D01*
X77137874Y-46680000D01*
X77254585Y-46854670D01*
X77740766Y-47179526D01*
X78314255Y-47293600D01*
X78683745Y-47293600D01*
X79257234Y-47179526D01*
X79743415Y-46854670D01*
X80068271Y-46368489D01*
X80182345Y-45795000D01*
X80068271Y-45221511D01*
X79743415Y-44735330D01*
X79428634Y-44525000D01*
X79743415Y-44314670D01*
X80068271Y-43828489D01*
X80182345Y-43255000D01*
X80068271Y-42681511D01*
X79743415Y-42195330D01*
X79428634Y-41985000D01*
X79743415Y-41774670D01*
X80068271Y-41288489D01*
X80182345Y-40715000D01*
X80068271Y-40141511D01*
X79743415Y-39655330D01*
X79428634Y-39445000D01*
X79743415Y-39234670D01*
X80068271Y-38748489D01*
X80182345Y-38175000D01*
X80068271Y-37601511D01*
X79743415Y-37115330D01*
X79428634Y-36905000D01*
X79743415Y-36694670D01*
X80068271Y-36208489D01*
X80182345Y-35635000D01*
X80068271Y-35061511D01*
X79743415Y-34575330D01*
X79433931Y-34368539D01*
X79849732Y-33997036D01*
X80103709Y-33469791D01*
X80106358Y-33454026D01*
X79985217Y-33222000D01*
X78626000Y-33222000D01*
X78626000Y-33242000D01*
X78372000Y-33242000D01*
X78372000Y-33222000D01*
X77012783Y-33222000D01*
X76891642Y-33454026D01*
X76894291Y-33469791D01*
X77148268Y-33997036D01*
X77564069Y-34368539D01*
X77254585Y-34575330D01*
X76929729Y-35061511D01*
X76815655Y-35635000D01*
X76929729Y-36208489D01*
X77254585Y-36694670D01*
X77569366Y-36905000D01*
X77254585Y-37115330D01*
X76929729Y-37601511D01*
X76815655Y-38175000D01*
X76929729Y-38748489D01*
X77254585Y-39234670D01*
X77569366Y-39445000D01*
X77254585Y-39655330D01*
X76929729Y-40141511D01*
X76815655Y-40715000D01*
X76929729Y-41288489D01*
X77254585Y-41774670D01*
X77569366Y-41985000D01*
X77254585Y-42195330D01*
X77231483Y-42229904D01*
X76635000Y-41633420D01*
X76635000Y-39100000D01*
X76567633Y-38761325D01*
X76375790Y-38474210D01*
X76375787Y-38474208D01*
X73585000Y-35683420D01*
X73585000Y-35420412D01*
X73716000Y-35446940D01*
X74224000Y-35446940D01*
X74459317Y-35402662D01*
X74675441Y-35263590D01*
X74820431Y-35051390D01*
X74871440Y-34799500D01*
X74871440Y-33656500D01*
X74855000Y-33569129D01*
X74855000Y-32151414D01*
X74957317Y-32132162D01*
X75173441Y-31993090D01*
X75318431Y-31780890D01*
X75342102Y-31664000D01*
X77328413Y-31664000D01*
X77564069Y-31821461D01*
X77148268Y-32192964D01*
X76894291Y-32720209D01*
X76891642Y-32735974D01*
X77012783Y-32968000D01*
X78372000Y-32968000D01*
X78372000Y-32948000D01*
X78626000Y-32948000D01*
X78626000Y-32968000D01*
X79985217Y-32968000D01*
X80106358Y-32735974D01*
X80103709Y-32720209D01*
X79849732Y-32192964D01*
X79433931Y-31821461D01*
X79743415Y-31614670D01*
X80068271Y-31128489D01*
X80182345Y-30555000D01*
X80068271Y-29981511D01*
X79743415Y-29495330D01*
X79721220Y-29480500D01*
X79874698Y-29416927D01*
X80053327Y-29238299D01*
X80150000Y-29004910D01*
X80150000Y-28300750D01*
X79991250Y-28142000D01*
X78626000Y-28142000D01*
X78626000Y-28162000D01*
X78372000Y-28162000D01*
X78372000Y-28142000D01*
X77006750Y-28142000D01*
X76848000Y-28300750D01*
X76848000Y-29004910D01*
X76944673Y-29238299D01*
X77123302Y-29416927D01*
X77276780Y-29480500D01*
X77254585Y-29495330D01*
X76988202Y-29894000D01*
X75344038Y-29894000D01*
X75325162Y-29793683D01*
X75186090Y-29577559D01*
X75117994Y-29531031D01*
X75260327Y-29388698D01*
X75357000Y-29155309D01*
X75357000Y-28564750D01*
X75198250Y-28406000D01*
X74224000Y-28406000D01*
X74224000Y-28426000D01*
X73970000Y-28426000D01*
X73970000Y-28406000D01*
X72995750Y-28406000D01*
X72837000Y-28564750D01*
X72837000Y-29155309D01*
X72933673Y-29388698D01*
X73074910Y-29529936D01*
X73020559Y-29564910D01*
X72875569Y-29777110D01*
X72824560Y-30029000D01*
X72824560Y-31529000D01*
X72868838Y-31764317D01*
X73007910Y-31980441D01*
X73085000Y-32033114D01*
X73085000Y-33035588D01*
X72954000Y-33009060D01*
X72446000Y-33009060D01*
X72210683Y-33053338D01*
X72069629Y-33144104D01*
X72043698Y-33118173D01*
X71810309Y-33021500D01*
X71715750Y-33021500D01*
X71557000Y-33180250D01*
X71557000Y-34101000D01*
X71577000Y-34101000D01*
X71577000Y-34355000D01*
X71557000Y-34355000D01*
X71557000Y-35275750D01*
X71715750Y-35434500D01*
X71810309Y-35434500D01*
X71815000Y-35432557D01*
X71815000Y-35683421D01*
X71383420Y-36115000D01*
X66997038Y-36115000D01*
X66978162Y-36014683D01*
X66839090Y-35798559D01*
X66770994Y-35752031D01*
X66913327Y-35609698D01*
X67010000Y-35376309D01*
X67010000Y-34785750D01*
X66851250Y-34627000D01*
X65877000Y-34627000D01*
X65877000Y-34647000D01*
X65623000Y-34647000D01*
X65623000Y-34627000D01*
X64648750Y-34627000D01*
X64490000Y-34785750D01*
X64490000Y-35376309D01*
X64586673Y-35609698D01*
X64727910Y-35750936D01*
X64673559Y-35785910D01*
X64528569Y-35998110D01*
X64504898Y-36115000D01*
X54616579Y-36115000D01*
X53501317Y-34999737D01*
X53520317Y-34996162D01*
X53736441Y-34857090D01*
X53881431Y-34644890D01*
X53932440Y-34393000D01*
X53932440Y-32793000D01*
X53888162Y-32557683D01*
X53749090Y-32341559D01*
X53536890Y-32196569D01*
X53285000Y-32145560D01*
X51285000Y-32145560D01*
X51049683Y-32189838D01*
X50833559Y-32328910D01*
X50688569Y-32541110D01*
X50654773Y-32708000D01*
X49368222Y-32708000D01*
X49368162Y-32707683D01*
X49229090Y-32491559D01*
X49016890Y-32346569D01*
X48905477Y-32324007D01*
X49000317Y-32306162D01*
X49216441Y-32167090D01*
X49361431Y-31954890D01*
X49364851Y-31938000D01*
X49756135Y-31938000D01*
X49756140Y-31938001D01*
X50038624Y-31881810D01*
X50094815Y-31870633D01*
X50381930Y-31678790D01*
X50498710Y-31562010D01*
X51195050Y-31562010D01*
X51430367Y-31517732D01*
X51646491Y-31378660D01*
X51745632Y-31233563D01*
X51830860Y-31366011D01*
X52043060Y-31511001D01*
X52294950Y-31562010D01*
X53095050Y-31562010D01*
X53330367Y-31517732D01*
X53546491Y-31378660D01*
X53691481Y-31166460D01*
X53742490Y-30914570D01*
X53742490Y-30899140D01*
X54282423Y-30899140D01*
X54473110Y-31029431D01*
X54725000Y-31080440D01*
X56225000Y-31080440D01*
X56460317Y-31036162D01*
X56676441Y-30897090D01*
X56821431Y-30684890D01*
X56824081Y-30671803D01*
X56960910Y-30884441D01*
X57173110Y-31029431D01*
X57425000Y-31080440D01*
X57780000Y-31080440D01*
X57780000Y-32389594D01*
X57749090Y-32341559D01*
X57536890Y-32196569D01*
X57285000Y-32145560D01*
X55285000Y-32145560D01*
X55049683Y-32189838D01*
X54833559Y-32328910D01*
X54688569Y-32541110D01*
X54637560Y-32793000D01*
X54637560Y-34393000D01*
X54681838Y-34628317D01*
X54820910Y-34844441D01*
X55033110Y-34989431D01*
X55285000Y-35040440D01*
X57285000Y-35040440D01*
X57520317Y-34996162D01*
X57736441Y-34857090D01*
X57881431Y-34644890D01*
X57915227Y-34478000D01*
X58023203Y-34478000D01*
X58113110Y-34539431D01*
X58365000Y-34590440D01*
X58965000Y-34590440D01*
X59200317Y-34546162D01*
X59364493Y-34440518D01*
X59405302Y-34481327D01*
X59638691Y-34578000D01*
X59779250Y-34578000D01*
X59938000Y-34419250D01*
X59938000Y-33720000D01*
X60192000Y-33720000D01*
X60192000Y-34419250D01*
X60350750Y-34578000D01*
X60491309Y-34578000D01*
X60724698Y-34481327D01*
X60903327Y-34302699D01*
X61000000Y-34069310D01*
X61000000Y-33878750D01*
X60841250Y-33720000D01*
X60192000Y-33720000D01*
X59938000Y-33720000D01*
X59918000Y-33720000D01*
X59918000Y-33623691D01*
X64490000Y-33623691D01*
X64490000Y-34214250D01*
X64648750Y-34373000D01*
X65623000Y-34373000D01*
X65623000Y-33273750D01*
X65877000Y-33273750D01*
X65877000Y-34373000D01*
X66851250Y-34373000D01*
X67010000Y-34214250D01*
X67010000Y-33623691D01*
X66913327Y-33390302D01*
X66734699Y-33211673D01*
X66501310Y-33115000D01*
X66035750Y-33115000D01*
X65877000Y-33273750D01*
X65623000Y-33273750D01*
X65464250Y-33115000D01*
X64998690Y-33115000D01*
X64765301Y-33211673D01*
X64586673Y-33390302D01*
X64490000Y-33623691D01*
X59918000Y-33623691D01*
X59918000Y-33466000D01*
X59938000Y-33466000D01*
X59938000Y-32766750D01*
X60192000Y-32766750D01*
X60192000Y-33466000D01*
X60841250Y-33466000D01*
X61000000Y-33307250D01*
X61000000Y-33116690D01*
X60903327Y-32883301D01*
X60724698Y-32704673D01*
X60491309Y-32608000D01*
X60350750Y-32608000D01*
X60192000Y-32766750D01*
X59938000Y-32766750D01*
X59779250Y-32608000D01*
X59638691Y-32608000D01*
X59550000Y-32644737D01*
X59550000Y-30543812D01*
X59572440Y-30433000D01*
X59572440Y-29133000D01*
X59528162Y-28897683D01*
X59389090Y-28681559D01*
X59176890Y-28536569D01*
X59065477Y-28514007D01*
X59160317Y-28496162D01*
X59376441Y-28357090D01*
X59521431Y-28144890D01*
X59524851Y-28128000D01*
X60587721Y-28128000D01*
X60710910Y-28319441D01*
X60923110Y-28464431D01*
X61040000Y-28488102D01*
X61040000Y-28786995D01*
X61039999Y-28787000D01*
X61083345Y-29004910D01*
X61107367Y-29125675D01*
X61182620Y-29238299D01*
X61299210Y-29412790D01*
X63311208Y-31424787D01*
X63311210Y-31424790D01*
X63598325Y-31616633D01*
X63654516Y-31627810D01*
X63937000Y-31684001D01*
X63937005Y-31684000D01*
X68142420Y-31684000D01*
X69275000Y-32816579D01*
X69275000Y-33575317D01*
X69258560Y-33656500D01*
X69258560Y-34799500D01*
X69302838Y-35034817D01*
X69441910Y-35250941D01*
X69654110Y-35395931D01*
X69906000Y-35446940D01*
X70414000Y-35446940D01*
X70649317Y-35402662D01*
X70790371Y-35311896D01*
X70816302Y-35337827D01*
X71049691Y-35434500D01*
X71144250Y-35434500D01*
X71303000Y-35275750D01*
X71303000Y-34355000D01*
X71283000Y-34355000D01*
X71283000Y-34101000D01*
X71303000Y-34101000D01*
X71303000Y-33180250D01*
X71144250Y-33021500D01*
X71049691Y-33021500D01*
X71045000Y-33023443D01*
X71045000Y-32450005D01*
X71045001Y-32450000D01*
X70977634Y-32111326D01*
X70898631Y-31993090D01*
X70785790Y-31824210D01*
X70785787Y-31824208D01*
X69134790Y-30173210D01*
X69057660Y-30121674D01*
X68847675Y-29981367D01*
X68791484Y-29970190D01*
X68509000Y-29913999D01*
X68508995Y-29914000D01*
X64303579Y-29914000D01*
X62868593Y-28479013D01*
X62910317Y-28471162D01*
X63126441Y-28332090D01*
X63172969Y-28263994D01*
X63315302Y-28406327D01*
X63548691Y-28503000D01*
X64139250Y-28503000D01*
X64298000Y-28344250D01*
X64298000Y-27370000D01*
X64552000Y-27370000D01*
X64552000Y-28344250D01*
X64710750Y-28503000D01*
X65301309Y-28503000D01*
X65534698Y-28406327D01*
X65713327Y-28227699D01*
X65810000Y-27994310D01*
X65810000Y-27528750D01*
X65683941Y-27402691D01*
X72837000Y-27402691D01*
X72837000Y-27993250D01*
X72995750Y-28152000D01*
X73970000Y-28152000D01*
X73970000Y-27052750D01*
X74224000Y-27052750D01*
X74224000Y-28152000D01*
X75198250Y-28152000D01*
X75357000Y-27993250D01*
X75357000Y-27402691D01*
X75260327Y-27169302D01*
X75116116Y-27025090D01*
X76848000Y-27025090D01*
X76848000Y-27729250D01*
X77006750Y-27888000D01*
X78372000Y-27888000D01*
X78372000Y-26675150D01*
X78626000Y-26675150D01*
X78626000Y-27888000D01*
X79991250Y-27888000D01*
X80150000Y-27729250D01*
X80150000Y-27025090D01*
X80053327Y-26791701D01*
X79874698Y-26613073D01*
X79641309Y-26516400D01*
X78784750Y-26516400D01*
X78626000Y-26675150D01*
X78372000Y-26675150D01*
X78213250Y-26516400D01*
X77356691Y-26516400D01*
X77123302Y-26613073D01*
X76944673Y-26791701D01*
X76848000Y-27025090D01*
X75116116Y-27025090D01*
X75081699Y-26990673D01*
X74848310Y-26894000D01*
X74382750Y-26894000D01*
X74224000Y-27052750D01*
X73970000Y-27052750D01*
X73811250Y-26894000D01*
X73345690Y-26894000D01*
X73112301Y-26990673D01*
X72933673Y-27169302D01*
X72837000Y-27402691D01*
X65683941Y-27402691D01*
X65651250Y-27370000D01*
X64552000Y-27370000D01*
X64298000Y-27370000D01*
X64278000Y-27370000D01*
X64278000Y-27116000D01*
X64298000Y-27116000D01*
X64298000Y-26141750D01*
X64552000Y-26141750D01*
X64552000Y-27116000D01*
X65651250Y-27116000D01*
X65810000Y-26957250D01*
X65810000Y-26491690D01*
X65713327Y-26258301D01*
X65534698Y-26079673D01*
X65301309Y-25983000D01*
X64710750Y-25983000D01*
X64552000Y-26141750D01*
X64298000Y-26141750D01*
X64139250Y-25983000D01*
X63548691Y-25983000D01*
X63315302Y-26079673D01*
X63174064Y-26220910D01*
X63139090Y-26166559D01*
X62926890Y-26021569D01*
X62675000Y-25970560D01*
X61175000Y-25970560D01*
X60939683Y-26014838D01*
X60723559Y-26153910D01*
X60584110Y-26358000D01*
X59528222Y-26358000D01*
X59528162Y-26357683D01*
X59389090Y-26141559D01*
X59176890Y-25996569D01*
X58925000Y-25945560D01*
X57425000Y-25945560D01*
X57189683Y-25989838D01*
X56973559Y-26128910D01*
X56828569Y-26341110D01*
X56825919Y-26354197D01*
X56689090Y-26141559D01*
X56476890Y-25996569D01*
X56225000Y-25945560D01*
X54725000Y-25945560D01*
X54489683Y-25989838D01*
X54273559Y-26128910D01*
X54128569Y-26341110D01*
X54077560Y-26593000D01*
X54077560Y-27893000D01*
X54121838Y-28128317D01*
X54260910Y-28344441D01*
X54473110Y-28489431D01*
X54584523Y-28511993D01*
X54489683Y-28529838D01*
X54273559Y-28668910D01*
X54128569Y-28881110D01*
X54078342Y-29129140D01*
X53742490Y-29129140D01*
X53742490Y-29113710D01*
X53698212Y-28878393D01*
X53559140Y-28662269D01*
X53346940Y-28517279D01*
X53095050Y-28466270D01*
X52466958Y-28466270D01*
X52504748Y-28450617D01*
X52683377Y-28271989D01*
X52780050Y-28038600D01*
X52780050Y-27297610D01*
X52621300Y-27138860D01*
X51872000Y-27138860D01*
X51872000Y-28388540D01*
X52019703Y-28536243D01*
X51843509Y-28649620D01*
X51744368Y-28794717D01*
X51659140Y-28662269D01*
X51472082Y-28534458D01*
X51618000Y-28388540D01*
X51618000Y-27138860D01*
X50868700Y-27138860D01*
X50709950Y-27297610D01*
X50709950Y-28038600D01*
X50806623Y-28271989D01*
X50985252Y-28450617D01*
X51023042Y-28466270D01*
X50394950Y-28466270D01*
X50159633Y-28510548D01*
X49943509Y-28649620D01*
X49798519Y-28861820D01*
X49747510Y-29113710D01*
X49747510Y-29810051D01*
X49389560Y-30168000D01*
X49368222Y-30168000D01*
X49368162Y-30167683D01*
X49229090Y-29951559D01*
X49016890Y-29806569D01*
X48765000Y-29755560D01*
X47265000Y-29755560D01*
X47029683Y-29799838D01*
X46813559Y-29938910D01*
X46668569Y-30151110D01*
X46665919Y-30164197D01*
X46529090Y-29951559D01*
X46316890Y-29806569D01*
X46065000Y-29755560D01*
X44565000Y-29755560D01*
X44329683Y-29799838D01*
X44113559Y-29938910D01*
X44011690Y-30088000D01*
X40317038Y-30088000D01*
X40298162Y-29987683D01*
X40159090Y-29771559D01*
X40092238Y-29725881D01*
X40121441Y-29707090D01*
X40266431Y-29494890D01*
X40317440Y-29243000D01*
X40317440Y-27743000D01*
X40273162Y-27507683D01*
X40134090Y-27291559D01*
X40065994Y-27245031D01*
X40208327Y-27102698D01*
X40305000Y-26869309D01*
X40305000Y-26278750D01*
X40146250Y-26120000D01*
X39172000Y-26120000D01*
X39172000Y-26140000D01*
X38918000Y-26140000D01*
X38918000Y-26120000D01*
X37943750Y-26120000D01*
X37785000Y-26278750D01*
X37785000Y-26869309D01*
X37881673Y-27102698D01*
X38022910Y-27243936D01*
X37968559Y-27278910D01*
X37823569Y-27491110D01*
X37772560Y-27743000D01*
X37772560Y-29243000D01*
X37816838Y-29478317D01*
X37955910Y-29694441D01*
X37998511Y-29723549D01*
X37943559Y-29758910D01*
X37798569Y-29971110D01*
X37747560Y-30223000D01*
X37747560Y-31137997D01*
X37638790Y-30975210D01*
X37638787Y-30975208D01*
X37010790Y-30347210D01*
X36914032Y-30282559D01*
X36723675Y-30155367D01*
X36634199Y-30137569D01*
X36511783Y-30113218D01*
X36488162Y-29987683D01*
X36349090Y-29771559D01*
X36282238Y-29725881D01*
X36311441Y-29707090D01*
X36456431Y-29494890D01*
X36507440Y-29243000D01*
X36507440Y-27743000D01*
X36463162Y-27507683D01*
X36324090Y-27291559D01*
X36255994Y-27245031D01*
X36398327Y-27102698D01*
X36495000Y-26869309D01*
X36495000Y-26278750D01*
X36336250Y-26120000D01*
X35362000Y-26120000D01*
X35362000Y-26140000D01*
X35108000Y-26140000D01*
X35108000Y-26120000D01*
X34133750Y-26120000D01*
X33975000Y-26278750D01*
X33975000Y-26869309D01*
X34071673Y-27102698D01*
X34212910Y-27243936D01*
X34158559Y-27278910D01*
X34013569Y-27491110D01*
X33962560Y-27743000D01*
X33962560Y-29243000D01*
X34006838Y-29478317D01*
X34145910Y-29694441D01*
X34188511Y-29723549D01*
X34133559Y-29758910D01*
X33988569Y-29971110D01*
X33937560Y-30223000D01*
X33937560Y-31723000D01*
X33981838Y-31958317D01*
X34120910Y-32174441D01*
X34333110Y-32319431D01*
X34346197Y-32322081D01*
X34133559Y-32458910D01*
X33988569Y-32671110D01*
X33952748Y-32848000D01*
X33672440Y-32848000D01*
X33672440Y-32383000D01*
X33628162Y-32147683D01*
X33489090Y-31931559D01*
X33276890Y-31786569D01*
X33025000Y-31735560D01*
X29825000Y-31735560D01*
X29589683Y-31779838D01*
X29373559Y-31918910D01*
X29231684Y-32126551D01*
X28052566Y-30947434D01*
X27913440Y-30854473D01*
X27913440Y-30734000D01*
X27869162Y-30498683D01*
X27730090Y-30282559D01*
X27517890Y-30137569D01*
X27266000Y-30086560D01*
X25234000Y-30086560D01*
X24998683Y-30130838D01*
X24782559Y-30269910D01*
X24710000Y-30376104D01*
X24710000Y-27932689D01*
X24755615Y-28042818D01*
X25193621Y-28515188D01*
X25779054Y-28783983D01*
X26035000Y-28665367D01*
X26035000Y-27305000D01*
X26289000Y-27305000D01*
X26289000Y-28665367D01*
X26544946Y-28783983D01*
X27130379Y-28515188D01*
X27568385Y-28042818D01*
X27767975Y-27560944D01*
X27648836Y-27305000D01*
X26289000Y-27305000D01*
X26035000Y-27305000D01*
X26015000Y-27305000D01*
X26015000Y-27051000D01*
X26035000Y-27051000D01*
X26035000Y-27031000D01*
X26289000Y-27031000D01*
X26289000Y-27051000D01*
X27648836Y-27051000D01*
X27767975Y-26795056D01*
X27568385Y-26313182D01*
X27477903Y-26215602D01*
X27628415Y-26118750D01*
X29190000Y-26118750D01*
X29190000Y-27309309D01*
X29286673Y-27542698D01*
X29465301Y-27721327D01*
X29698690Y-27818000D01*
X31139250Y-27818000D01*
X31298000Y-27659250D01*
X31298000Y-25960000D01*
X31552000Y-25960000D01*
X31552000Y-27659250D01*
X31710750Y-27818000D01*
X33151310Y-27818000D01*
X33384699Y-27721327D01*
X33563327Y-27542698D01*
X33660000Y-27309309D01*
X33660000Y-26118750D01*
X33526370Y-25985120D01*
X50709950Y-25985120D01*
X50709950Y-26726110D01*
X50868700Y-26884860D01*
X51618000Y-26884860D01*
X51618000Y-25635180D01*
X51872000Y-25635180D01*
X51872000Y-26884860D01*
X52621300Y-26884860D01*
X52780050Y-26726110D01*
X52780050Y-25985120D01*
X52683377Y-25751731D01*
X52504748Y-25573103D01*
X52271359Y-25476430D01*
X52030750Y-25476430D01*
X51872000Y-25635180D01*
X51618000Y-25635180D01*
X51459250Y-25476430D01*
X51218641Y-25476430D01*
X50985252Y-25573103D01*
X50806623Y-25751731D01*
X50709950Y-25985120D01*
X33526370Y-25985120D01*
X33501250Y-25960000D01*
X31552000Y-25960000D01*
X31298000Y-25960000D01*
X29348750Y-25960000D01*
X29190000Y-26118750D01*
X27628415Y-26118750D01*
X27629441Y-26118090D01*
X27774431Y-25905890D01*
X27825440Y-25654000D01*
X27825440Y-24356691D01*
X29190000Y-24356691D01*
X29190000Y-25547250D01*
X29348750Y-25706000D01*
X31298000Y-25706000D01*
X31298000Y-24006750D01*
X31552000Y-24006750D01*
X31552000Y-25706000D01*
X33501250Y-25706000D01*
X33660000Y-25547250D01*
X33660000Y-25116691D01*
X33975000Y-25116691D01*
X33975000Y-25707250D01*
X34133750Y-25866000D01*
X35108000Y-25866000D01*
X35108000Y-24766750D01*
X35362000Y-24766750D01*
X35362000Y-25866000D01*
X36336250Y-25866000D01*
X36495000Y-25707250D01*
X36495000Y-25116691D01*
X37785000Y-25116691D01*
X37785000Y-25707250D01*
X37943750Y-25866000D01*
X38918000Y-25866000D01*
X38918000Y-24766750D01*
X39172000Y-24766750D01*
X39172000Y-25866000D01*
X40146250Y-25866000D01*
X40305000Y-25707250D01*
X40305000Y-25116691D01*
X40208327Y-24883302D01*
X40029699Y-24704673D01*
X39796310Y-24608000D01*
X39330750Y-24608000D01*
X39172000Y-24766750D01*
X38918000Y-24766750D01*
X38759250Y-24608000D01*
X38293690Y-24608000D01*
X38060301Y-24704673D01*
X37881673Y-24883302D01*
X37785000Y-25116691D01*
X36495000Y-25116691D01*
X36398327Y-24883302D01*
X36219699Y-24704673D01*
X35986310Y-24608000D01*
X35520750Y-24608000D01*
X35362000Y-24766750D01*
X35108000Y-24766750D01*
X34949250Y-24608000D01*
X34483690Y-24608000D01*
X34250301Y-24704673D01*
X34071673Y-24883302D01*
X33975000Y-25116691D01*
X33660000Y-25116691D01*
X33660000Y-24356691D01*
X33563327Y-24123302D01*
X33384699Y-23944673D01*
X33151310Y-23848000D01*
X31710750Y-23848000D01*
X31552000Y-24006750D01*
X31298000Y-24006750D01*
X31139250Y-23848000D01*
X29698690Y-23848000D01*
X29465301Y-23944673D01*
X29286673Y-24123302D01*
X29190000Y-24356691D01*
X27825440Y-24356691D01*
X27825440Y-23622000D01*
X27781162Y-23386683D01*
X27667470Y-23210000D01*
X84790000Y-23210000D01*
X84790000Y-50040000D01*
G36*
X36975208Y-34298787D02*
X36975210Y-34298790D01*
X37167054Y-34426975D01*
X37262326Y-34490634D01*
X37601000Y-34558001D01*
X37601005Y-34558000D01*
X37772962Y-34558000D01*
X37791838Y-34658317D01*
X37930910Y-34874441D01*
X38143110Y-35019431D01*
X38395000Y-35070440D01*
X39695000Y-35070440D01*
X39930317Y-35026162D01*
X40146441Y-34887090D01*
X40291431Y-34674890D01*
X40315102Y-34558000D01*
X44013113Y-34558000D01*
X44100910Y-34694441D01*
X44313110Y-34839431D01*
X44565000Y-34890440D01*
X46065000Y-34890440D01*
X46300317Y-34846162D01*
X46516441Y-34707090D01*
X46661431Y-34494890D01*
X46664081Y-34481803D01*
X46800910Y-34694441D01*
X47013110Y-34839431D01*
X47265000Y-34890440D01*
X48765000Y-34890440D01*
X49000317Y-34846162D01*
X49216441Y-34707090D01*
X49361431Y-34494890D01*
X49364851Y-34478000D01*
X50653554Y-34478000D01*
X50681838Y-34628317D01*
X50820910Y-34844441D01*
X51033110Y-34989431D01*
X51285000Y-35040440D01*
X51401081Y-35040440D01*
X51447888Y-35275750D01*
X51467367Y-35373675D01*
X51508009Y-35434500D01*
X51659210Y-35660790D01*
X53624208Y-37625787D01*
X53624210Y-37625790D01*
X53911325Y-37817633D01*
X53967516Y-37828810D01*
X54250000Y-37885001D01*
X54250005Y-37885000D01*
X64502962Y-37885000D01*
X64521838Y-37985317D01*
X64660910Y-38201441D01*
X64873110Y-38346431D01*
X65125000Y-38397440D01*
X66375000Y-38397440D01*
X66610317Y-38353162D01*
X66826441Y-38214090D01*
X66971431Y-38001890D01*
X66995102Y-37885000D01*
X71749995Y-37885000D01*
X71750000Y-37885001D01*
X72032484Y-37828810D01*
X72088675Y-37817633D01*
X72375790Y-37625790D01*
X72700000Y-37301580D01*
X74865000Y-39466579D01*
X74865000Y-39972274D01*
X74827162Y-39771183D01*
X74688090Y-39555059D01*
X74475890Y-39410069D01*
X74224000Y-39359060D01*
X73716000Y-39359060D01*
X73480683Y-39403338D01*
X73339629Y-39494104D01*
X73313698Y-39468173D01*
X73080309Y-39371500D01*
X72985750Y-39371500D01*
X72827000Y-39530250D01*
X72827000Y-40451000D01*
X72847000Y-40451000D01*
X72847000Y-40705000D01*
X72827000Y-40705000D01*
X72827000Y-41625750D01*
X72985750Y-41784500D01*
X73068947Y-41784500D01*
X73022789Y-45270313D01*
X73014683Y-45271838D01*
X72798559Y-45410910D01*
X72752031Y-45479006D01*
X72609698Y-45336673D01*
X72376309Y-45240000D01*
X71785750Y-45240000D01*
X71627000Y-45398750D01*
X71627000Y-46373000D01*
X71647000Y-46373000D01*
X71647000Y-46627000D01*
X71627000Y-46627000D01*
X71627000Y-47601250D01*
X71785750Y-47760000D01*
X72376309Y-47760000D01*
X72609698Y-47663327D01*
X72750936Y-47522090D01*
X72785910Y-47576441D01*
X72963512Y-47697791D01*
X72942872Y-47868263D01*
X57829077Y-47929513D01*
X57881431Y-47852890D01*
X57915227Y-47686000D01*
X58023203Y-47686000D01*
X58113110Y-47747431D01*
X58365000Y-47798440D01*
X58965000Y-47798440D01*
X59200317Y-47754162D01*
X59364493Y-47648518D01*
X59405302Y-47689327D01*
X59638691Y-47786000D01*
X59779250Y-47786000D01*
X59938000Y-47627250D01*
X59938000Y-46928000D01*
X60192000Y-46928000D01*
X60192000Y-47627250D01*
X60350750Y-47786000D01*
X60491309Y-47786000D01*
X60724698Y-47689327D01*
X60903327Y-47510699D01*
X61000000Y-47277310D01*
X61000000Y-47086750D01*
X60841250Y-46928000D01*
X60192000Y-46928000D01*
X59938000Y-46928000D01*
X59918000Y-46928000D01*
X59918000Y-46785750D01*
X70115000Y-46785750D01*
X70115000Y-47251310D01*
X70211673Y-47484699D01*
X70390302Y-47663327D01*
X70623691Y-47760000D01*
X71214250Y-47760000D01*
X71373000Y-47601250D01*
X71373000Y-46627000D01*
X70273750Y-46627000D01*
X70115000Y-46785750D01*
X59918000Y-46785750D01*
X59918000Y-46674000D01*
X59938000Y-46674000D01*
X59938000Y-45974750D01*
X60192000Y-45974750D01*
X60192000Y-46674000D01*
X60841250Y-46674000D01*
X61000000Y-46515250D01*
X61000000Y-46324690D01*
X60903327Y-46091301D01*
X60724698Y-45912673D01*
X60491309Y-45816000D01*
X60350750Y-45816000D01*
X60192000Y-45974750D01*
X59938000Y-45974750D01*
X59779250Y-45816000D01*
X59638691Y-45816000D01*
X59488000Y-45878418D01*
X59488000Y-45748690D01*
X70115000Y-45748690D01*
X70115000Y-46214250D01*
X70273750Y-46373000D01*
X71373000Y-46373000D01*
X71373000Y-45398750D01*
X71214250Y-45240000D01*
X70623691Y-45240000D01*
X70390302Y-45336673D01*
X70211673Y-45515301D01*
X70115000Y-45748690D01*
X59488000Y-45748690D01*
X59488000Y-45331000D01*
X59420633Y-44992325D01*
X59348827Y-44884859D01*
X59376441Y-44867090D01*
X59521431Y-44654890D01*
X59572440Y-44403000D01*
X59572440Y-43103000D01*
X59528162Y-42867683D01*
X59389090Y-42651559D01*
X59176890Y-42506569D01*
X59065477Y-42484007D01*
X59160317Y-42466162D01*
X59376441Y-42327090D01*
X59521431Y-42114890D01*
X59524851Y-42098000D01*
X60587721Y-42098000D01*
X60710910Y-42289441D01*
X60923110Y-42434431D01*
X61064892Y-42463143D01*
X61075663Y-42517290D01*
X61107367Y-42676675D01*
X61299210Y-42963790D01*
X62206208Y-43870787D01*
X62206210Y-43870790D01*
X62493325Y-44062633D01*
X62543598Y-44072633D01*
X62832000Y-44130001D01*
X62832005Y-44130000D01*
X70286995Y-44130000D01*
X70287000Y-44130001D01*
X70575402Y-44072633D01*
X70625675Y-44062633D01*
X70912790Y-43870790D01*
X72055787Y-42727792D01*
X72055790Y-42727790D01*
X72247633Y-42440675D01*
X72261691Y-42370000D01*
X72315001Y-42102000D01*
X72315000Y-42101995D01*
X72315000Y-41782557D01*
X72319691Y-41784500D01*
X72414250Y-41784500D01*
X72573000Y-41625750D01*
X72573000Y-40705000D01*
X72553000Y-40705000D01*
X72553000Y-40451000D01*
X72573000Y-40451000D01*
X72573000Y-39530250D01*
X72414250Y-39371500D01*
X72319691Y-39371500D01*
X72086302Y-39468173D01*
X72059765Y-39494709D01*
X71935890Y-39410069D01*
X71684000Y-39359060D01*
X71176000Y-39359060D01*
X70940683Y-39403338D01*
X70799629Y-39494104D01*
X70773698Y-39468173D01*
X70540309Y-39371500D01*
X70445750Y-39371500D01*
X70287000Y-39530250D01*
X70287000Y-40451000D01*
X70307000Y-40451000D01*
X70307000Y-40705000D01*
X70287000Y-40705000D01*
X70287000Y-41625750D01*
X70445750Y-41784500D01*
X70495921Y-41784500D01*
X69920420Y-42360000D01*
X65551025Y-42360000D01*
X65713327Y-42197699D01*
X65810000Y-41964310D01*
X65810000Y-41498750D01*
X65651250Y-41340000D01*
X64552000Y-41340000D01*
X64552000Y-41360000D01*
X64298000Y-41360000D01*
X64298000Y-41340000D01*
X64278000Y-41340000D01*
X64278000Y-41086000D01*
X64298000Y-41086000D01*
X64298000Y-40111750D01*
X64552000Y-40111750D01*
X64552000Y-41086000D01*
X65651250Y-41086000D01*
X65810000Y-40927250D01*
X65810000Y-40863750D01*
X69271000Y-40863750D01*
X69271000Y-41275810D01*
X69367673Y-41509199D01*
X69546302Y-41687827D01*
X69779691Y-41784500D01*
X69874250Y-41784500D01*
X70033000Y-41625750D01*
X70033000Y-40705000D01*
X69429750Y-40705000D01*
X69271000Y-40863750D01*
X65810000Y-40863750D01*
X65810000Y-40461690D01*
X65713327Y-40228301D01*
X65534698Y-40049673D01*
X65301309Y-39953000D01*
X64710750Y-39953000D01*
X64552000Y-40111750D01*
X64298000Y-40111750D01*
X64139250Y-39953000D01*
X63548691Y-39953000D01*
X63315302Y-40049673D01*
X63174064Y-40190910D01*
X63139090Y-40136559D01*
X62926890Y-39991569D01*
X62675000Y-39940560D01*
X61175000Y-39940560D01*
X60939683Y-39984838D01*
X60723559Y-40123910D01*
X60584110Y-40328000D01*
X59528222Y-40328000D01*
X59528162Y-40327683D01*
X59389090Y-40111559D01*
X59176890Y-39966569D01*
X58925000Y-39915560D01*
X57425000Y-39915560D01*
X57189683Y-39959838D01*
X56973559Y-40098910D01*
X56828569Y-40311110D01*
X56825919Y-40324197D01*
X56689090Y-40111559D01*
X56476890Y-39966569D01*
X56225000Y-39915560D01*
X54725000Y-39915560D01*
X54489683Y-39959838D01*
X54273559Y-40098910D01*
X54128569Y-40311110D01*
X54077560Y-40563000D01*
X54077560Y-41863000D01*
X54121838Y-42098317D01*
X54260910Y-42314441D01*
X54473110Y-42459431D01*
X54584523Y-42481993D01*
X54489683Y-42499838D01*
X54273559Y-42638910D01*
X54128569Y-42851110D01*
X54078342Y-43099140D01*
X53742490Y-43099140D01*
X53742490Y-43083710D01*
X53698212Y-42848393D01*
X53559140Y-42632269D01*
X53346940Y-42487279D01*
X53095050Y-42436270D01*
X52466958Y-42436270D01*
X52504748Y-42420617D01*
X52683377Y-42241989D01*
X52780050Y-42008600D01*
X52780050Y-41267610D01*
X52621300Y-41108860D01*
X51872000Y-41108860D01*
X51872000Y-42358540D01*
X52019703Y-42506243D01*
X51843509Y-42619620D01*
X51744368Y-42764717D01*
X51659140Y-42632269D01*
X51472082Y-42504458D01*
X51618000Y-42358540D01*
X51618000Y-41108860D01*
X50868700Y-41108860D01*
X50709950Y-41267610D01*
X50709950Y-42008600D01*
X50806623Y-42241989D01*
X50985252Y-42420617D01*
X51023042Y-42436270D01*
X50394950Y-42436270D01*
X50159633Y-42480548D01*
X49943509Y-42619620D01*
X49798519Y-42831820D01*
X49747510Y-43083710D01*
X49747510Y-43780051D01*
X49389560Y-44138000D01*
X49368222Y-44138000D01*
X49368162Y-44137683D01*
X49229090Y-43921559D01*
X49016890Y-43776569D01*
X48765000Y-43725560D01*
X47265000Y-43725560D01*
X47029683Y-43769838D01*
X46813559Y-43908910D01*
X46668569Y-44121110D01*
X46665919Y-44134197D01*
X46529090Y-43921559D01*
X46316890Y-43776569D01*
X46065000Y-43725560D01*
X44565000Y-43725560D01*
X44329683Y-43769838D01*
X44113559Y-43908910D01*
X44011690Y-44058000D01*
X40317038Y-44058000D01*
X40298162Y-43957683D01*
X40159090Y-43741559D01*
X40092238Y-43695881D01*
X40121441Y-43677090D01*
X40266431Y-43464890D01*
X40317440Y-43213000D01*
X40317440Y-41713000D01*
X40273162Y-41477683D01*
X40134090Y-41261559D01*
X40065994Y-41215031D01*
X40208327Y-41072698D01*
X40305000Y-40839309D01*
X40305000Y-40248750D01*
X40146250Y-40090000D01*
X39172000Y-40090000D01*
X39172000Y-40110000D01*
X38918000Y-40110000D01*
X38918000Y-40090000D01*
X37943750Y-40090000D01*
X37785000Y-40248750D01*
X37785000Y-40839309D01*
X37881673Y-41072698D01*
X38022910Y-41213936D01*
X37968559Y-41248910D01*
X37823569Y-41461110D01*
X37772560Y-41713000D01*
X37772560Y-43213000D01*
X37816838Y-43448317D01*
X37955910Y-43664441D01*
X37998511Y-43693549D01*
X37943559Y-43728910D01*
X37798569Y-43941110D01*
X37747560Y-44193000D01*
X37747560Y-45053981D01*
X37010790Y-44317210D01*
X36843404Y-44205367D01*
X36723675Y-44125367D01*
X36667484Y-44114190D01*
X36511783Y-44083218D01*
X36488162Y-43957683D01*
X36349090Y-43741559D01*
X36282238Y-43695881D01*
X36311441Y-43677090D01*
X36456431Y-43464890D01*
X36507440Y-43213000D01*
X36507440Y-41713000D01*
X36463162Y-41477683D01*
X36324090Y-41261559D01*
X36255994Y-41215031D01*
X36398327Y-41072698D01*
X36495000Y-40839309D01*
X36495000Y-40248750D01*
X36336250Y-40090000D01*
X35362000Y-40090000D01*
X35362000Y-40110000D01*
X35108000Y-40110000D01*
X35108000Y-40090000D01*
X34133750Y-40090000D01*
X33975000Y-40248750D01*
X33975000Y-40839309D01*
X34071673Y-41072698D01*
X34212910Y-41213936D01*
X34158559Y-41248910D01*
X34013569Y-41461110D01*
X33962560Y-41713000D01*
X33962560Y-43213000D01*
X34006838Y-43448317D01*
X34145910Y-43664441D01*
X34188511Y-43693549D01*
X34133559Y-43728910D01*
X33988569Y-43941110D01*
X33937560Y-44193000D01*
X33937560Y-45693000D01*
X33981838Y-45928317D01*
X34120910Y-46144441D01*
X34333110Y-46289431D01*
X34346197Y-46292081D01*
X34133559Y-46428910D01*
X33988569Y-46641110D01*
X33952748Y-46818000D01*
X33672440Y-46818000D01*
X33672440Y-46353000D01*
X33628162Y-46117683D01*
X33489090Y-45901559D01*
X33276890Y-45756569D01*
X33025000Y-45705560D01*
X29825000Y-45705560D01*
X29589683Y-45749838D01*
X29373559Y-45888910D01*
X29320986Y-45965854D01*
X28526566Y-45171434D01*
X28474224Y-45136460D01*
X28158346Y-44925397D01*
X27892462Y-44872509D01*
X27869162Y-44748683D01*
X27730090Y-44532559D01*
X27517890Y-44387569D01*
X27266000Y-44336560D01*
X25234000Y-44336560D01*
X24998683Y-44380838D01*
X24782559Y-44519910D01*
X24710000Y-44626104D01*
X24710000Y-42156689D01*
X24755615Y-42266818D01*
X25193621Y-42739188D01*
X25779054Y-43007983D01*
X26035000Y-42889367D01*
X26035000Y-41529000D01*
X26289000Y-41529000D01*
X26289000Y-42889367D01*
X26544946Y-43007983D01*
X27130379Y-42739188D01*
X27568385Y-42266818D01*
X27767975Y-41784944D01*
X27648836Y-41529000D01*
X26289000Y-41529000D01*
X26035000Y-41529000D01*
X26015000Y-41529000D01*
X26015000Y-41275000D01*
X26035000Y-41275000D01*
X26035000Y-41255000D01*
X26289000Y-41255000D01*
X26289000Y-41275000D01*
X27648836Y-41275000D01*
X27767975Y-41019056D01*
X27568385Y-40537182D01*
X27477903Y-40439602D01*
X27629441Y-40342090D01*
X27774431Y-40129890D01*
X27782762Y-40088750D01*
X29190000Y-40088750D01*
X29190000Y-41279309D01*
X29286673Y-41512698D01*
X29465301Y-41691327D01*
X29698690Y-41788000D01*
X31139250Y-41788000D01*
X31298000Y-41629250D01*
X31298000Y-39930000D01*
X31552000Y-39930000D01*
X31552000Y-41629250D01*
X31710750Y-41788000D01*
X33151310Y-41788000D01*
X33384699Y-41691327D01*
X33563327Y-41512698D01*
X33660000Y-41279309D01*
X33660000Y-40088750D01*
X33526370Y-39955120D01*
X50709950Y-39955120D01*
X50709950Y-40696110D01*
X50868700Y-40854860D01*
X51618000Y-40854860D01*
X51618000Y-39605180D01*
X51872000Y-39605180D01*
X51872000Y-40854860D01*
X52621300Y-40854860D01*
X52780050Y-40696110D01*
X52780050Y-39955120D01*
X52749013Y-39880190D01*
X69271000Y-39880190D01*
X69271000Y-40292250D01*
X69429750Y-40451000D01*
X70033000Y-40451000D01*
X70033000Y-39530250D01*
X69874250Y-39371500D01*
X69779691Y-39371500D01*
X69546302Y-39468173D01*
X69367673Y-39646801D01*
X69271000Y-39880190D01*
X52749013Y-39880190D01*
X52683377Y-39721731D01*
X52504748Y-39543103D01*
X52271359Y-39446430D01*
X52030750Y-39446430D01*
X51872000Y-39605180D01*
X51618000Y-39605180D01*
X51459250Y-39446430D01*
X51218641Y-39446430D01*
X50985252Y-39543103D01*
X50806623Y-39721731D01*
X50709950Y-39955120D01*
X33526370Y-39955120D01*
X33501250Y-39930000D01*
X31552000Y-39930000D01*
X31298000Y-39930000D01*
X29348750Y-39930000D01*
X29190000Y-40088750D01*
X27782762Y-40088750D01*
X27825440Y-39878000D01*
X27825440Y-38326691D01*
X29190000Y-38326691D01*
X29190000Y-39517250D01*
X29348750Y-39676000D01*
X31298000Y-39676000D01*
X31298000Y-37976750D01*
X31552000Y-37976750D01*
X31552000Y-39676000D01*
X33501250Y-39676000D01*
X33660000Y-39517250D01*
X33660000Y-39086691D01*
X33975000Y-39086691D01*
X33975000Y-39677250D01*
X34133750Y-39836000D01*
X35108000Y-39836000D01*
X35108000Y-38736750D01*
X35362000Y-38736750D01*
X35362000Y-39836000D01*
X36336250Y-39836000D01*
X36495000Y-39677250D01*
X36495000Y-39086691D01*
X37785000Y-39086691D01*
X37785000Y-39677250D01*
X37943750Y-39836000D01*
X38918000Y-39836000D01*
X38918000Y-38736750D01*
X39172000Y-38736750D01*
X39172000Y-39836000D01*
X40146250Y-39836000D01*
X40305000Y-39677250D01*
X40305000Y-39086691D01*
X40208327Y-38853302D01*
X40029699Y-38674673D01*
X39796310Y-38578000D01*
X39330750Y-38578000D01*
X39172000Y-38736750D01*
X38918000Y-38736750D01*
X38759250Y-38578000D01*
X38293690Y-38578000D01*
X38060301Y-38674673D01*
X37881673Y-38853302D01*
X37785000Y-39086691D01*
X36495000Y-39086691D01*
X36398327Y-38853302D01*
X36219699Y-38674673D01*
X35986310Y-38578000D01*
X35520750Y-38578000D01*
X35362000Y-38736750D01*
X35108000Y-38736750D01*
X34949250Y-38578000D01*
X34483690Y-38578000D01*
X34250301Y-38674673D01*
X34071673Y-38853302D01*
X33975000Y-39086691D01*
X33660000Y-39086691D01*
X33660000Y-38326691D01*
X33563327Y-38093302D01*
X33384699Y-37914673D01*
X33151310Y-37818000D01*
X31710750Y-37818000D01*
X31552000Y-37976750D01*
X31298000Y-37976750D01*
X31139250Y-37818000D01*
X29698690Y-37818000D01*
X29465301Y-37914673D01*
X29286673Y-38093302D01*
X29190000Y-38326691D01*
X27825440Y-38326691D01*
X27825440Y-37846000D01*
X27781162Y-37610683D01*
X27642090Y-37394559D01*
X27429890Y-37249569D01*
X27178000Y-37198560D01*
X25146000Y-37198560D01*
X24910683Y-37242838D01*
X24710000Y-37371974D01*
X24710000Y-34832229D01*
X24843615Y-35154818D01*
X25281621Y-35627188D01*
X25867054Y-35895983D01*
X26123000Y-35777367D01*
X26123000Y-34417000D01*
X26377000Y-34417000D01*
X26377000Y-35777367D01*
X26632946Y-35895983D01*
X27218379Y-35627188D01*
X27656385Y-35154818D01*
X27855975Y-34672944D01*
X27736836Y-34417000D01*
X26377000Y-34417000D01*
X26123000Y-34417000D01*
X26103000Y-34417000D01*
X26103000Y-34163000D01*
X26123000Y-34163000D01*
X26123000Y-34143000D01*
X26377000Y-34143000D01*
X26377000Y-34163000D01*
X27736836Y-34163000D01*
X27838806Y-33943939D01*
X28430433Y-34535566D01*
X28798654Y-34781603D01*
X29177560Y-34856972D01*
X29177560Y-35083000D01*
X29221838Y-35318317D01*
X29360910Y-35534441D01*
X29573110Y-35679431D01*
X29825000Y-35730440D01*
X33025000Y-35730440D01*
X33260317Y-35686162D01*
X33476441Y-35547090D01*
X33621431Y-35334890D01*
X33672440Y-35083000D01*
X33672440Y-34618000D01*
X33974252Y-34618000D01*
X33981838Y-34658317D01*
X34120910Y-34874441D01*
X34333110Y-35019431D01*
X34585000Y-35070440D01*
X35885000Y-35070440D01*
X36120317Y-35026162D01*
X36336441Y-34887090D01*
X36481431Y-34674890D01*
X36532440Y-34423000D01*
X36532440Y-33856020D01*
X36975208Y-34298787D01*
X36975208Y-34298787D01*
G37*
X36975208Y-34298787D02*
X36975210Y-34298790D01*
X37167054Y-34426975D01*
X37262326Y-34490634D01*
X37601000Y-34558001D01*
X37601005Y-34558000D01*
X37772962Y-34558000D01*
X37791838Y-34658317D01*
X37930910Y-34874441D01*
X38143110Y-35019431D01*
X38395000Y-35070440D01*
X39695000Y-35070440D01*
X39930317Y-35026162D01*
X40146441Y-34887090D01*
X40291431Y-34674890D01*
X40315102Y-34558000D01*
X44013113Y-34558000D01*
X44100910Y-34694441D01*
X44313110Y-34839431D01*
X44565000Y-34890440D01*
X46065000Y-34890440D01*
X46300317Y-34846162D01*
X46516441Y-34707090D01*
X46661431Y-34494890D01*
X46664081Y-34481803D01*
X46800910Y-34694441D01*
X47013110Y-34839431D01*
X47265000Y-34890440D01*
X48765000Y-34890440D01*
X49000317Y-34846162D01*
X49216441Y-34707090D01*
X49361431Y-34494890D01*
X49364851Y-34478000D01*
X50653554Y-34478000D01*
X50681838Y-34628317D01*
X50820910Y-34844441D01*
X51033110Y-34989431D01*
X51285000Y-35040440D01*
X51401081Y-35040440D01*
X51447888Y-35275750D01*
X51467367Y-35373675D01*
X51508009Y-35434500D01*
X51659210Y-35660790D01*
X53624208Y-37625787D01*
X53624210Y-37625790D01*
X53911325Y-37817633D01*
X53967516Y-37828810D01*
X54250000Y-37885001D01*
X54250005Y-37885000D01*
X64502962Y-37885000D01*
X64521838Y-37985317D01*
X64660910Y-38201441D01*
X64873110Y-38346431D01*
X65125000Y-38397440D01*
X66375000Y-38397440D01*
X66610317Y-38353162D01*
X66826441Y-38214090D01*
X66971431Y-38001890D01*
X66995102Y-37885000D01*
X71749995Y-37885000D01*
X71750000Y-37885001D01*
X72032484Y-37828810D01*
X72088675Y-37817633D01*
X72375790Y-37625790D01*
X72700000Y-37301580D01*
X74865000Y-39466579D01*
X74865000Y-39972274D01*
X74827162Y-39771183D01*
X74688090Y-39555059D01*
X74475890Y-39410069D01*
X74224000Y-39359060D01*
X73716000Y-39359060D01*
X73480683Y-39403338D01*
X73339629Y-39494104D01*
X73313698Y-39468173D01*
X73080309Y-39371500D01*
X72985750Y-39371500D01*
X72827000Y-39530250D01*
X72827000Y-40451000D01*
X72847000Y-40451000D01*
X72847000Y-40705000D01*
X72827000Y-40705000D01*
X72827000Y-41625750D01*
X72985750Y-41784500D01*
X73068947Y-41784500D01*
X73022789Y-45270313D01*
X73014683Y-45271838D01*
X72798559Y-45410910D01*
X72752031Y-45479006D01*
X72609698Y-45336673D01*
X72376309Y-45240000D01*
X71785750Y-45240000D01*
X71627000Y-45398750D01*
X71627000Y-46373000D01*
X71647000Y-46373000D01*
X71647000Y-46627000D01*
X71627000Y-46627000D01*
X71627000Y-47601250D01*
X71785750Y-47760000D01*
X72376309Y-47760000D01*
X72609698Y-47663327D01*
X72750936Y-47522090D01*
X72785910Y-47576441D01*
X72963512Y-47697791D01*
X72942872Y-47868263D01*
X57829077Y-47929513D01*
X57881431Y-47852890D01*
X57915227Y-47686000D01*
X58023203Y-47686000D01*
X58113110Y-47747431D01*
X58365000Y-47798440D01*
X58965000Y-47798440D01*
X59200317Y-47754162D01*
X59364493Y-47648518D01*
X59405302Y-47689327D01*
X59638691Y-47786000D01*
X59779250Y-47786000D01*
X59938000Y-47627250D01*
X59938000Y-46928000D01*
X60192000Y-46928000D01*
X60192000Y-47627250D01*
X60350750Y-47786000D01*
X60491309Y-47786000D01*
X60724698Y-47689327D01*
X60903327Y-47510699D01*
X61000000Y-47277310D01*
X61000000Y-47086750D01*
X60841250Y-46928000D01*
X60192000Y-46928000D01*
X59938000Y-46928000D01*
X59918000Y-46928000D01*
X59918000Y-46785750D01*
X70115000Y-46785750D01*
X70115000Y-47251310D01*
X70211673Y-47484699D01*
X70390302Y-47663327D01*
X70623691Y-47760000D01*
X71214250Y-47760000D01*
X71373000Y-47601250D01*
X71373000Y-46627000D01*
X70273750Y-46627000D01*
X70115000Y-46785750D01*
X59918000Y-46785750D01*
X59918000Y-46674000D01*
X59938000Y-46674000D01*
X59938000Y-45974750D01*
X60192000Y-45974750D01*
X60192000Y-46674000D01*
X60841250Y-46674000D01*
X61000000Y-46515250D01*
X61000000Y-46324690D01*
X60903327Y-46091301D01*
X60724698Y-45912673D01*
X60491309Y-45816000D01*
X60350750Y-45816000D01*
X60192000Y-45974750D01*
X59938000Y-45974750D01*
X59779250Y-45816000D01*
X59638691Y-45816000D01*
X59488000Y-45878418D01*
X59488000Y-45748690D01*
X70115000Y-45748690D01*
X70115000Y-46214250D01*
X70273750Y-46373000D01*
X71373000Y-46373000D01*
X71373000Y-45398750D01*
X71214250Y-45240000D01*
X70623691Y-45240000D01*
X70390302Y-45336673D01*
X70211673Y-45515301D01*
X70115000Y-45748690D01*
X59488000Y-45748690D01*
X59488000Y-45331000D01*
X59420633Y-44992325D01*
X59348827Y-44884859D01*
X59376441Y-44867090D01*
X59521431Y-44654890D01*
X59572440Y-44403000D01*
X59572440Y-43103000D01*
X59528162Y-42867683D01*
X59389090Y-42651559D01*
X59176890Y-42506569D01*
X59065477Y-42484007D01*
X59160317Y-42466162D01*
X59376441Y-42327090D01*
X59521431Y-42114890D01*
X59524851Y-42098000D01*
X60587721Y-42098000D01*
X60710910Y-42289441D01*
X60923110Y-42434431D01*
X61064892Y-42463143D01*
X61075663Y-42517290D01*
X61107367Y-42676675D01*
X61299210Y-42963790D01*
X62206208Y-43870787D01*
X62206210Y-43870790D01*
X62493325Y-44062633D01*
X62543598Y-44072633D01*
X62832000Y-44130001D01*
X62832005Y-44130000D01*
X70286995Y-44130000D01*
X70287000Y-44130001D01*
X70575402Y-44072633D01*
X70625675Y-44062633D01*
X70912790Y-43870790D01*
X72055787Y-42727792D01*
X72055790Y-42727790D01*
X72247633Y-42440675D01*
X72261691Y-42370000D01*
X72315001Y-42102000D01*
X72315000Y-42101995D01*
X72315000Y-41782557D01*
X72319691Y-41784500D01*
X72414250Y-41784500D01*
X72573000Y-41625750D01*
X72573000Y-40705000D01*
X72553000Y-40705000D01*
X72553000Y-40451000D01*
X72573000Y-40451000D01*
X72573000Y-39530250D01*
X72414250Y-39371500D01*
X72319691Y-39371500D01*
X72086302Y-39468173D01*
X72059765Y-39494709D01*
X71935890Y-39410069D01*
X71684000Y-39359060D01*
X71176000Y-39359060D01*
X70940683Y-39403338D01*
X70799629Y-39494104D01*
X70773698Y-39468173D01*
X70540309Y-39371500D01*
X70445750Y-39371500D01*
X70287000Y-39530250D01*
X70287000Y-40451000D01*
X70307000Y-40451000D01*
X70307000Y-40705000D01*
X70287000Y-40705000D01*
X70287000Y-41625750D01*
X70445750Y-41784500D01*
X70495921Y-41784500D01*
X69920420Y-42360000D01*
X65551025Y-42360000D01*
X65713327Y-42197699D01*
X65810000Y-41964310D01*
X65810000Y-41498750D01*
X65651250Y-41340000D01*
X64552000Y-41340000D01*
X64552000Y-41360000D01*
X64298000Y-41360000D01*
X64298000Y-41340000D01*
X64278000Y-41340000D01*
X64278000Y-41086000D01*
X64298000Y-41086000D01*
X64298000Y-40111750D01*
X64552000Y-40111750D01*
X64552000Y-41086000D01*
X65651250Y-41086000D01*
X65810000Y-40927250D01*
X65810000Y-40863750D01*
X69271000Y-40863750D01*
X69271000Y-41275810D01*
X69367673Y-41509199D01*
X69546302Y-41687827D01*
X69779691Y-41784500D01*
X69874250Y-41784500D01*
X70033000Y-41625750D01*
X70033000Y-40705000D01*
X69429750Y-40705000D01*
X69271000Y-40863750D01*
X65810000Y-40863750D01*
X65810000Y-40461690D01*
X65713327Y-40228301D01*
X65534698Y-40049673D01*
X65301309Y-39953000D01*
X64710750Y-39953000D01*
X64552000Y-40111750D01*
X64298000Y-40111750D01*
X64139250Y-39953000D01*
X63548691Y-39953000D01*
X63315302Y-40049673D01*
X63174064Y-40190910D01*
X63139090Y-40136559D01*
X62926890Y-39991569D01*
X62675000Y-39940560D01*
X61175000Y-39940560D01*
X60939683Y-39984838D01*
X60723559Y-40123910D01*
X60584110Y-40328000D01*
X59528222Y-40328000D01*
X59528162Y-40327683D01*
X59389090Y-40111559D01*
X59176890Y-39966569D01*
X58925000Y-39915560D01*
X57425000Y-39915560D01*
X57189683Y-39959838D01*
X56973559Y-40098910D01*
X56828569Y-40311110D01*
X56825919Y-40324197D01*
X56689090Y-40111559D01*
X56476890Y-39966569D01*
X56225000Y-39915560D01*
X54725000Y-39915560D01*
X54489683Y-39959838D01*
X54273559Y-40098910D01*
X54128569Y-40311110D01*
X54077560Y-40563000D01*
X54077560Y-41863000D01*
X54121838Y-42098317D01*
X54260910Y-42314441D01*
X54473110Y-42459431D01*
X54584523Y-42481993D01*
X54489683Y-42499838D01*
X54273559Y-42638910D01*
X54128569Y-42851110D01*
X54078342Y-43099140D01*
X53742490Y-43099140D01*
X53742490Y-43083710D01*
X53698212Y-42848393D01*
X53559140Y-42632269D01*
X53346940Y-42487279D01*
X53095050Y-42436270D01*
X52466958Y-42436270D01*
X52504748Y-42420617D01*
X52683377Y-42241989D01*
X52780050Y-42008600D01*
X52780050Y-41267610D01*
X52621300Y-41108860D01*
X51872000Y-41108860D01*
X51872000Y-42358540D01*
X52019703Y-42506243D01*
X51843509Y-42619620D01*
X51744368Y-42764717D01*
X51659140Y-42632269D01*
X51472082Y-42504458D01*
X51618000Y-42358540D01*
X51618000Y-41108860D01*
X50868700Y-41108860D01*
X50709950Y-41267610D01*
X50709950Y-42008600D01*
X50806623Y-42241989D01*
X50985252Y-42420617D01*
X51023042Y-42436270D01*
X50394950Y-42436270D01*
X50159633Y-42480548D01*
X49943509Y-42619620D01*
X49798519Y-42831820D01*
X49747510Y-43083710D01*
X49747510Y-43780051D01*
X49389560Y-44138000D01*
X49368222Y-44138000D01*
X49368162Y-44137683D01*
X49229090Y-43921559D01*
X49016890Y-43776569D01*
X48765000Y-43725560D01*
X47265000Y-43725560D01*
X47029683Y-43769838D01*
X46813559Y-43908910D01*
X46668569Y-44121110D01*
X46665919Y-44134197D01*
X46529090Y-43921559D01*
X46316890Y-43776569D01*
X46065000Y-43725560D01*
X44565000Y-43725560D01*
X44329683Y-43769838D01*
X44113559Y-43908910D01*
X44011690Y-44058000D01*
X40317038Y-44058000D01*
X40298162Y-43957683D01*
X40159090Y-43741559D01*
X40092238Y-43695881D01*
X40121441Y-43677090D01*
X40266431Y-43464890D01*
X40317440Y-43213000D01*
X40317440Y-41713000D01*
X40273162Y-41477683D01*
X40134090Y-41261559D01*
X40065994Y-41215031D01*
X40208327Y-41072698D01*
X40305000Y-40839309D01*
X40305000Y-40248750D01*
X40146250Y-40090000D01*
X39172000Y-40090000D01*
X39172000Y-40110000D01*
X38918000Y-40110000D01*
X38918000Y-40090000D01*
X37943750Y-40090000D01*
X37785000Y-40248750D01*
X37785000Y-40839309D01*
X37881673Y-41072698D01*
X38022910Y-41213936D01*
X37968559Y-41248910D01*
X37823569Y-41461110D01*
X37772560Y-41713000D01*
X37772560Y-43213000D01*
X37816838Y-43448317D01*
X37955910Y-43664441D01*
X37998511Y-43693549D01*
X37943559Y-43728910D01*
X37798569Y-43941110D01*
X37747560Y-44193000D01*
X37747560Y-45053981D01*
X37010790Y-44317210D01*
X36843404Y-44205367D01*
X36723675Y-44125367D01*
X36667484Y-44114190D01*
X36511783Y-44083218D01*
X36488162Y-43957683D01*
X36349090Y-43741559D01*
X36282238Y-43695881D01*
X36311441Y-43677090D01*
X36456431Y-43464890D01*
X36507440Y-43213000D01*
X36507440Y-41713000D01*
X36463162Y-41477683D01*
X36324090Y-41261559D01*
X36255994Y-41215031D01*
X36398327Y-41072698D01*
X36495000Y-40839309D01*
X36495000Y-40248750D01*
X36336250Y-40090000D01*
X35362000Y-40090000D01*
X35362000Y-40110000D01*
X35108000Y-40110000D01*
X35108000Y-40090000D01*
X34133750Y-40090000D01*
X33975000Y-40248750D01*
X33975000Y-40839309D01*
X34071673Y-41072698D01*
X34212910Y-41213936D01*
X34158559Y-41248910D01*
X34013569Y-41461110D01*
X33962560Y-41713000D01*
X33962560Y-43213000D01*
X34006838Y-43448317D01*
X34145910Y-43664441D01*
X34188511Y-43693549D01*
X34133559Y-43728910D01*
X33988569Y-43941110D01*
X33937560Y-44193000D01*
X33937560Y-45693000D01*
X33981838Y-45928317D01*
X34120910Y-46144441D01*
X34333110Y-46289431D01*
X34346197Y-46292081D01*
X34133559Y-46428910D01*
X33988569Y-46641110D01*
X33952748Y-46818000D01*
X33672440Y-46818000D01*
X33672440Y-46353000D01*
X33628162Y-46117683D01*
X33489090Y-45901559D01*
X33276890Y-45756569D01*
X33025000Y-45705560D01*
X29825000Y-45705560D01*
X29589683Y-45749838D01*
X29373559Y-45888910D01*
X29320986Y-45965854D01*
X28526566Y-45171434D01*
X28474224Y-45136460D01*
X28158346Y-44925397D01*
X27892462Y-44872509D01*
X27869162Y-44748683D01*
X27730090Y-44532559D01*
X27517890Y-44387569D01*
X27266000Y-44336560D01*
X25234000Y-44336560D01*
X24998683Y-44380838D01*
X24782559Y-44519910D01*
X24710000Y-44626104D01*
X24710000Y-42156689D01*
X24755615Y-42266818D01*
X25193621Y-42739188D01*
X25779054Y-43007983D01*
X26035000Y-42889367D01*
X26035000Y-41529000D01*
X26289000Y-41529000D01*
X26289000Y-42889367D01*
X26544946Y-43007983D01*
X27130379Y-42739188D01*
X27568385Y-42266818D01*
X27767975Y-41784944D01*
X27648836Y-41529000D01*
X26289000Y-41529000D01*
X26035000Y-41529000D01*
X26015000Y-41529000D01*
X26015000Y-41275000D01*
X26035000Y-41275000D01*
X26035000Y-41255000D01*
X26289000Y-41255000D01*
X26289000Y-41275000D01*
X27648836Y-41275000D01*
X27767975Y-41019056D01*
X27568385Y-40537182D01*
X27477903Y-40439602D01*
X27629441Y-40342090D01*
X27774431Y-40129890D01*
X27782762Y-40088750D01*
X29190000Y-40088750D01*
X29190000Y-41279309D01*
X29286673Y-41512698D01*
X29465301Y-41691327D01*
X29698690Y-41788000D01*
X31139250Y-41788000D01*
X31298000Y-41629250D01*
X31298000Y-39930000D01*
X31552000Y-39930000D01*
X31552000Y-41629250D01*
X31710750Y-41788000D01*
X33151310Y-41788000D01*
X33384699Y-41691327D01*
X33563327Y-41512698D01*
X33660000Y-41279309D01*
X33660000Y-40088750D01*
X33526370Y-39955120D01*
X50709950Y-39955120D01*
X50709950Y-40696110D01*
X50868700Y-40854860D01*
X51618000Y-40854860D01*
X51618000Y-39605180D01*
X51872000Y-39605180D01*
X51872000Y-40854860D01*
X52621300Y-40854860D01*
X52780050Y-40696110D01*
X52780050Y-39955120D01*
X52749013Y-39880190D01*
X69271000Y-39880190D01*
X69271000Y-40292250D01*
X69429750Y-40451000D01*
X70033000Y-40451000D01*
X70033000Y-39530250D01*
X69874250Y-39371500D01*
X69779691Y-39371500D01*
X69546302Y-39468173D01*
X69367673Y-39646801D01*
X69271000Y-39880190D01*
X52749013Y-39880190D01*
X52683377Y-39721731D01*
X52504748Y-39543103D01*
X52271359Y-39446430D01*
X52030750Y-39446430D01*
X51872000Y-39605180D01*
X51618000Y-39605180D01*
X51459250Y-39446430D01*
X51218641Y-39446430D01*
X50985252Y-39543103D01*
X50806623Y-39721731D01*
X50709950Y-39955120D01*
X33526370Y-39955120D01*
X33501250Y-39930000D01*
X31552000Y-39930000D01*
X31298000Y-39930000D01*
X29348750Y-39930000D01*
X29190000Y-40088750D01*
X27782762Y-40088750D01*
X27825440Y-39878000D01*
X27825440Y-38326691D01*
X29190000Y-38326691D01*
X29190000Y-39517250D01*
X29348750Y-39676000D01*
X31298000Y-39676000D01*
X31298000Y-37976750D01*
X31552000Y-37976750D01*
X31552000Y-39676000D01*
X33501250Y-39676000D01*
X33660000Y-39517250D01*
X33660000Y-39086691D01*
X33975000Y-39086691D01*
X33975000Y-39677250D01*
X34133750Y-39836000D01*
X35108000Y-39836000D01*
X35108000Y-38736750D01*
X35362000Y-38736750D01*
X35362000Y-39836000D01*
X36336250Y-39836000D01*
X36495000Y-39677250D01*
X36495000Y-39086691D01*
X37785000Y-39086691D01*
X37785000Y-39677250D01*
X37943750Y-39836000D01*
X38918000Y-39836000D01*
X38918000Y-38736750D01*
X39172000Y-38736750D01*
X39172000Y-39836000D01*
X40146250Y-39836000D01*
X40305000Y-39677250D01*
X40305000Y-39086691D01*
X40208327Y-38853302D01*
X40029699Y-38674673D01*
X39796310Y-38578000D01*
X39330750Y-38578000D01*
X39172000Y-38736750D01*
X38918000Y-38736750D01*
X38759250Y-38578000D01*
X38293690Y-38578000D01*
X38060301Y-38674673D01*
X37881673Y-38853302D01*
X37785000Y-39086691D01*
X36495000Y-39086691D01*
X36398327Y-38853302D01*
X36219699Y-38674673D01*
X35986310Y-38578000D01*
X35520750Y-38578000D01*
X35362000Y-38736750D01*
X35108000Y-38736750D01*
X34949250Y-38578000D01*
X34483690Y-38578000D01*
X34250301Y-38674673D01*
X34071673Y-38853302D01*
X33975000Y-39086691D01*
X33660000Y-39086691D01*
X33660000Y-38326691D01*
X33563327Y-38093302D01*
X33384699Y-37914673D01*
X33151310Y-37818000D01*
X31710750Y-37818000D01*
X31552000Y-37976750D01*
X31298000Y-37976750D01*
X31139250Y-37818000D01*
X29698690Y-37818000D01*
X29465301Y-37914673D01*
X29286673Y-38093302D01*
X29190000Y-38326691D01*
X27825440Y-38326691D01*
X27825440Y-37846000D01*
X27781162Y-37610683D01*
X27642090Y-37394559D01*
X27429890Y-37249569D01*
X27178000Y-37198560D01*
X25146000Y-37198560D01*
X24910683Y-37242838D01*
X24710000Y-37371974D01*
X24710000Y-34832229D01*
X24843615Y-35154818D01*
X25281621Y-35627188D01*
X25867054Y-35895983D01*
X26123000Y-35777367D01*
X26123000Y-34417000D01*
X26377000Y-34417000D01*
X26377000Y-35777367D01*
X26632946Y-35895983D01*
X27218379Y-35627188D01*
X27656385Y-35154818D01*
X27855975Y-34672944D01*
X27736836Y-34417000D01*
X26377000Y-34417000D01*
X26123000Y-34417000D01*
X26103000Y-34417000D01*
X26103000Y-34163000D01*
X26123000Y-34163000D01*
X26123000Y-34143000D01*
X26377000Y-34143000D01*
X26377000Y-34163000D01*
X27736836Y-34163000D01*
X27838806Y-33943939D01*
X28430433Y-34535566D01*
X28798654Y-34781603D01*
X29177560Y-34856972D01*
X29177560Y-35083000D01*
X29221838Y-35318317D01*
X29360910Y-35534441D01*
X29573110Y-35679431D01*
X29825000Y-35730440D01*
X33025000Y-35730440D01*
X33260317Y-35686162D01*
X33476441Y-35547090D01*
X33621431Y-35334890D01*
X33672440Y-35083000D01*
X33672440Y-34618000D01*
X33974252Y-34618000D01*
X33981838Y-34658317D01*
X34120910Y-34874441D01*
X34333110Y-35019431D01*
X34585000Y-35070440D01*
X35885000Y-35070440D01*
X36120317Y-35026162D01*
X36336441Y-34887090D01*
X36481431Y-34674890D01*
X36532440Y-34423000D01*
X36532440Y-33856020D01*
X36975208Y-34298787D01*
M02*
