G04 #@! TF.FileFunction,Legend,Top*
%FSLAX46Y46*%
G04 Gerber Fmt 4.6, Leading zero omitted, Abs format (unit mm)*
G04 Created by KiCad (PCBNEW 4.0.7) date Sat Jan  5 20:39:28 2019*
%MOMM*%
%LPD*%
G01*
G04 APERTURE LIST*
%ADD10C,0.100000*%
%ADD11C,0.150000*%
G04 APERTURE END LIST*
D10*
D11*
X79769000Y-29285000D02*
X79769000Y-47065000D01*
X79769000Y-47065000D02*
X77229000Y-47065000D01*
X77229000Y-47065000D02*
X77229000Y-29285000D01*
X80049000Y-26465000D02*
X80049000Y-28015000D01*
X79769000Y-29285000D02*
X77229000Y-29285000D01*
X76949000Y-28015000D02*
X76949000Y-26465000D01*
X76949000Y-26465000D02*
X80049000Y-26465000D01*
X36085000Y-32685000D02*
X36085000Y-31685000D01*
X34385000Y-31685000D02*
X34385000Y-32685000D01*
X39895000Y-32685000D02*
X39895000Y-31685000D01*
X38195000Y-31685000D02*
X38195000Y-32685000D01*
X63675000Y-31335000D02*
X62675000Y-31335000D01*
X62675000Y-33035000D02*
X63675000Y-33035000D01*
X72327000Y-27955000D02*
X73327000Y-27955000D01*
X73327000Y-26255000D02*
X72327000Y-26255000D01*
X54777000Y-25318000D02*
X52777000Y-25318000D01*
X52777000Y-27368000D02*
X54777000Y-27368000D01*
X74600000Y-43250000D02*
X74600000Y-42250000D01*
X72900000Y-42250000D02*
X72900000Y-43250000D01*
X80443000Y-33865000D02*
X80443000Y-34865000D01*
X82143000Y-34865000D02*
X82143000Y-33865000D01*
X36085000Y-46655000D02*
X36085000Y-45655000D01*
X34385000Y-45655000D02*
X34385000Y-46655000D01*
X39895000Y-46655000D02*
X39895000Y-45655000D01*
X38195000Y-45655000D02*
X38195000Y-46655000D01*
X63675000Y-45305000D02*
X62675000Y-45305000D01*
X62675000Y-47005000D02*
X63675000Y-47005000D01*
X68263000Y-43703000D02*
X69263000Y-43703000D01*
X69263000Y-42003000D02*
X68263000Y-42003000D01*
X54777000Y-39288000D02*
X52777000Y-39288000D01*
X52777000Y-41338000D02*
X54777000Y-41338000D01*
X53244820Y-30864200D02*
X53244820Y-31565240D01*
X53244820Y-31565240D02*
X52995900Y-31565240D01*
X50445840Y-31565240D02*
X50245180Y-31565240D01*
X50245180Y-31565240D02*
X50245180Y-30864200D01*
X59457000Y-25743000D02*
X57857000Y-25743000D01*
X59457000Y-26943000D02*
X57857000Y-26943000D01*
X53244820Y-44834200D02*
X53244820Y-45535240D01*
X53244820Y-45535240D02*
X52995900Y-45535240D01*
X50445840Y-45535240D02*
X50245180Y-45535240D01*
X50245180Y-45535240D02*
X50245180Y-44834200D01*
X59457000Y-39713000D02*
X57857000Y-39713000D01*
X59457000Y-40913000D02*
X57857000Y-40913000D01*
X27432000Y-25908000D02*
X27432000Y-28448000D01*
X27712000Y-23088000D02*
X27712000Y-24638000D01*
X27432000Y-25908000D02*
X24892000Y-25908000D01*
X24612000Y-24638000D02*
X24612000Y-23088000D01*
X24612000Y-23088000D02*
X27712000Y-23088000D01*
X24892000Y-25908000D02*
X24892000Y-28448000D01*
X24892000Y-28448000D02*
X27432000Y-28448000D01*
X27432000Y-40132000D02*
X27432000Y-42672000D01*
X27712000Y-37312000D02*
X27712000Y-38862000D01*
X27432000Y-40132000D02*
X24892000Y-40132000D01*
X24612000Y-38862000D02*
X24612000Y-37312000D01*
X24612000Y-37312000D02*
X27712000Y-37312000D01*
X24892000Y-40132000D02*
X24892000Y-42672000D01*
X24892000Y-42672000D02*
X27432000Y-42672000D01*
X27520000Y-47270000D02*
X27520000Y-49810000D01*
X27800000Y-44450000D02*
X27800000Y-46000000D01*
X27520000Y-47270000D02*
X24980000Y-47270000D01*
X24700000Y-46000000D02*
X24700000Y-44450000D01*
X24700000Y-44450000D02*
X27800000Y-44450000D01*
X24980000Y-47270000D02*
X24980000Y-49810000D01*
X24980000Y-49810000D02*
X27520000Y-49810000D01*
X27520000Y-33020000D02*
X27520000Y-35560000D01*
X27800000Y-30200000D02*
X27800000Y-31750000D01*
X27520000Y-33020000D02*
X24980000Y-33020000D01*
X24700000Y-31750000D02*
X24700000Y-30200000D01*
X24700000Y-30200000D02*
X27800000Y-30200000D01*
X24980000Y-33020000D02*
X24980000Y-35560000D01*
X24980000Y-35560000D02*
X27520000Y-35560000D01*
X42460000Y-26505000D02*
X42460000Y-27705000D01*
X40710000Y-27705000D02*
X40710000Y-26505000D01*
X47265000Y-26710000D02*
X46065000Y-26710000D01*
X46065000Y-24960000D02*
X47265000Y-24960000D01*
X81963000Y-37300000D02*
X83163000Y-37300000D01*
X83163000Y-39050000D02*
X81963000Y-39050000D01*
X36110000Y-26505000D02*
X36110000Y-27705000D01*
X34360000Y-27705000D02*
X34360000Y-26505000D01*
X47265000Y-29250000D02*
X46065000Y-29250000D01*
X46065000Y-27500000D02*
X47265000Y-27500000D01*
X56225000Y-31310000D02*
X57425000Y-31310000D01*
X57425000Y-33060000D02*
X56225000Y-33060000D01*
X39920000Y-26505000D02*
X39920000Y-27705000D01*
X38170000Y-27705000D02*
X38170000Y-26505000D01*
X29600000Y-32245000D02*
X29600000Y-27045000D01*
X33250000Y-27045000D02*
X33250000Y-32245000D01*
X56225000Y-28770000D02*
X57425000Y-28770000D01*
X57425000Y-30520000D02*
X56225000Y-30520000D01*
X39920000Y-40475000D02*
X39920000Y-41675000D01*
X38170000Y-41675000D02*
X38170000Y-40475000D01*
X47265000Y-40680000D02*
X46065000Y-40680000D01*
X46065000Y-38930000D02*
X47265000Y-38930000D01*
X81963000Y-39840000D02*
X83163000Y-39840000D01*
X83163000Y-41590000D02*
X81963000Y-41590000D01*
X36110000Y-40475000D02*
X36110000Y-41675000D01*
X34360000Y-41675000D02*
X34360000Y-40475000D01*
X47265000Y-43220000D02*
X46065000Y-43220000D01*
X46065000Y-41470000D02*
X47265000Y-41470000D01*
X56225000Y-45280000D02*
X57425000Y-45280000D01*
X57425000Y-47030000D02*
X56225000Y-47030000D01*
X42460000Y-40475000D02*
X42460000Y-41675000D01*
X40710000Y-41675000D02*
X40710000Y-40475000D01*
X29600000Y-46215000D02*
X29600000Y-41015000D01*
X33250000Y-41015000D02*
X33250000Y-46215000D01*
X56225000Y-42740000D02*
X57425000Y-42740000D01*
X57425000Y-44490000D02*
X56225000Y-44490000D01*
X81900000Y-44875000D02*
X83100000Y-44875000D01*
X83100000Y-46625000D02*
X81900000Y-46625000D01*
X81900000Y-42375000D02*
X83100000Y-42375000D01*
X83100000Y-44125000D02*
X81900000Y-44125000D01*
X74605000Y-38281000D02*
X69525000Y-38281000D01*
X69525000Y-38281000D02*
X69525000Y-33709000D01*
X69525000Y-33709000D02*
X74605000Y-33709000D01*
X74605000Y-33709000D02*
X74605000Y-38281000D01*
X74605000Y-36757000D02*
X74097000Y-36757000D01*
X74097000Y-36757000D02*
X74097000Y-35487000D01*
X74097000Y-35487000D02*
X74605000Y-35487000D01*
X75511905Y-24452381D02*
X75511905Y-23452381D01*
X75892858Y-23452381D01*
X75988096Y-23500000D01*
X76035715Y-23547619D01*
X76083334Y-23642857D01*
X76083334Y-23785714D01*
X76035715Y-23880952D01*
X75988096Y-23928571D01*
X75892858Y-23976190D01*
X75511905Y-23976190D01*
X76988096Y-23452381D02*
X76511905Y-23452381D01*
X76464286Y-23928571D01*
X76511905Y-23880952D01*
X76607143Y-23833333D01*
X76845239Y-23833333D01*
X76940477Y-23880952D01*
X76988096Y-23928571D01*
X77035715Y-24023810D01*
X77035715Y-24261905D01*
X76988096Y-24357143D01*
X76940477Y-24404762D01*
X76845239Y-24452381D01*
X76607143Y-24452381D01*
X76511905Y-24404762D01*
X76464286Y-24357143D01*
X37692143Y-32351666D02*
X37739762Y-32399285D01*
X37787381Y-32542142D01*
X37787381Y-32637380D01*
X37739762Y-32780238D01*
X37644524Y-32875476D01*
X37549286Y-32923095D01*
X37358810Y-32970714D01*
X37215952Y-32970714D01*
X37025476Y-32923095D01*
X36930238Y-32875476D01*
X36835000Y-32780238D01*
X36787381Y-32637380D01*
X36787381Y-32542142D01*
X36835000Y-32399285D01*
X36882619Y-32351666D01*
X37787381Y-31399285D02*
X37787381Y-31970714D01*
X37787381Y-31685000D02*
X36787381Y-31685000D01*
X36930238Y-31780238D01*
X37025476Y-31875476D01*
X37073095Y-31970714D01*
X41502143Y-32351666D02*
X41549762Y-32399285D01*
X41597381Y-32542142D01*
X41597381Y-32637380D01*
X41549762Y-32780238D01*
X41454524Y-32875476D01*
X41359286Y-32923095D01*
X41168810Y-32970714D01*
X41025952Y-32970714D01*
X40835476Y-32923095D01*
X40740238Y-32875476D01*
X40645000Y-32780238D01*
X40597381Y-32637380D01*
X40597381Y-32542142D01*
X40645000Y-32399285D01*
X40692619Y-32351666D01*
X40692619Y-31970714D02*
X40645000Y-31923095D01*
X40597381Y-31827857D01*
X40597381Y-31589761D01*
X40645000Y-31494523D01*
X40692619Y-31446904D01*
X40787857Y-31399285D01*
X40883095Y-31399285D01*
X41025952Y-31446904D01*
X41597381Y-32018333D01*
X41597381Y-31399285D01*
X63008334Y-30442143D02*
X62960715Y-30489762D01*
X62817858Y-30537381D01*
X62722620Y-30537381D01*
X62579762Y-30489762D01*
X62484524Y-30394524D01*
X62436905Y-30299286D01*
X62389286Y-30108810D01*
X62389286Y-29965952D01*
X62436905Y-29775476D01*
X62484524Y-29680238D01*
X62579762Y-29585000D01*
X62722620Y-29537381D01*
X62817858Y-29537381D01*
X62960715Y-29585000D01*
X63008334Y-29632619D01*
X63341667Y-29537381D02*
X63960715Y-29537381D01*
X63627381Y-29918333D01*
X63770239Y-29918333D01*
X63865477Y-29965952D01*
X63913096Y-30013571D01*
X63960715Y-30108810D01*
X63960715Y-30346905D01*
X63913096Y-30442143D01*
X63865477Y-30489762D01*
X63770239Y-30537381D01*
X63484524Y-30537381D01*
X63389286Y-30489762D01*
X63341667Y-30442143D01*
X72660334Y-29562143D02*
X72612715Y-29609762D01*
X72469858Y-29657381D01*
X72374620Y-29657381D01*
X72231762Y-29609762D01*
X72136524Y-29514524D01*
X72088905Y-29419286D01*
X72041286Y-29228810D01*
X72041286Y-29085952D01*
X72088905Y-28895476D01*
X72136524Y-28800238D01*
X72231762Y-28705000D01*
X72374620Y-28657381D01*
X72469858Y-28657381D01*
X72612715Y-28705000D01*
X72660334Y-28752619D01*
X73517477Y-28990714D02*
X73517477Y-29657381D01*
X73279381Y-28609762D02*
X73041286Y-29324048D01*
X73660334Y-29324048D01*
X53610334Y-24400143D02*
X53562715Y-24447762D01*
X53419858Y-24495381D01*
X53324620Y-24495381D01*
X53181762Y-24447762D01*
X53086524Y-24352524D01*
X53038905Y-24257286D01*
X52991286Y-24066810D01*
X52991286Y-23923952D01*
X53038905Y-23733476D01*
X53086524Y-23638238D01*
X53181762Y-23543000D01*
X53324620Y-23495381D01*
X53419858Y-23495381D01*
X53562715Y-23543000D01*
X53610334Y-23590619D01*
X54515096Y-23495381D02*
X54038905Y-23495381D01*
X53991286Y-23971571D01*
X54038905Y-23923952D01*
X54134143Y-23876333D01*
X54372239Y-23876333D01*
X54467477Y-23923952D01*
X54515096Y-23971571D01*
X54562715Y-24066810D01*
X54562715Y-24304905D01*
X54515096Y-24400143D01*
X54467477Y-24447762D01*
X54372239Y-24495381D01*
X54134143Y-24495381D01*
X54038905Y-24447762D01*
X53991286Y-24400143D01*
X76207143Y-42916666D02*
X76254762Y-42964285D01*
X76302381Y-43107142D01*
X76302381Y-43202380D01*
X76254762Y-43345238D01*
X76159524Y-43440476D01*
X76064286Y-43488095D01*
X75873810Y-43535714D01*
X75730952Y-43535714D01*
X75540476Y-43488095D01*
X75445238Y-43440476D01*
X75350000Y-43345238D01*
X75302381Y-43202380D01*
X75302381Y-43107142D01*
X75350000Y-42964285D01*
X75397619Y-42916666D01*
X75302381Y-42059523D02*
X75302381Y-42250000D01*
X75350000Y-42345238D01*
X75397619Y-42392857D01*
X75540476Y-42488095D01*
X75730952Y-42535714D01*
X76111905Y-42535714D01*
X76207143Y-42488095D01*
X76254762Y-42440476D01*
X76302381Y-42345238D01*
X76302381Y-42154761D01*
X76254762Y-42059523D01*
X76207143Y-42011904D01*
X76111905Y-41964285D01*
X75873810Y-41964285D01*
X75778571Y-42011904D01*
X75730952Y-42059523D01*
X75683333Y-42154761D01*
X75683333Y-42345238D01*
X75730952Y-42440476D01*
X75778571Y-42488095D01*
X75873810Y-42535714D01*
X79550143Y-34531666D02*
X79597762Y-34579285D01*
X79645381Y-34722142D01*
X79645381Y-34817380D01*
X79597762Y-34960238D01*
X79502524Y-35055476D01*
X79407286Y-35103095D01*
X79216810Y-35150714D01*
X79073952Y-35150714D01*
X78883476Y-35103095D01*
X78788238Y-35055476D01*
X78693000Y-34960238D01*
X78645381Y-34817380D01*
X78645381Y-34722142D01*
X78693000Y-34579285D01*
X78740619Y-34531666D01*
X79073952Y-33960238D02*
X79026333Y-34055476D01*
X78978714Y-34103095D01*
X78883476Y-34150714D01*
X78835857Y-34150714D01*
X78740619Y-34103095D01*
X78693000Y-34055476D01*
X78645381Y-33960238D01*
X78645381Y-33769761D01*
X78693000Y-33674523D01*
X78740619Y-33626904D01*
X78835857Y-33579285D01*
X78883476Y-33579285D01*
X78978714Y-33626904D01*
X79026333Y-33674523D01*
X79073952Y-33769761D01*
X79073952Y-33960238D01*
X79121571Y-34055476D01*
X79169190Y-34103095D01*
X79264429Y-34150714D01*
X79454905Y-34150714D01*
X79550143Y-34103095D01*
X79597762Y-34055476D01*
X79645381Y-33960238D01*
X79645381Y-33769761D01*
X79597762Y-33674523D01*
X79550143Y-33626904D01*
X79454905Y-33579285D01*
X79264429Y-33579285D01*
X79169190Y-33626904D01*
X79121571Y-33674523D01*
X79073952Y-33769761D01*
X37692143Y-46321666D02*
X37739762Y-46369285D01*
X37787381Y-46512142D01*
X37787381Y-46607380D01*
X37739762Y-46750238D01*
X37644524Y-46845476D01*
X37549286Y-46893095D01*
X37358810Y-46940714D01*
X37215952Y-46940714D01*
X37025476Y-46893095D01*
X36930238Y-46845476D01*
X36835000Y-46750238D01*
X36787381Y-46607380D01*
X36787381Y-46512142D01*
X36835000Y-46369285D01*
X36882619Y-46321666D01*
X37787381Y-45845476D02*
X37787381Y-45655000D01*
X37739762Y-45559761D01*
X37692143Y-45512142D01*
X37549286Y-45416904D01*
X37358810Y-45369285D01*
X36977857Y-45369285D01*
X36882619Y-45416904D01*
X36835000Y-45464523D01*
X36787381Y-45559761D01*
X36787381Y-45750238D01*
X36835000Y-45845476D01*
X36882619Y-45893095D01*
X36977857Y-45940714D01*
X37215952Y-45940714D01*
X37311190Y-45893095D01*
X37358810Y-45845476D01*
X37406429Y-45750238D01*
X37406429Y-45559761D01*
X37358810Y-45464523D01*
X37311190Y-45416904D01*
X37215952Y-45369285D01*
X41502143Y-46797857D02*
X41549762Y-46845476D01*
X41597381Y-46988333D01*
X41597381Y-47083571D01*
X41549762Y-47226429D01*
X41454524Y-47321667D01*
X41359286Y-47369286D01*
X41168810Y-47416905D01*
X41025952Y-47416905D01*
X40835476Y-47369286D01*
X40740238Y-47321667D01*
X40645000Y-47226429D01*
X40597381Y-47083571D01*
X40597381Y-46988333D01*
X40645000Y-46845476D01*
X40692619Y-46797857D01*
X41597381Y-45845476D02*
X41597381Y-46416905D01*
X41597381Y-46131191D02*
X40597381Y-46131191D01*
X40740238Y-46226429D01*
X40835476Y-46321667D01*
X40883095Y-46416905D01*
X40597381Y-45226429D02*
X40597381Y-45131190D01*
X40645000Y-45035952D01*
X40692619Y-44988333D01*
X40787857Y-44940714D01*
X40978333Y-44893095D01*
X41216429Y-44893095D01*
X41406905Y-44940714D01*
X41502143Y-44988333D01*
X41549762Y-45035952D01*
X41597381Y-45131190D01*
X41597381Y-45226429D01*
X41549762Y-45321667D01*
X41502143Y-45369286D01*
X41406905Y-45416905D01*
X41216429Y-45464524D01*
X40978333Y-45464524D01*
X40787857Y-45416905D01*
X40692619Y-45369286D01*
X40645000Y-45321667D01*
X40597381Y-45226429D01*
X62532143Y-44412143D02*
X62484524Y-44459762D01*
X62341667Y-44507381D01*
X62246429Y-44507381D01*
X62103571Y-44459762D01*
X62008333Y-44364524D01*
X61960714Y-44269286D01*
X61913095Y-44078810D01*
X61913095Y-43935952D01*
X61960714Y-43745476D01*
X62008333Y-43650238D01*
X62103571Y-43555000D01*
X62246429Y-43507381D01*
X62341667Y-43507381D01*
X62484524Y-43555000D01*
X62532143Y-43602619D01*
X63484524Y-44507381D02*
X62913095Y-44507381D01*
X63198809Y-44507381D02*
X63198809Y-43507381D01*
X63103571Y-43650238D01*
X63008333Y-43745476D01*
X62913095Y-43793095D01*
X64436905Y-44507381D02*
X63865476Y-44507381D01*
X64151190Y-44507381D02*
X64151190Y-43507381D01*
X64055952Y-43650238D01*
X63960714Y-43745476D01*
X63865476Y-43793095D01*
X68120143Y-45310143D02*
X68072524Y-45357762D01*
X67929667Y-45405381D01*
X67834429Y-45405381D01*
X67691571Y-45357762D01*
X67596333Y-45262524D01*
X67548714Y-45167286D01*
X67501095Y-44976810D01*
X67501095Y-44833952D01*
X67548714Y-44643476D01*
X67596333Y-44548238D01*
X67691571Y-44453000D01*
X67834429Y-44405381D01*
X67929667Y-44405381D01*
X68072524Y-44453000D01*
X68120143Y-44500619D01*
X69072524Y-45405381D02*
X68501095Y-45405381D01*
X68786809Y-45405381D02*
X68786809Y-44405381D01*
X68691571Y-44548238D01*
X68596333Y-44643476D01*
X68501095Y-44691095D01*
X69453476Y-44500619D02*
X69501095Y-44453000D01*
X69596333Y-44405381D01*
X69834429Y-44405381D01*
X69929667Y-44453000D01*
X69977286Y-44500619D01*
X70024905Y-44595857D01*
X70024905Y-44691095D01*
X69977286Y-44833952D01*
X69405857Y-45405381D01*
X70024905Y-45405381D01*
X53134143Y-38370143D02*
X53086524Y-38417762D01*
X52943667Y-38465381D01*
X52848429Y-38465381D01*
X52705571Y-38417762D01*
X52610333Y-38322524D01*
X52562714Y-38227286D01*
X52515095Y-38036810D01*
X52515095Y-37893952D01*
X52562714Y-37703476D01*
X52610333Y-37608238D01*
X52705571Y-37513000D01*
X52848429Y-37465381D01*
X52943667Y-37465381D01*
X53086524Y-37513000D01*
X53134143Y-37560619D01*
X54086524Y-38465381D02*
X53515095Y-38465381D01*
X53800809Y-38465381D02*
X53800809Y-37465381D01*
X53705571Y-37608238D01*
X53610333Y-37703476D01*
X53515095Y-37751095D01*
X54419857Y-37465381D02*
X55038905Y-37465381D01*
X54705571Y-37846333D01*
X54848429Y-37846333D01*
X54943667Y-37893952D01*
X54991286Y-37941571D01*
X55038905Y-38036810D01*
X55038905Y-38274905D01*
X54991286Y-38370143D01*
X54943667Y-38417762D01*
X54848429Y-38465381D01*
X54562714Y-38465381D01*
X54467476Y-38417762D01*
X54419857Y-38370143D01*
X51006905Y-35177381D02*
X51006905Y-34177381D01*
X51245000Y-34177381D01*
X51387858Y-34225000D01*
X51483096Y-34320238D01*
X51530715Y-34415476D01*
X51578334Y-34605952D01*
X51578334Y-34748810D01*
X51530715Y-34939286D01*
X51483096Y-35034524D01*
X51387858Y-35129762D01*
X51245000Y-35177381D01*
X51006905Y-35177381D01*
X52530715Y-35177381D02*
X51959286Y-35177381D01*
X52245000Y-35177381D02*
X52245000Y-34177381D01*
X52149762Y-34320238D01*
X52054524Y-34415476D01*
X51959286Y-34463095D01*
X58118905Y-25295381D02*
X58118905Y-24295381D01*
X58357000Y-24295381D01*
X58499858Y-24343000D01*
X58595096Y-24438238D01*
X58642715Y-24533476D01*
X58690334Y-24723952D01*
X58690334Y-24866810D01*
X58642715Y-25057286D01*
X58595096Y-25152524D01*
X58499858Y-25247762D01*
X58357000Y-25295381D01*
X58118905Y-25295381D01*
X59071286Y-24390619D02*
X59118905Y-24343000D01*
X59214143Y-24295381D01*
X59452239Y-24295381D01*
X59547477Y-24343000D01*
X59595096Y-24390619D01*
X59642715Y-24485857D01*
X59642715Y-24581095D01*
X59595096Y-24723952D01*
X59023667Y-25295381D01*
X59642715Y-25295381D01*
X51006905Y-49147381D02*
X51006905Y-48147381D01*
X51245000Y-48147381D01*
X51387858Y-48195000D01*
X51483096Y-48290238D01*
X51530715Y-48385476D01*
X51578334Y-48575952D01*
X51578334Y-48718810D01*
X51530715Y-48909286D01*
X51483096Y-49004524D01*
X51387858Y-49099762D01*
X51245000Y-49147381D01*
X51006905Y-49147381D01*
X51911667Y-48147381D02*
X52530715Y-48147381D01*
X52197381Y-48528333D01*
X52340239Y-48528333D01*
X52435477Y-48575952D01*
X52483096Y-48623571D01*
X52530715Y-48718810D01*
X52530715Y-48956905D01*
X52483096Y-49052143D01*
X52435477Y-49099762D01*
X52340239Y-49147381D01*
X52054524Y-49147381D01*
X51959286Y-49099762D01*
X51911667Y-49052143D01*
X58118905Y-39265381D02*
X58118905Y-38265381D01*
X58357000Y-38265381D01*
X58499858Y-38313000D01*
X58595096Y-38408238D01*
X58642715Y-38503476D01*
X58690334Y-38693952D01*
X58690334Y-38836810D01*
X58642715Y-39027286D01*
X58595096Y-39122524D01*
X58499858Y-39217762D01*
X58357000Y-39265381D01*
X58118905Y-39265381D01*
X59547477Y-38598714D02*
X59547477Y-39265381D01*
X59309381Y-38217762D02*
X59071286Y-38932048D01*
X59690334Y-38932048D01*
X28011905Y-23952381D02*
X28011905Y-22952381D01*
X28392858Y-22952381D01*
X28488096Y-23000000D01*
X28535715Y-23047619D01*
X28583334Y-23142857D01*
X28583334Y-23285714D01*
X28535715Y-23380952D01*
X28488096Y-23428571D01*
X28392858Y-23476190D01*
X28011905Y-23476190D01*
X29535715Y-23952381D02*
X28964286Y-23952381D01*
X29250000Y-23952381D02*
X29250000Y-22952381D01*
X29154762Y-23095238D01*
X29059524Y-23190476D01*
X28964286Y-23238095D01*
X25511905Y-37202381D02*
X25511905Y-36202381D01*
X25892858Y-36202381D01*
X25988096Y-36250000D01*
X26035715Y-36297619D01*
X26083334Y-36392857D01*
X26083334Y-36535714D01*
X26035715Y-36630952D01*
X25988096Y-36678571D01*
X25892858Y-36726190D01*
X25511905Y-36726190D01*
X26464286Y-36297619D02*
X26511905Y-36250000D01*
X26607143Y-36202381D01*
X26845239Y-36202381D01*
X26940477Y-36250000D01*
X26988096Y-36297619D01*
X27035715Y-36392857D01*
X27035715Y-36488095D01*
X26988096Y-36630952D01*
X26416667Y-37202381D01*
X27035715Y-37202381D01*
X25511905Y-44452381D02*
X25511905Y-43452381D01*
X25892858Y-43452381D01*
X25988096Y-43500000D01*
X26035715Y-43547619D01*
X26083334Y-43642857D01*
X26083334Y-43785714D01*
X26035715Y-43880952D01*
X25988096Y-43928571D01*
X25892858Y-43976190D01*
X25511905Y-43976190D01*
X26416667Y-43452381D02*
X27035715Y-43452381D01*
X26702381Y-43833333D01*
X26845239Y-43833333D01*
X26940477Y-43880952D01*
X26988096Y-43928571D01*
X27035715Y-44023810D01*
X27035715Y-44261905D01*
X26988096Y-44357143D01*
X26940477Y-44404762D01*
X26845239Y-44452381D01*
X26559524Y-44452381D01*
X26464286Y-44404762D01*
X26416667Y-44357143D01*
X25511905Y-30202381D02*
X25511905Y-29202381D01*
X25892858Y-29202381D01*
X25988096Y-29250000D01*
X26035715Y-29297619D01*
X26083334Y-29392857D01*
X26083334Y-29535714D01*
X26035715Y-29630952D01*
X25988096Y-29678571D01*
X25892858Y-29726190D01*
X25511905Y-29726190D01*
X26940477Y-29535714D02*
X26940477Y-30202381D01*
X26702381Y-29154762D02*
X26464286Y-29869048D01*
X27083334Y-29869048D01*
X39937381Y-27271666D02*
X39461190Y-27605000D01*
X39937381Y-27843095D02*
X38937381Y-27843095D01*
X38937381Y-27462142D01*
X38985000Y-27366904D01*
X39032619Y-27319285D01*
X39127857Y-27271666D01*
X39270714Y-27271666D01*
X39365952Y-27319285D01*
X39413571Y-27366904D01*
X39461190Y-27462142D01*
X39461190Y-27843095D01*
X39937381Y-26319285D02*
X39937381Y-26890714D01*
X39937381Y-26605000D02*
X38937381Y-26605000D01*
X39080238Y-26700238D01*
X39175476Y-26795476D01*
X39223095Y-26890714D01*
X46498334Y-24187381D02*
X46165000Y-23711190D01*
X45926905Y-24187381D02*
X45926905Y-23187381D01*
X46307858Y-23187381D01*
X46403096Y-23235000D01*
X46450715Y-23282619D01*
X46498334Y-23377857D01*
X46498334Y-23520714D01*
X46450715Y-23615952D01*
X46403096Y-23663571D01*
X46307858Y-23711190D01*
X45926905Y-23711190D01*
X46879286Y-23282619D02*
X46926905Y-23235000D01*
X47022143Y-23187381D01*
X47260239Y-23187381D01*
X47355477Y-23235000D01*
X47403096Y-23282619D01*
X47450715Y-23377857D01*
X47450715Y-23473095D01*
X47403096Y-23615952D01*
X46831667Y-24187381D01*
X47450715Y-24187381D01*
X82396334Y-40727381D02*
X82063000Y-40251190D01*
X81824905Y-40727381D02*
X81824905Y-39727381D01*
X82205858Y-39727381D01*
X82301096Y-39775000D01*
X82348715Y-39822619D01*
X82396334Y-39917857D01*
X82396334Y-40060714D01*
X82348715Y-40155952D01*
X82301096Y-40203571D01*
X82205858Y-40251190D01*
X81824905Y-40251190D01*
X82729667Y-39727381D02*
X83348715Y-39727381D01*
X83015381Y-40108333D01*
X83158239Y-40108333D01*
X83253477Y-40155952D01*
X83301096Y-40203571D01*
X83348715Y-40298810D01*
X83348715Y-40536905D01*
X83301096Y-40632143D01*
X83253477Y-40679762D01*
X83158239Y-40727381D01*
X82872524Y-40727381D01*
X82777286Y-40679762D01*
X82729667Y-40632143D01*
X33587381Y-27271666D02*
X33111190Y-27605000D01*
X33587381Y-27843095D02*
X32587381Y-27843095D01*
X32587381Y-27462142D01*
X32635000Y-27366904D01*
X32682619Y-27319285D01*
X32777857Y-27271666D01*
X32920714Y-27271666D01*
X33015952Y-27319285D01*
X33063571Y-27366904D01*
X33111190Y-27462142D01*
X33111190Y-27843095D01*
X32920714Y-26414523D02*
X33587381Y-26414523D01*
X32539762Y-26652619D02*
X33254048Y-26890714D01*
X33254048Y-26271666D01*
X46498334Y-26727381D02*
X46165000Y-26251190D01*
X45926905Y-26727381D02*
X45926905Y-25727381D01*
X46307858Y-25727381D01*
X46403096Y-25775000D01*
X46450715Y-25822619D01*
X46498334Y-25917857D01*
X46498334Y-26060714D01*
X46450715Y-26155952D01*
X46403096Y-26203571D01*
X46307858Y-26251190D01*
X45926905Y-26251190D01*
X47403096Y-25727381D02*
X46926905Y-25727381D01*
X46879286Y-26203571D01*
X46926905Y-26155952D01*
X47022143Y-26108333D01*
X47260239Y-26108333D01*
X47355477Y-26155952D01*
X47403096Y-26203571D01*
X47450715Y-26298810D01*
X47450715Y-26536905D01*
X47403096Y-26632143D01*
X47355477Y-26679762D01*
X47260239Y-26727381D01*
X47022143Y-26727381D01*
X46926905Y-26679762D01*
X46879286Y-26632143D01*
X56658334Y-34737381D02*
X56325000Y-34261190D01*
X56086905Y-34737381D02*
X56086905Y-33737381D01*
X56467858Y-33737381D01*
X56563096Y-33785000D01*
X56610715Y-33832619D01*
X56658334Y-33927857D01*
X56658334Y-34070714D01*
X56610715Y-34165952D01*
X56563096Y-34213571D01*
X56467858Y-34261190D01*
X56086905Y-34261190D01*
X57515477Y-33737381D02*
X57325000Y-33737381D01*
X57229762Y-33785000D01*
X57182143Y-33832619D01*
X57086905Y-33975476D01*
X57039286Y-34165952D01*
X57039286Y-34546905D01*
X57086905Y-34642143D01*
X57134524Y-34689762D01*
X57229762Y-34737381D01*
X57420239Y-34737381D01*
X57515477Y-34689762D01*
X57563096Y-34642143D01*
X57610715Y-34546905D01*
X57610715Y-34308810D01*
X57563096Y-34213571D01*
X57515477Y-34165952D01*
X57420239Y-34118333D01*
X57229762Y-34118333D01*
X57134524Y-34165952D01*
X57086905Y-34213571D01*
X57039286Y-34308810D01*
X37397381Y-27271666D02*
X36921190Y-27605000D01*
X37397381Y-27843095D02*
X36397381Y-27843095D01*
X36397381Y-27462142D01*
X36445000Y-27366904D01*
X36492619Y-27319285D01*
X36587857Y-27271666D01*
X36730714Y-27271666D01*
X36825952Y-27319285D01*
X36873571Y-27366904D01*
X36921190Y-27462142D01*
X36921190Y-27843095D01*
X36397381Y-26938333D02*
X36397381Y-26271666D01*
X37397381Y-26700238D01*
X34977381Y-29811666D02*
X34501190Y-30145000D01*
X34977381Y-30383095D02*
X33977381Y-30383095D01*
X33977381Y-30002142D01*
X34025000Y-29906904D01*
X34072619Y-29859285D01*
X34167857Y-29811666D01*
X34310714Y-29811666D01*
X34405952Y-29859285D01*
X34453571Y-29906904D01*
X34501190Y-30002142D01*
X34501190Y-30383095D01*
X34405952Y-29240238D02*
X34358333Y-29335476D01*
X34310714Y-29383095D01*
X34215476Y-29430714D01*
X34167857Y-29430714D01*
X34072619Y-29383095D01*
X34025000Y-29335476D01*
X33977381Y-29240238D01*
X33977381Y-29049761D01*
X34025000Y-28954523D01*
X34072619Y-28906904D01*
X34167857Y-28859285D01*
X34215476Y-28859285D01*
X34310714Y-28906904D01*
X34358333Y-28954523D01*
X34405952Y-29049761D01*
X34405952Y-29240238D01*
X34453571Y-29335476D01*
X34501190Y-29383095D01*
X34596429Y-29430714D01*
X34786905Y-29430714D01*
X34882143Y-29383095D01*
X34929762Y-29335476D01*
X34977381Y-29240238D01*
X34977381Y-29049761D01*
X34929762Y-28954523D01*
X34882143Y-28906904D01*
X34786905Y-28859285D01*
X34596429Y-28859285D01*
X34501190Y-28906904D01*
X34453571Y-28954523D01*
X34405952Y-29049761D01*
X56658334Y-32197381D02*
X56325000Y-31721190D01*
X56086905Y-32197381D02*
X56086905Y-31197381D01*
X56467858Y-31197381D01*
X56563096Y-31245000D01*
X56610715Y-31292619D01*
X56658334Y-31387857D01*
X56658334Y-31530714D01*
X56610715Y-31625952D01*
X56563096Y-31673571D01*
X56467858Y-31721190D01*
X56086905Y-31721190D01*
X57134524Y-32197381D02*
X57325000Y-32197381D01*
X57420239Y-32149762D01*
X57467858Y-32102143D01*
X57563096Y-31959286D01*
X57610715Y-31768810D01*
X57610715Y-31387857D01*
X57563096Y-31292619D01*
X57515477Y-31245000D01*
X57420239Y-31197381D01*
X57229762Y-31197381D01*
X57134524Y-31245000D01*
X57086905Y-31292619D01*
X57039286Y-31387857D01*
X57039286Y-31625952D01*
X57086905Y-31721190D01*
X57134524Y-31768810D01*
X57229762Y-31816429D01*
X57420239Y-31816429D01*
X57515477Y-31768810D01*
X57563096Y-31721190D01*
X57610715Y-31625952D01*
X37397381Y-41717857D02*
X36921190Y-42051191D01*
X37397381Y-42289286D02*
X36397381Y-42289286D01*
X36397381Y-41908333D01*
X36445000Y-41813095D01*
X36492619Y-41765476D01*
X36587857Y-41717857D01*
X36730714Y-41717857D01*
X36825952Y-41765476D01*
X36873571Y-41813095D01*
X36921190Y-41908333D01*
X36921190Y-42289286D01*
X37397381Y-40765476D02*
X37397381Y-41336905D01*
X37397381Y-41051191D02*
X36397381Y-41051191D01*
X36540238Y-41146429D01*
X36635476Y-41241667D01*
X36683095Y-41336905D01*
X36397381Y-40146429D02*
X36397381Y-40051190D01*
X36445000Y-39955952D01*
X36492619Y-39908333D01*
X36587857Y-39860714D01*
X36778333Y-39813095D01*
X37016429Y-39813095D01*
X37206905Y-39860714D01*
X37302143Y-39908333D01*
X37349762Y-39955952D01*
X37397381Y-40051190D01*
X37397381Y-40146429D01*
X37349762Y-40241667D01*
X37302143Y-40289286D01*
X37206905Y-40336905D01*
X37016429Y-40384524D01*
X36778333Y-40384524D01*
X36587857Y-40336905D01*
X36492619Y-40289286D01*
X36445000Y-40241667D01*
X36397381Y-40146429D01*
X46022143Y-38157381D02*
X45688809Y-37681190D01*
X45450714Y-38157381D02*
X45450714Y-37157381D01*
X45831667Y-37157381D01*
X45926905Y-37205000D01*
X45974524Y-37252619D01*
X46022143Y-37347857D01*
X46022143Y-37490714D01*
X45974524Y-37585952D01*
X45926905Y-37633571D01*
X45831667Y-37681190D01*
X45450714Y-37681190D01*
X46974524Y-38157381D02*
X46403095Y-38157381D01*
X46688809Y-38157381D02*
X46688809Y-37157381D01*
X46593571Y-37300238D01*
X46498333Y-37395476D01*
X46403095Y-37443095D01*
X47926905Y-38157381D02*
X47355476Y-38157381D01*
X47641190Y-38157381D02*
X47641190Y-37157381D01*
X47545952Y-37300238D01*
X47450714Y-37395476D01*
X47355476Y-37443095D01*
X81920143Y-43267381D02*
X81586809Y-42791190D01*
X81348714Y-43267381D02*
X81348714Y-42267381D01*
X81729667Y-42267381D01*
X81824905Y-42315000D01*
X81872524Y-42362619D01*
X81920143Y-42457857D01*
X81920143Y-42600714D01*
X81872524Y-42695952D01*
X81824905Y-42743571D01*
X81729667Y-42791190D01*
X81348714Y-42791190D01*
X82872524Y-43267381D02*
X82301095Y-43267381D01*
X82586809Y-43267381D02*
X82586809Y-42267381D01*
X82491571Y-42410238D01*
X82396333Y-42505476D01*
X82301095Y-42553095D01*
X83253476Y-42362619D02*
X83301095Y-42315000D01*
X83396333Y-42267381D01*
X83634429Y-42267381D01*
X83729667Y-42315000D01*
X83777286Y-42362619D01*
X83824905Y-42457857D01*
X83824905Y-42553095D01*
X83777286Y-42695952D01*
X83205857Y-43267381D01*
X83824905Y-43267381D01*
X33587381Y-41717857D02*
X33111190Y-42051191D01*
X33587381Y-42289286D02*
X32587381Y-42289286D01*
X32587381Y-41908333D01*
X32635000Y-41813095D01*
X32682619Y-41765476D01*
X32777857Y-41717857D01*
X32920714Y-41717857D01*
X33015952Y-41765476D01*
X33063571Y-41813095D01*
X33111190Y-41908333D01*
X33111190Y-42289286D01*
X33587381Y-40765476D02*
X33587381Y-41336905D01*
X33587381Y-41051191D02*
X32587381Y-41051191D01*
X32730238Y-41146429D01*
X32825476Y-41241667D01*
X32873095Y-41336905D01*
X32587381Y-40432143D02*
X32587381Y-39813095D01*
X32968333Y-40146429D01*
X32968333Y-40003571D01*
X33015952Y-39908333D01*
X33063571Y-39860714D01*
X33158810Y-39813095D01*
X33396905Y-39813095D01*
X33492143Y-39860714D01*
X33539762Y-39908333D01*
X33587381Y-40003571D01*
X33587381Y-40289286D01*
X33539762Y-40384524D01*
X33492143Y-40432143D01*
X46022143Y-40697381D02*
X45688809Y-40221190D01*
X45450714Y-40697381D02*
X45450714Y-39697381D01*
X45831667Y-39697381D01*
X45926905Y-39745000D01*
X45974524Y-39792619D01*
X46022143Y-39887857D01*
X46022143Y-40030714D01*
X45974524Y-40125952D01*
X45926905Y-40173571D01*
X45831667Y-40221190D01*
X45450714Y-40221190D01*
X46974524Y-40697381D02*
X46403095Y-40697381D01*
X46688809Y-40697381D02*
X46688809Y-39697381D01*
X46593571Y-39840238D01*
X46498333Y-39935476D01*
X46403095Y-39983095D01*
X47831667Y-40030714D02*
X47831667Y-40697381D01*
X47593571Y-39649762D02*
X47355476Y-40364048D01*
X47974524Y-40364048D01*
X56182143Y-48707381D02*
X55848809Y-48231190D01*
X55610714Y-48707381D02*
X55610714Y-47707381D01*
X55991667Y-47707381D01*
X56086905Y-47755000D01*
X56134524Y-47802619D01*
X56182143Y-47897857D01*
X56182143Y-48040714D01*
X56134524Y-48135952D01*
X56086905Y-48183571D01*
X55991667Y-48231190D01*
X55610714Y-48231190D01*
X57134524Y-48707381D02*
X56563095Y-48707381D01*
X56848809Y-48707381D02*
X56848809Y-47707381D01*
X56753571Y-47850238D01*
X56658333Y-47945476D01*
X56563095Y-47993095D01*
X58039286Y-47707381D02*
X57563095Y-47707381D01*
X57515476Y-48183571D01*
X57563095Y-48135952D01*
X57658333Y-48088333D01*
X57896429Y-48088333D01*
X57991667Y-48135952D01*
X58039286Y-48183571D01*
X58086905Y-48278810D01*
X58086905Y-48516905D01*
X58039286Y-48612143D01*
X57991667Y-48659762D01*
X57896429Y-48707381D01*
X57658333Y-48707381D01*
X57563095Y-48659762D01*
X57515476Y-48612143D01*
X39937381Y-41717857D02*
X39461190Y-42051191D01*
X39937381Y-42289286D02*
X38937381Y-42289286D01*
X38937381Y-41908333D01*
X38985000Y-41813095D01*
X39032619Y-41765476D01*
X39127857Y-41717857D01*
X39270714Y-41717857D01*
X39365952Y-41765476D01*
X39413571Y-41813095D01*
X39461190Y-41908333D01*
X39461190Y-42289286D01*
X39937381Y-40765476D02*
X39937381Y-41336905D01*
X39937381Y-41051191D02*
X38937381Y-41051191D01*
X39080238Y-41146429D01*
X39175476Y-41241667D01*
X39223095Y-41336905D01*
X38937381Y-39908333D02*
X38937381Y-40098810D01*
X38985000Y-40194048D01*
X39032619Y-40241667D01*
X39175476Y-40336905D01*
X39365952Y-40384524D01*
X39746905Y-40384524D01*
X39842143Y-40336905D01*
X39889762Y-40289286D01*
X39937381Y-40194048D01*
X39937381Y-40003571D01*
X39889762Y-39908333D01*
X39842143Y-39860714D01*
X39746905Y-39813095D01*
X39508810Y-39813095D01*
X39413571Y-39860714D01*
X39365952Y-39908333D01*
X39318333Y-40003571D01*
X39318333Y-40194048D01*
X39365952Y-40289286D01*
X39413571Y-40336905D01*
X39508810Y-40384524D01*
X34977381Y-44257857D02*
X34501190Y-44591191D01*
X34977381Y-44829286D02*
X33977381Y-44829286D01*
X33977381Y-44448333D01*
X34025000Y-44353095D01*
X34072619Y-44305476D01*
X34167857Y-44257857D01*
X34310714Y-44257857D01*
X34405952Y-44305476D01*
X34453571Y-44353095D01*
X34501190Y-44448333D01*
X34501190Y-44829286D01*
X34977381Y-43305476D02*
X34977381Y-43876905D01*
X34977381Y-43591191D02*
X33977381Y-43591191D01*
X34120238Y-43686429D01*
X34215476Y-43781667D01*
X34263095Y-43876905D01*
X33977381Y-42972143D02*
X33977381Y-42305476D01*
X34977381Y-42734048D01*
X56182143Y-46167381D02*
X55848809Y-45691190D01*
X55610714Y-46167381D02*
X55610714Y-45167381D01*
X55991667Y-45167381D01*
X56086905Y-45215000D01*
X56134524Y-45262619D01*
X56182143Y-45357857D01*
X56182143Y-45500714D01*
X56134524Y-45595952D01*
X56086905Y-45643571D01*
X55991667Y-45691190D01*
X55610714Y-45691190D01*
X57134524Y-46167381D02*
X56563095Y-46167381D01*
X56848809Y-46167381D02*
X56848809Y-45167381D01*
X56753571Y-45310238D01*
X56658333Y-45405476D01*
X56563095Y-45453095D01*
X57705952Y-45595952D02*
X57610714Y-45548333D01*
X57563095Y-45500714D01*
X57515476Y-45405476D01*
X57515476Y-45357857D01*
X57563095Y-45262619D01*
X57610714Y-45215000D01*
X57705952Y-45167381D01*
X57896429Y-45167381D01*
X57991667Y-45215000D01*
X58039286Y-45262619D01*
X58086905Y-45357857D01*
X58086905Y-45405476D01*
X58039286Y-45500714D01*
X57991667Y-45548333D01*
X57896429Y-45595952D01*
X57705952Y-45595952D01*
X57610714Y-45643571D01*
X57563095Y-45691190D01*
X57515476Y-45786429D01*
X57515476Y-45976905D01*
X57563095Y-46072143D01*
X57610714Y-46119762D01*
X57705952Y-46167381D01*
X57896429Y-46167381D01*
X57991667Y-46119762D01*
X58039286Y-46072143D01*
X58086905Y-45976905D01*
X58086905Y-45786429D01*
X58039286Y-45691190D01*
X57991667Y-45643571D01*
X57896429Y-45595952D01*
X81857143Y-48302381D02*
X81523809Y-47826190D01*
X81285714Y-48302381D02*
X81285714Y-47302381D01*
X81666667Y-47302381D01*
X81761905Y-47350000D01*
X81809524Y-47397619D01*
X81857143Y-47492857D01*
X81857143Y-47635714D01*
X81809524Y-47730952D01*
X81761905Y-47778571D01*
X81666667Y-47826190D01*
X81285714Y-47826190D01*
X82238095Y-47397619D02*
X82285714Y-47350000D01*
X82380952Y-47302381D01*
X82619048Y-47302381D01*
X82714286Y-47350000D01*
X82761905Y-47397619D01*
X82809524Y-47492857D01*
X82809524Y-47588095D01*
X82761905Y-47730952D01*
X82190476Y-48302381D01*
X82809524Y-48302381D01*
X83428571Y-47302381D02*
X83523810Y-47302381D01*
X83619048Y-47350000D01*
X83666667Y-47397619D01*
X83714286Y-47492857D01*
X83761905Y-47683333D01*
X83761905Y-47921429D01*
X83714286Y-48111905D01*
X83666667Y-48207143D01*
X83619048Y-48254762D01*
X83523810Y-48302381D01*
X83428571Y-48302381D01*
X83333333Y-48254762D01*
X83285714Y-48207143D01*
X83238095Y-48111905D01*
X83190476Y-47921429D01*
X83190476Y-47683333D01*
X83238095Y-47492857D01*
X83285714Y-47397619D01*
X83333333Y-47350000D01*
X83428571Y-47302381D01*
X81857143Y-45802381D02*
X81523809Y-45326190D01*
X81285714Y-45802381D02*
X81285714Y-44802381D01*
X81666667Y-44802381D01*
X81761905Y-44850000D01*
X81809524Y-44897619D01*
X81857143Y-44992857D01*
X81857143Y-45135714D01*
X81809524Y-45230952D01*
X81761905Y-45278571D01*
X81666667Y-45326190D01*
X81285714Y-45326190D01*
X82238095Y-44897619D02*
X82285714Y-44850000D01*
X82380952Y-44802381D01*
X82619048Y-44802381D01*
X82714286Y-44850000D01*
X82761905Y-44897619D01*
X82809524Y-44992857D01*
X82809524Y-45088095D01*
X82761905Y-45230952D01*
X82190476Y-45802381D01*
X82809524Y-45802381D01*
X83380952Y-45230952D02*
X83285714Y-45183333D01*
X83238095Y-45135714D01*
X83190476Y-45040476D01*
X83190476Y-44992857D01*
X83238095Y-44897619D01*
X83285714Y-44850000D01*
X83380952Y-44802381D01*
X83571429Y-44802381D01*
X83666667Y-44850000D01*
X83714286Y-44897619D01*
X83761905Y-44992857D01*
X83761905Y-45040476D01*
X83714286Y-45135714D01*
X83666667Y-45183333D01*
X83571429Y-45230952D01*
X83380952Y-45230952D01*
X83285714Y-45278571D01*
X83238095Y-45326190D01*
X83190476Y-45421429D01*
X83190476Y-45611905D01*
X83238095Y-45707143D01*
X83285714Y-45754762D01*
X83380952Y-45802381D01*
X83571429Y-45802381D01*
X83666667Y-45754762D01*
X83714286Y-45707143D01*
X83761905Y-45611905D01*
X83761905Y-45421429D01*
X83714286Y-45326190D01*
X83666667Y-45278571D01*
X83571429Y-45230952D01*
X71303095Y-36717381D02*
X71303095Y-37526905D01*
X71350714Y-37622143D01*
X71398333Y-37669762D01*
X71493571Y-37717381D01*
X71684048Y-37717381D01*
X71779286Y-37669762D01*
X71826905Y-37622143D01*
X71874524Y-37526905D01*
X71874524Y-36717381D01*
X72874524Y-37717381D02*
X72303095Y-37717381D01*
X72588809Y-37717381D02*
X72588809Y-36717381D01*
X72493571Y-36860238D01*
X72398333Y-36955476D01*
X72303095Y-37003095D01*
M02*
